<?xml version="1.0" encoding="UTF-8"?>
<svg width="356px" height="155px" viewBox="0 0 356 155" version="1.1" xmlns="http://www.w3.org/2000/svg" xmlns:xlink="http://www.w3.org/1999/xlink">
    <title>D1047D38-4C31-4F9E-AD3F-A6EAA0203BC9</title>
    <defs>
        <polygon id="path-1" points="0 0.35594962 113.57216 0.35594962 113.57216 82.4677807 0 82.4677807"></polygon>
    </defs>
    <g id="Design" stroke="none" stroke-width="1" fill="none" fill-rule="evenodd">
        <g id="404" transform="translate(-541.000000, -276.000000)">
            <g id="Group-4" transform="translate(34.000000, 33.000000)">
                <g id="Group-3" transform="translate(507.000000, 243.000000)">
                    <path d="M90.7011719,131 L90.7011719,107.313477 L103.108398,107.313477 L103.108398,89.7929688 L90.7011719,89.7929688 L90.7011719,21.515625 L68.7441406,21.515625 L23.1005859,93.6279297 L24.078125,107.313477 L68.9697266,107.313477 L68.9697266,131 L90.7011719,131 Z M68.9697266,89.7929688 L44.7568359,89.7929688 L67.5410156,53.6240234 L68.9697266,51.1425781 L68.9697266,89.7929688 Z M314.354492,131 L314.354492,107.313477 L326.761719,107.313477 L326.761719,89.7929688 L314.354492,89.7929688 L314.354492,21.515625 L292.397461,21.515625 L246.753906,93.6279297 L247.731445,107.313477 L292.623047,107.313477 L292.623047,131 L314.354492,131 Z M292.623047,89.7929688 L268.410156,89.7929688 L291.194336,53.6240234 L292.623047,51.1425781 L292.623047,89.7929688 Z" id="44" fill="#FFFFFF" fill-rule="nonzero"></path>
                    <g id="Group-8-Copy-3" transform="translate(121.500000, 19.000000)">
                        <polygon id="Fill-1" fill="#F2BA1D" points="43.7844037 116 71.2155963 116 71.2155963 0 43.7844037 0"></polygon>
                        <polygon id="Fill-3" fill="#EF8C20" points="0.527522936 75.2084205 100.784985 17.0275229 114.472477 40.7915795 14.2130348 98.9724771"></polygon>
                        <g id="Group-7" transform="translate(0.527523, 15.963303)">
                            <mask id="mask-2" fill="white">
                                <use xlink:href="#path-1"></use>
                            </mask>
                            <g id="Clip-6"></g>
                            <polygon id="Fill-5" fill="#3476D6" mask="url(#mask-2)" points="13.5931944 0.35594962 113.573146 58.5868334 99.9789652 82.4677807 -0.000986229003 24.2368969"></polygon>
                        </g>
                    </g>
                </g>
            </g>
        </g>
    </g>
</svg>