<svg xmlns="http://www.w3.org/2000/svg" viewBox="0 0 128.105 43"><defs><style>.cls-1{fill:#fff;stroke:#bec3c5;stroke-width:2px;}.cls-2{fill:#7cb13f;}.cls-2,.cls-3,.cls-4,.cls-5,.cls-6,.cls-7,.cls-8{fill-rule:evenodd;}.cls-3{fill:#d71d62;}.cls-4{fill:#336a2d;}.cls-5{fill:#861450;}.cls-6{fill:#2994d2;}.cls-7{fill:#08589b;}.cls-8{fill:#666b6e;}</style></defs><g id="Layer_2" data-name="Layer 2"><g id="Layer_1-2" data-name="Layer 1"><g id="elife-logo-xs"><g id="logo"><g id="symbol"><circle id="Oval" class="cls-1" cx="21.5" cy="21.5" r="20.5"/><path id="Fill-2" class="cls-2" d="M18.454,18.454a2.821,2.821,0,0,0,3.978,0L32.725,8.162a17.428,17.428,0,0,0-4.979-2.976l-9.292,9.291a2.82,2.82,0,0,0,0,3.977"/><path id="Fill-4" class="cls-3" d="M24.42,24.421a2.82,2.82,0,0,1,0,3.977l-7.955,7.955a2.812,2.812,0,0,1-3.977-3.977l7.955-7.955a2.82,2.82,0,0,1,3.977,0"/><path id="Fill-6" class="cls-4" d="M16.465,20.443a2.813,2.813,0,1,1-3.977,0,2.821,2.821,0,0,1,3.977,0"/><path id="Fill-8" class="cls-4" d="M26.409,10.5a2.812,2.812,0,1,1-3.977,0,2.82,2.82,0,0,1,3.977,0"/><path id="Fill-10" class="cls-5" d="M18.454,30.387a2.812,2.812,0,1,1-3.977,0,2.82,2.82,0,0,1,3.977,0"/><path id="Fill-12" class="cls-5" d="M36.353,12.488a2.813,2.813,0,1,1-3.977,0,2.821,2.821,0,0,1,3.977,0"/><path id="Fill-14" class="cls-3" d="M30.387,18.454a2.813,2.813,0,1,1-3.978,0,2.821,2.821,0,0,1,3.978,0"/><path id="Fill-16" class="cls-6" d="M32.375,28.4a2.813,2.813,0,1,1-3.977,0,2.819,2.819,0,0,1,3.977,0"/><path id="Fill-18" class="cls-7" d="M16.465,8.511a2.812,2.812,0,1,1-3.977,0,2.82,2.82,0,0,1,3.977,0"/><path id="Fill-20" class="cls-5" d="M10.5,26.409a2.821,2.821,0,0,0-3.978,0L5.186,27.745a17.421,17.421,0,0,0,2.975,4.979L10.5,30.387a2.821,2.821,0,0,0,0-3.978"/><path id="Fill-22" class="cls-3" d="M18.454,6.522a2.821,2.821,0,0,0,3.978,0l1.989-1.989a2.713,2.713,0,0,0,.193-.238,17.295,17.295,0,0,0-6.969.125,2.8,2.8,0,0,0,.809,2.1"/><path id="Fill-24" class="cls-6" d="M10.5,18.454a2.813,2.813,0,0,0-3.978-3.977L4.807,16.191a17.452,17.452,0,0,0-.594,7.964,2.775,2.775,0,0,0,1.315-.729Z"/><path id="Fill-26" class="cls-7" d="M34.364,22.432a2.8,2.8,0,0,0,3.726,4.182,17.384,17.384,0,0,0,.49-8.354,2.725,2.725,0,0,0-.238.194Z"/><path id="Fill-28" class="cls-2" d="M26.409,34.364a2.82,2.82,0,0,0-3.977,0l-3.978,3.978a2.725,2.725,0,0,0-.194.238,17.4,17.4,0,0,0,8.354-.489,2.813,2.813,0,0,0-.205-3.727"/></g><g id="letters"><path id="Fill-32" class="cls-8" d="M57.334,17.815a3.4,3.4,0,0,0-2.672,1.08,5,5,0,0,0-1.107,3.068h7.523A4.474,4.474,0,0,0,60.041,18.9a3.514,3.514,0,0,0-2.707-1.08m.756,16.558a10.143,10.143,0,0,1-7.418-2.619Q48,29.135,48,24.336,48,19.4,50.47,16.7A8.792,8.792,0,0,1,57.3,14a8.656,8.656,0,0,1,6.486,2.373,8.975,8.975,0,0,1,2.32,6.556v2.6H53.431A5.164,5.164,0,0,0,54.785,29.1a4.761,4.761,0,0,0,3.551,1.284,14.742,14.742,0,0,0,3.357-.369A16.785,16.785,0,0,0,65,28.836v4.148a12.6,12.6,0,0,1-3.006,1.047,18.988,18.988,0,0,1-3.9.342"/><polygon id="Fill-34" class="cls-8" points="69 34 69 9 74 9 74 30 84 30 84 34 69 34"/><path id="Fill-36" class="cls-8" d="M87,34h5V15H87Zm0-23.508a2.5,2.5,0,0,1,5,0,2.579,2.579,0,0,1-.625,1.847A2.459,2.459,0,0,1,89.5,13,2.214,2.214,0,0,1,87,10.492Z"/><path id="Fill-38" class="cls-8" d="M108,19h-5V34H98V19H95V16l3-1V14c0-2.238.607-4.422,1.709-5.453S102.574,7,105,7a13.76,13.76,0,0,1,4.939.826l-1.451,3.684A13.278,13.278,0,0,0,105,11a1.94,1.94,0,0,0-1.653.676A4.993,4.993,0,0,0,103,14v1h5Z"/><path id="Fill-39" class="cls-8" d="M119.334,17.815a3.4,3.4,0,0,0-2.672,1.08,5.011,5.011,0,0,0-1.108,3.068h7.524a4.474,4.474,0,0,0-1.037-3.068,3.514,3.514,0,0,0-2.707-1.08m.756,16.558a10.143,10.143,0,0,1-7.418-2.619Q110,29.135,110,24.336q0-4.939,2.469-7.637A8.8,8.8,0,0,1,119.3,14a8.654,8.654,0,0,1,6.486,2.373,8.975,8.975,0,0,1,2.32,6.556v2.6H115.432a5.159,5.159,0,0,0,1.353,3.567,4.761,4.761,0,0,0,3.551,1.284,14.742,14.742,0,0,0,3.357-.369A16.785,16.785,0,0,0,127,28.836v4.148a12.586,12.586,0,0,1-3.006,1.047,18.988,18.988,0,0,1-3.9.342"/></g></g></g></g></g></svg>