<?xml version="1.0" encoding="UTF-8"?>
<svg width="264px" height="145px" viewBox="0 0 264 145" version="1.1" xmlns="http://www.w3.org/2000/svg" xmlns:xlink="http://www.w3.org/1999/xlink">
    <title>FD627F4B-E238-4AC6-8A71-ACD74D32AF2E</title>
    <defs>
        <polygon id="path-1" points="0.0411467176 0.0406120044 261.210131 0.0406120044 261.210131 144.714745 0.0411467176 144.714745"></polygon>
        <polygon id="path-3" points="0 144.984787 263.682262 144.984787 263.682262 -0.000285245902 0 -0.000285245902"></polygon>
    </defs>
    <g id="Design" stroke="none" stroke-width="1" fill="none" fill-rule="evenodd">
        <g id="home" transform="translate(-320.000000, -179.000000)">
            <g id="intro-illustration" transform="translate(320.000000, 179.000000)">
                <g id="Group-3" transform="translate(2.472131, 0.270033)">
                    <mask id="mask-2" fill="white">
                        <use xlink:href="#path-1"></use>
                    </mask>
                    <g id="Clip-2"></g>
                    <path d="M16.0571479,144.642292 C16.0571479,144.642292 -16.0305439,110.190387 10.6306298,72.8913479 C34.2861675,39.7970233 61.8661184,42.0592134 82.1010823,55.4890659 C90.7194069,61.209102 115.566987,56.1941938 136.715499,22.5193938 C165.556236,-23.4036751 265.528745,4.44887574 247.300581,75.1026692 C238.479541,109.29405 274.146784,110.536961 255.972912,144.714745 L16.0571479,144.642292 Z" id="Fill-1" fill="#F2BA1D" mask="url(#mask-2)"></path>
                </g>
                <polygon id="Fill-4" fill="#DFEBFD" points="44.4557354 98.2423967 65.3555125 120.950823 42.6471813 141.850695 21.7473092 119.142269"></polygon>
                <polygon id="Fill-6" fill="#BED7FB" points="44.4557354 98.2423967 48.6650141 102.815934 25.9564928 123.715711 21.7473092 119.142269"></polygon>
                <polygon id="Fill-8" fill="#9EC3F6" points="110.775588 8.78586852 126.346782 11.0069833 116.013654 3.96397672 115.488136 6.22179311 111.701401 6.90761934"></polygon>
                <polygon id="Fill-10" fill="#CDE0FB" points="126.346744 11.0070213 113.389068 4.32627705 100.68916 3.68751639"></polygon>
                <polygon id="Fill-12" fill="#CDE0FB" points="116.013635 3.96398623 126.346763 11.0069928 118.347517 -0.000266229508"></polygon>
                <path d="M92.217157,78.1035036 C89.8025505,80.5251462 87.1434882,82.6293102 84.2715374,84.4014479 C77.311062,79.3140872 69.8740357,74.9598085 62.1258062,71.4347397 C63.1911046,69.4829921 64.2409046,67.4214249 65.2657931,65.2694348 C72.357862,66.20932 79.1759997,66.7732511 85.4006357,66.9191069 C87.0253013,66.9661725 88.6028062,66.9661725 90.1333407,66.9543823 C94.100921,66.9073167 97.6327407,66.6718938 100.658439,66.2480184 C98.5392521,70.639379 95.7020062,74.6186544 92.217157,78.1035036 M48.0897111,88.8567987 C51.3214521,87.1630085 54.5683111,83.2728249 57.0688718,79.6884249 C58.3585636,77.8396511 59.6473997,75.7936774 60.9198816,73.5852085 C68.256121,76.9075626 75.310157,80.9890511 81.9364193,85.7439102 C71.0139734,91.5809921 58.7136948,92.2416216 48.0897111,88.8567987 M20.784262,63.5084216 C24.1457898,63.6437233 30.3780325,64.1528872 38.3388652,65.9648643 C38.9085013,66.094461 39.477662,66.2303331 40.0466325,66.3690577 C39.6369243,68.7588479 39.3344685,71.0424315 39.1478226,73.1888118 C38.7942128,77.2553725 38.7691111,81.9441495 39.903439,85.2923659 C36.4511079,83.3489856 33.2850685,80.944743 30.4439243,78.1035036 C26.2086882,73.8682675 22.9497538,68.9093626 20.784262,63.5084216 M41.1510095,60.8098052 C40.9129243,61.8716807 40.69338,62.918343 40.4919013,63.9485561 C39.9562095,63.8186741 39.4204226,63.6913593 38.8840652,63.5693692 C29.8225636,61.5067561 23.023062,61.0872544 19.8710948,61.0162282 C19.0902816,58.6644708 18.5162718,56.2591823 18.1528685,53.8039757 C24.3262554,56.1786479 31.2750357,58.4562413 41.1510095,60.8098052 M13.1963407,49.330179 C4.84918984,45.2566774 1.03478656,41.3245626 2.7418882,38.5342872 C4.11924557,36.2737134 9.13462918,34.7433692 16.8106915,34.178202 C15.2632325,39.4010544 14.7250685,44.8309954 15.0447341,50.20132 C14.408921,49.9187364 13.7967833,49.6244577 13.1963407,49.330179 M22.296921,27.5735233 L22.298062,27.5713364 C27.6939636,34.3156905 35.6469997,41.2102741 44.9395505,47.1897889 C43.6219046,51.200061 42.4977505,55.1412085 41.5904784,58.9182446 C33.8858915,57.0541626 24.9308816,54.4178249 17.8584948,51.4257856 C17.2720292,45.56132 17.9106948,39.6247823 19.6716128,34.02512 C20.355062,31.853638 21.2618587,29.6155036 22.296921,27.5735233 M18.6598456,8.98804131 C20.0799898,6.73364787 23.2536357,5.57003475 27.7099374,5.57003475 C29.8411997,5.57003475 32.2674062,5.8360741 34.9338849,6.3775659 C35.9463177,6.58246754 36.9803341,6.82359541 38.0319407,7.10104459 C38.0328915,7.10132984 38.0338423,7.10152 38.034698,7.10180525 C31.6725734,10.7811921 26.0689177,16.1060675 21.896721,22.7818675 C21.8959603,22.7831036 21.8951997,22.7842446 21.894439,22.7853856 C17.9568095,16.9388905 16.773039,11.9813167 18.6598456,8.98804131 M61.3364357,3.52120852 C64.3625144,3.52120852 67.3387702,3.82566098 70.2480882,4.4298118 C66.8164849,5.92354951 63.3129046,10.0810085 60.6533669,13.8934151 C57.9315505,17.7951987 55.2134423,22.5703102 52.6467997,27.9155331 C45.718557,24.1509528 39.1744456,18.3799528 36.0462489,11.5815921 C43.3500652,6.38659869 52.133357,3.52120852 61.3364357,3.52120852 M92.217157,16.3184807 C97.8824259,21.9837495 101.640636,28.7880052 103.54161,35.9033692 C93.4726193,36.639779 84.2458652,36.4085397 75.99798,35.2147856 C77.3068784,29.8671856 78.188003,24.8364938 78.5744161,20.3930282 C79.0011439,15.4862282 78.9491341,9.67424787 76.959639,6.40352328 C82.7228423,8.6179823 87.8710554,11.959638 92.217157,16.3184807 M72.9534554,37.2148348 C71.8209341,41.4762184 70.4258915,45.9144544 68.8006554,50.3958577 C68.1741603,52.1232118 67.5255111,53.8236577 66.8582259,55.4902544 C60.7527275,53.248602 54.2725111,50.042438 47.901639,46.082179 C48.2309079,45.1196643 48.5706357,44.1538216 48.9215833,43.1860774 C50.4316751,39.0226282 52.070603,35.0153987 53.7890193,31.2627036 C59.8021931,34.1771561 66.3161636,36.0584479 72.9534554,37.2148348 M73.4959931,6.4392741 C74.835698,6.92514295 75.5157243,8.84789049 75.8503177,10.3753823 C76.3791636,12.7891331 76.474721,16.179661 76.1268161,20.1802348 C75.7460128,24.5591397 74.8690718,29.5327823 73.5640718,34.8285626 C67.1474652,33.7245659 60.7352325,31.9043167 54.8315931,29.0389266 C57.3477472,23.791638 60.0082357,19.1122741 62.668439,15.2991069 C64.9659046,12.0055626 67.2126915,9.46468721 69.1658652,7.9509823 C70.1850489,7.16123148 71.5567013,6.31576262 72.7576816,6.31576262 C73.0130718,6.31576262 73.2610456,6.35408066 73.4959931,6.4392741 M34.0439177,13.0946315 C37.554439,20.2870118 44.3199013,26.2129003 51.6005177,30.1436839 C49.8366521,33.9871823 48.1567439,38.0891134 46.6119472,42.3484052 C46.3239439,43.1425298 46.0439275,43.9352282 45.7702816,44.7262151 C36.5436226,38.7204577 28.7320685,31.8289167 23.607721,25.1595823 C23.6069603,25.1586315 23.6062948,25.1577757 23.6056292,25.1568249 C26.3100456,20.5430675 29.8337833,16.4698511 34.0439177,13.0946315 M49.4691603,60.6793528 C47.6110685,60.2971233 45.77998,59.8975889 43.9804587,59.4828413 C44.827639,55.9576774 45.8683111,52.2825692 47.0832685,48.537861 C53.3990882,52.4202479 59.8219702,55.5783954 65.9034128,57.8196675 C65.1404751,59.6410577 64.3568095,61.4170938 63.5564095,63.1360807 C58.9371374,62.4733593 54.2109931,61.651661 49.4691603,60.6793528 M59.8713177,70.4379954 C54.3290849,68.0497266 48.6311079,66.0761102 42.8759866,64.5524216 C43.0788915,63.5080413 43.3012882,62.4454052 43.5428915,61.3667003 C45.1433111,61.730579 46.7661702,62.0827626 48.4095669,62.4217298 C53.2185275,63.4053528 58.0158882,64.2403626 62.7119866,64.9161102 C61.7818948,66.840379 60.8325013,68.6849692 59.8713177,70.4379954 M44.2262456,87.1425659 C42.8866357,86.6567921 42.2065144,84.7339495 41.871921,83.2065528 C41.3431702,80.7926118 41.2475177,77.402179 41.5955177,73.4017003 C41.7713243,71.3784511 42.0541931,69.2272216 42.4349964,66.977297 C47.9258849,68.4407036 53.3635275,70.3227561 58.6584521,72.5907462 C57.4657439,74.6472741 56.2597243,76.554238 55.0539898,78.2828282 C52.7563341,81.5761823 50.5096423,84.1171528 48.5563734,85.6308577 C47.320403,86.5886184 45.5659505,87.6283397 44.2262456,87.1425659 M101.612111,64.1524118 C98.4687013,64.717579 94.5482816,65.0472282 89.9685636,65.0942938 C82.8621374,65.1810085 74.7004915,64.6197397 66.0995669,63.4862675 C66.8233308,61.9106643 67.5328325,60.2917036 68.2247439,58.6359462 C70.8937898,59.528861 73.4840128,60.2360807 75.9543374,60.7373528 C78.784357,61.311838 81.3668784,61.5954675 83.6720456,61.5954675 C89.0753636,61.5954675 92.946721,60.0356479 94.858439,57.0006315 C95.1731603,56.5006905 95.4298816,55.9707036 95.6276521,55.4106708 L92.8731275,55.4106708 C92.8276784,55.4945331 92.7789964,55.5773495 92.7282226,55.6581692 C91.3080784,57.9124675 88.1345275,59.0771266 83.6782259,59.0760807 C81.5469636,59.0760807 79.120757,58.8100413 76.4542784,58.2686446 C74.1299997,57.7972282 71.6927636,57.1349823 69.179557,56.3008282 C69.8428489,54.6415528 70.4875997,52.9504249 71.1102915,51.2334348 C72.7893439,46.6040839 74.226603,42.0148577 75.3894554,37.6079987 C84.8123636,38.9970511 94.6568652,39.0387921 104.113813,38.3255823 C104.712164,41.2266282 105.014524,44.1956577 105.014524,47.2109921 C105.014524,53.0857266 103.872495,58.7839889 101.612111,64.1524118 M112.690491,56.5587856 L109.099816,56.4764446 C110.253446,57.9716085 110.512449,59.349061 109.794295,60.5145757 C109.076141,61.7036708 107.357249,62.6808282 104.790796,63.4224675 C106.733416,58.254097 107.710478,52.803238 107.710478,47.2109921 C107.710478,35.1169462 103.004777,23.278861 94.1244062,14.4230216 C85.5282357,5.82694623 73.9085538,0.836854426 61.3364357,0.836854426 C54.2767898,0.836854426 47.4553243,2.40152328 41.2515111,5.39308721 C41.2496095,5.39403803 41.2475177,5.39508393 41.245521,5.39603475 C39.2509866,4.78751016 37.3082718,4.28861508 35.4338259,3.90876262 C25.971839,1.9885823 19.2571505,3.31564131 16.5296292,7.64557902 C13.9340816,11.7634839 15.3469997,17.9622577 20.4975898,25.1920052 C20.4969243,25.1930511 20.4962587,25.1941921 20.4956882,25.1954282 C19.3448161,27.321461 18.2372062,29.8435102 17.4228292,32.2592577 C7.74548164,32.8360249 2.5652259,34.5391331 0.681557049,37.6238774 C-1.50818066,41.2145528 1.48214721,46.0336872 11.0536685,50.7193266 C12.3722652,51.3669298 13.7849931,52.0026479 15.268462,52.6383659 C16.4150554,62.7128708 21.0044718,72.4786446 28.5366751,80.0107528 C32.7985341,84.2608216 37.7549669,87.604379 43.2764718,89.9471987 C60.1913636,97.0821495 80.3554915,93.7416348 94.1244062,80.0107528 C98.2684587,75.8666052 101.55316,71.0396741 103.872495,65.6947364 C108.59341,64.717579 111.701639,63.1870446 112.937705,61.1619889 C113.797246,59.7610511 113.691229,58.2070315 112.690491,56.5587856" id="Fill-14" fill="#ADCBF9"></path>
                <path d="M91.2263174,63.7962633 L84.8131338,140.049814 C84.8131338,140.049814 84.1411895,144.672129 87.5794485,144.680306 C93.232642,144.693712 115.717055,144.680306 115.717055,144.680306 C115.717055,144.680306 111.462327,143.718171 111.513862,141.553155 C111.574714,139.00125 119.009458,63.0745911 119.009458,63.0745911 L91.2263174,63.7962633 Z" id="Fill-16" fill="#C66320"></path>
                <path d="M117.541355,143.296863 C116.429561,143.300096 94.954063,143.367509 89.448817,143.296863 C87.0495187,143.267008 86.6288761,141.163604 86.6090039,139.802221 C86.5990203,139.149673 86.6818367,138.667227 86.6818367,138.667227 L86.8485154,136.685244 L87.2736269,131.633824 L87.6490105,127.170867 L88.1315515,121.435998 L88.5379318,116.59547 L93.0947351,62.41206 L120.878161,61.6910534 C120.878161,61.6910534 117.746732,93.4659256 115.531892,116.59547 C115.284584,119.172476 115.049351,121.643657 114.831899,123.95006 C114.761158,124.686565 114.69384,125.406526 114.627568,126.10766 C114.422191,128.295971 114.234499,130.305529 114.071148,132.079853 C113.985004,133.01508 113.905515,133.884034 113.833729,134.680155 C113.55105,137.799319 113.385417,139.791191 113.38323,140.169903 C113.382089,140.390778 113.40082,140.596155 113.437332,140.78708 C113.893345,143.217375 117.12404,143.296863 117.541355,143.296863" id="Fill-18" fill="#FF9D3B"></path>
                <polygon id="Fill-20" fill="#EF8C20" points="23.7529397 22.3019033 39.3741462 85.0491557 41.5130151 93.6426639 48.7885921 122.868484 183.957687 122.868484 157.141054 22.3019033"></polygon>
                <polygon id="Fill-22" fill="#FF9D3B" points="23.7527495 22.3018082 21.5877331 23.0234803 45.910461 125.05147 48.7888774 122.868864"></polygon>
                <polygon id="Fill-24" fill="#C66320" points="45.9104705 125.051432 180.247598 125.051432 183.957316 122.868826 48.7887918 122.868826"></polygon>
                <mask id="mask-4" fill="white">
                    <use xlink:href="#path-3"></use>
                </mask>
                <g id="Clip-27"></g>
                <polygon id="Fill-26" fill="#FF9D3B" mask="url(#mask-4)" points="93.0857213 144.709525 122.171675 144.709525 122.171675 143.327318 93.0857213 143.327318"></polygon>
                <polygon id="Fill-28" fill="#F1A34F" mask="url(#mask-4)" points="177.409383 104.337484 155.47654 23.6314344 23.5367138 23.6314344 23.5367138 22.3018082 157.140855 22.3018082 179.000389 104.158064"></polygon>
                <polygon id="Fill-29" fill="#C66320" mask="url(#mask-4)" points="114.777759 125.050967 114.627625 126.107612 87.2735889 131.633776 87.6490675 127.170914 87.8280118 125.050967"></polygon>
                <path d="M117.541355,143.296863 C116.429561,143.300096 94.954063,143.367509 89.448817,143.296863 C87.0495187,143.267008 86.6288761,141.163604 86.6090039,139.802221 L113.833729,134.680155 C113.55105,137.799319 113.385417,139.791191 113.38323,140.169903 C113.382089,140.390778 113.40082,140.596155 113.437332,140.78708 C113.893345,143.217375 117.12404,143.296863 117.541355,143.296863" id="Fill-30" fill="#EF8C20" mask="url(#mask-4)"></path>
                <polygon id="Fill-31" fill="#3476D6" mask="url(#mask-4)" points="23.7527495 22.3018082 157.140864 22.3018082 178.783327 103.125759 43.186838 103.125759"></polygon>
                <path d="M119.95657,113.342972 C119.571298,111.360799 117.652163,109.753913 115.669894,109.753913 C113.687721,109.753913 112.393275,111.360799 112.778547,113.342972 C113.163914,115.325146 115.083049,116.931936 117.065222,116.931936 C119.047301,116.931936 120.341937,115.325146 119.95657,113.342972" id="Fill-32" fill="#C66320" mask="url(#mask-4)"></path>
                <polygon id="Fill-33" fill="#E9F3FE" mask="url(#mask-4)" points="172.492884 99.6234052 47.6008187 99.6234052 33.4568056 43.2793528 32.3730613 38.9589233 31.4477236 35.273261 30.7074154 32.3226774 29.2782384 26.6311659 152.370022 26.6311659 152.456166 26.9442708 153.937924 32.3226774 154.75135 35.273261 155.768347 38.9589233 156.959533 43.2793528"></polygon>
                <polygon id="Fill-34" fill="#E9F3FE" mask="url(#mask-4)" points="172.492884 99.8159843 47.6008187 99.8159843 33.4568056 43.4719318 32.3730613 39.1515023 31.4477236 35.46584 30.7074154 32.5152564 29.2782384 26.8237449 152.370022 26.8237449 152.456166 27.1369449 153.937924 32.5152564 154.75135 35.46584 155.768347 39.1515023 156.959533 43.4719318"></polygon>
                <polygon id="Fill-35" fill="#AFCDFB" mask="url(#mask-4)" points="153.937876 32.3226489 30.7073679 32.3226489 29.2782859 26.6312325 152.322719 26.6312325 152.456119 26.9443374"></polygon>
                <path d="M32.7023397,29.4768741 C32.5536315,28.8803298 32.9167495,28.3966479 33.5132938,28.3966479 C34.1100282,28.3966479 34.714179,28.8803298 34.8629823,29.4768741 C35.0116905,30.0735134 34.6486675,30.5571954 34.0520282,30.5571954 C33.4553889,30.5571954 32.851143,30.0735134 32.7023397,29.4768741" id="Fill-36" fill="#E9F3FE" mask="url(#mask-4)"></path>
                <path d="M36.2918741,29.4768741 C36.1431659,28.8803298 36.5061889,28.3966479 37.1027331,28.3966479 C37.6994675,28.3966479 38.3036184,28.8803298 38.4524216,29.4768741 C38.6011298,30.0735134 38.2381069,30.5571954 37.6414675,30.5571954 C37.0448282,30.5571954 36.4405823,30.0735134 36.2918741,29.4768741" id="Fill-37" fill="#E9F3FE" mask="url(#mask-4)"></path>
                <path d="M40.156899,29.4768741 C40.0081908,28.8803298 40.3713089,28.3966479 40.9678531,28.3966479 C41.5645875,28.3966479 42.1687384,28.8803298 42.3175416,29.4768741 C42.4662498,30.0735134 42.1032269,30.5571954 41.5065875,30.5571954 C40.9099482,30.5571954 40.3057023,30.0735134 40.156899,29.4768741" id="Fill-38" fill="#E9F3FE" mask="url(#mask-4)"></path>
                <path d="M86.5058305,99.8159843 L74.1565846,99.8159843 C74.0382075,98.8508072 73.9338075,97.8305777 73.8402469,96.7664203 C73.674519,94.8574597 73.5475846,92.8042597 73.4539289,90.6681482 C73.4312993,90.1752433 73.4119977,89.6781548 73.393742,89.1777384 C73.3700666,88.5407843 73.3495289,87.8962236 73.331178,87.2483351 C73.3011321,86.148617 73.2774567,85.0359679 73.2601518,83.916758 C73.259201,83.9157121 73.259201,83.9135252 73.259201,83.9124793 C73.2376174,82.4855843 73.2268731,81.0489908 73.2236403,79.617817 L73.2236403,79.6167711 C73.2225944,79.2594531 73.2225944,78.9022302 73.2225944,78.5460531 L73.2225944,78.5449121 C73.2225944,78.2091777 73.2236403,77.8756302 73.2246862,77.5419875 C73.2355256,74.4612367 73.2817354,71.4395318 73.347342,68.6298597 C73.4894895,62.4133056 73.719683,57.2330498 73.8423387,54.7429482 L73.8423387,54.7418072 C73.8918764,53.7194859 73.9242043,53.1513711 73.9242043,53.1513711 C73.9253452,53.1513711 73.9262961,53.1525121 73.927437,53.1525121 C73.9553911,53.1566957 74.1426075,53.1912105 74.4374567,53.2622367 C74.6537682,53.3150072 74.9281748,53.3870793 75.2402338,53.4828269 L75.2412797,53.4828269 C75.5231977,53.5678302 75.8343059,53.6732761 76.1613879,53.7970728 C76.1624338,53.7970728 76.1635748,53.7970728 76.1645256,53.7982138 C76.7209452,54.0123384 77.320342,54.2856039 77.884178,54.6288498 C77.8928305,54.6332236 77.9013879,54.6375023 77.9100403,54.641781 C78.8322403,55.2142695 79.6651584,55.9729285 80.0450108,56.9748072 C80.3710469,57.825981 81.1339846,62.4003744 82.0561846,68.476017 C82.0820469,68.6492564 82.1078141,68.8235416 82.1347223,69.0000138 C82.6222075,72.2261449 83.149437,75.8461056 83.6789485,79.542417 C84.2395518,83.4595089 84.8002502,87.4603679 85.3155944,91.1674236 C85.7557289,94.3472498 86.1636305,97.3098138 86.5058305,99.8159843" id="Fill-39" fill="#2B478B" mask="url(#mask-4)"></path>
                <path d="M83.0472239,99.8159843 L68.6728272,99.8159843 C68.3973748,98.630122 68.1391321,97.4862859 67.9098895,96.413381 C67.27826,93.4562367 66.8628469,91.0329777 66.8853813,89.7309252 C66.8962207,89.1207843 67.1265092,88.6429023 67.5225256,88.2760761 C67.7936993,88.0242039 68.1423649,87.8240564 68.5523584,87.6680269 C69.7651289,87.2075449 71.5073157,87.1321449 73.331178,87.2483351 C73.9511125,87.2870334 74.5795092,87.3473154 75.1993485,87.4226203 C78.6159289,87.8369875 81.7871977,88.6827416 81.7871977,88.6827416 C81.7871977,88.6827416 81.9992305,89.5404761 82.2498666,91.0394433 C82.4382239,92.1639777 82.6480698,93.6510597 82.8040043,95.4073187 C82.8945223,96.427358 82.9676403,97.5390564 83.0085256,98.7237777 C83.0204108,99.0799548 83.033342,99.4447843 83.0472239,99.8159843" id="Fill-40" fill="#233862" mask="url(#mask-4)"></path>
                <path d="M76.4088482,89.7480685 L76.2657498,90.7865538 L75.5695597,95.8291308 L75.4511826,96.690003 L75.0197007,99.8160128 L60.0394416,99.8160128 C59.9231564,97.7498816 59.8155236,95.736521 59.7951761,93.981403 C59.7929892,93.7866751 59.7918482,93.5962259 59.7918482,93.4090095 C59.7918482,90.7661111 60.0243236,88.8065669 60.7818416,88.3115702 C61.640622,87.7508718 64.4890875,87.9047144 67.5224875,88.2761046 C67.8249433,88.312521 68.1294908,88.3523603 68.4339433,88.3933407 C70.2019925,88.6311407 71.9710875,88.9249439 73.3937039,89.1777669 C74.1319203,89.3090751 74.776481,89.4295439 75.2778482,89.5253866 C75.9860187,89.6609734 76.4088482,89.7480685 76.4088482,89.7480685" id="Fill-41" fill="#C65447" mask="url(#mask-4)"></path>
                <path d="M59.7919718,55.7518154 C59.7919718,55.7518154 68.0216964,50.430363 73.9245751,53.151799 C74.8651259,53.5854679 75.9381259,54.7955761 76.7063882,55.6420908 C78.8399325,57.9930875 83.0091816,95.3410941 83.0091816,95.3410941 C83.0091816,95.3410941 71.1740439,99.3493695 59.7919718,93.9807564 L59.7919718,55.7518154 Z" id="Fill-42" fill="#FFFFFF" mask="url(#mask-4)"></path>
                <path d="M74.3928157,53.0168111 C74.3928157,53.0168111 82.724278,56.4312046 83.8527108,59.0547062 C84.9811436,61.6782079 88.6486452,77.7888013 88.6486452,79.6778898 C88.6486452,81.5671685 82.2628452,80.100339 81.234819,77.0533423 C80.3811731,74.5231161 77.5018059,66.7503554 75.983442,61.8341423 L74.3928157,53.0168111 Z" id="Fill-43" fill="#2B478B" mask="url(#mask-4)"></path>
                <path d="M72.6624856,55.6185675 C70.8437577,55.97522 68.1719544,55.5949872 66.2159282,54.3056757 C67.0989544,52.1963774 67.4610266,50.5308266 67.5898626,49.4530725 C67.5973741,49.3958331 67.6029839,49.3403052 67.6086889,49.286679 C67.6669741,48.7280725 67.6585118,48.3490757 67.6312233,48.1750757 L72.3334069,48.1750757 C72.3334069,48.1750757 73.6189151,48.7627774 73.6189151,49.1691577 C73.6189151,49.3863249 73.6208167,49.5942692 73.6245249,49.7927052 C73.6340331,50.3333413 73.6556167,50.8054233 73.683761,51.2108528 C73.7732331,52.5302102 73.9245085,53.1518561 73.9245085,53.1518561 C73.9245085,53.1518561 74.4990889,55.258397 72.6624856,55.6185675" id="Fill-44" fill="#FFB27D" mask="url(#mask-4)"></path>
                <path d="M73.68378,51.2108148 C70.121439,51.8991131 68.0535013,49.9525 67.5898816,49.4531295 C67.5240849,49.381723 67.4901407,49.3393164 67.4901407,49.3393164 C67.5277931,49.3204902 67.5673472,49.3035656 67.6086128,49.2867361 C68.934721,48.7497131 71.9439702,49.1766311 73.6245439,49.7926672 C73.6340521,50.3333033 73.6556357,50.8053852 73.68378,51.2108148" id="Fill-45" fill="#E2915A" mask="url(#mask-4)"></path>
                <path d="M66.426259,47.40224 C67.0628328,50.8282334 71.4835738,50.7158466 73.3940557,50.5003908 C73.9317443,50.4405843 74.2699508,50.3719351 74.2699508,50.3719351 C74.8761934,50.2100105 75.2144,49.2551974 75.3714754,48.0044892 C75.6833443,45.5292203 75.2894197,41.895758 74.8713443,40.9664269 C74.2419967,39.5680564 73.0566098,38.0556826 68.604777,39.1469384 C64.1520885,40.2389548 65.6094098,43.0124957 66.426259,47.40224" id="Fill-46" fill="#FFB27D" mask="url(#mask-4)"></path>
                <path d="M75.0371197,39.0553649 C74.4286902,38.2129387 73.1384279,37.1835813 71.9667328,36.5496698 C69.4493426,35.1878108 66.2275852,36.5926469 66.2140836,36.5984469 C62.5777689,38.1972502 61.6282803,40.9792534 63.5560672,45.3129944 C65.5946246,49.8958502 67.535723,49.3801256 67.535723,49.3801256 C67.535723,49.3801256 67.1237328,49.1237846 67.1610049,47.6954633 C67.1630967,47.6142633 67.1664246,47.5464698 67.1701328,47.4880895 C67.1888639,47.1954272 67.0857,46.9019092 66.8668213,46.7067059 C66.415182,46.3034633 66.1950672,45.0843223 66.5732082,44.7448797 C67.0295066,44.3353616 67.6707393,44.8328305 67.8755459,45.2153452 C68.0544902,45.4854731 68.3751066,45.5801748 68.6735689,45.391437 C69.8053295,44.6759452 69.0701557,43.2449616 70.151618,42.3694469 C71.2330803,41.4939321 73.4275721,42.2291059 75.0499557,41.5312993 C77.1736115,40.7401223 75.4956049,39.6901321 75.0371197,39.0553649" id="Fill-47" fill="#233862" mask="url(#mask-4)"></path>
                <path d="M75.6211702,99.8159843 L57.7021177,99.8159843 C57.8301931,96.1002761 57.99478,91.6635613 58.1680193,87.1719843 C58.2121374,86.0076105 58.2585374,84.8379121 58.3036062,83.6779121 C58.3241439,83.1861482 58.3423046,82.697522 58.3617964,82.2089908 C58.7578128,72.2336564 59.1505013,63.225781 59.2334128,62.7403875 C59.4216751,61.6427613 59.5992882,60.7077252 59.7919243,59.8962957 C60.3546193,57.5332236 61.0541374,56.2376367 62.5800128,55.1228007 C62.7285308,55.0098433 63.9488128,54.3953285 65.0238095,53.8594466 C65.9018915,53.4236859 66.68318,53.0426925 66.7068554,53.0319482 L66.7068554,53.0308072 L66.7079013,53.0308072 C66.8854193,53.1169515 67.0813833,53.3644498 67.2879013,53.7313711 C67.4945144,54.0983875 67.7118718,54.5868236 67.9346489,55.1573154 C68.7534948,57.2610039 69.6380423,60.4806695 70.252557,62.8857679 C70.253603,62.8889056 70.2547439,62.8910925 70.2547439,62.8932793 C70.2557898,62.8953711 70.2557898,62.896417 70.2557898,62.897558 L70.2557898,62.8986039 C70.6517111,64.4514826 70.9359111,65.6598793 71.0165407,66.007499 C71.1543144,66.5928236 71.3350652,67.7259154 71.5492849,69.2605384 L71.5492849,69.264817 C71.8387144,71.3576662 72.1841472,74.1974793 72.5500226,77.4204728 L72.5500226,77.4215187 C72.5876751,77.7529744 72.6253275,78.087663 72.66298,78.4254892 C72.7060521,78.8118072 72.7501702,79.2024039 72.7942882,79.5972793 L72.7942882,79.5984203 C72.8082652,79.7253548 72.8222423,79.8523843 72.8351734,79.9793187 L72.8351734,79.9804597 C72.97618,81.2567449 73.1182325,82.5726793 73.2591439,83.9124793 C73.2591439,83.9135252 73.2591439,83.9157121 73.2601898,83.916758 C73.3807538,85.0209449 75.0551472,85.8203941 75.1714325,86.9449285 C75.1798948,87.026699 75.1885472,87.1923318 75.1992915,87.4226203 C75.2208751,87.8983154 75.2467374,88.6526957 75.2779243,89.5254531 C75.2907603,89.9137679 75.3048325,90.3259482 75.3198554,90.7466859 C75.385462,92.6169482 75.4661866,94.6658695 75.5576554,95.6514892 C75.5620292,95.6978892 75.5663079,95.7570302 75.5695407,95.8291023 C75.5802849,96.026017 75.5888423,96.3155416 75.5963538,96.6792302 C75.6114718,97.4518662 75.6190784,98.5570039 75.6211702,99.8159843" id="Fill-48" fill="#2B478B" mask="url(#mask-4)"></path>
                <path d="M63.3976607,66.7616321 C63.3923361,66.7843567 63.1123197,76.8485928 70.6827459,78.0710616 C78.2531721,79.2937207 73.2231459,79.6169043 73.2231459,79.6169043 C73.2231459,79.6169043 58.9793918,79.0115174 58.7442541,78.6353731 C58.5091164,78.2592289 63.3976607,66.7616321 63.3976607,66.7616321" id="Fill-49" fill="#233862" mask="url(#mask-4)"></path>
                <path d="M69.7939672,82.3914721 C69.7939672,82.3914721 69.6520098,82.4920689 69.3793148,82.6678754 C69.3745607,82.669777 69.3698066,82.6735803 69.3651475,82.6763377 C68.210282,83.4136984 64.782482,85.4233508 59.7916295,86.7710426 C59.267823,86.913 58.726141,87.0474459 58.1683902,87.1715279 C58.2126033,86.0073443 58.2588131,84.8383115 58.303882,83.6779311 C57.6446787,83.6262066 57.0136197,83.5424393 56.4277246,83.4183574 C56.4475016,83.2650852 56.4682295,83.1118131 56.4879115,82.958541 C57.1226787,82.6980164 57.7537377,82.4469049 58.3622623,82.2090098 C58.8577344,82.0152328 59.3373279,81.8308689 59.7916295,81.6598164 C61.8417869,80.8810951 63.361482,80.3534852 63.361482,80.3534852 L69.4299934,82.2757574 L69.7939672,82.3914721 Z" id="Fill-50" fill="#233862" mask="url(#mask-4)"></path>
                <path d="M71.4002344,82.2230439 C71.4002344,82.2230439 70.6205623,82.4177718 69.3792672,82.6679325 C69.3745131,82.6679325 69.3707098,82.6687882 69.3660508,82.6707849 C67.0770475,83.1306013 63.2288902,83.7757325 59.791582,83.7409325 C59.2847,83.7352275 58.7862803,83.7155456 58.3039295,83.6779882 C57.6446311,83.6262636 57.0135721,83.5424964 56.427677,83.4183193 C55.1712639,83.1531357 54.1189918,82.704539 53.4305984,82.0030243 C48.3174705,76.7950046 56.2207787,58.1031259 57.8825262,56.284303 C59.8226738,54.1608374 63.3634311,53.4160603 65.3185066,53.1602898 C65.400277,53.1499259 65.4783393,53.139562 65.5545951,53.1301489 C66.2419426,53.0483784 66.683123,53.0314538 66.707559,53.030503 L66.7084148,53.030503 C66.7084148,53.030503 66.5551426,53.5232177 66.2984213,54.3592734 C66.1986803,54.6828374 66.0830607,55.0580308 65.9561262,55.4764866 C64.7551459,59.409362 62.4379033,67.1386702 61.416723,71.4975128 C61.0423852,73.0926079 60.8420475,74.2360636 60.9333262,74.577503 C61.3320049,76.0661062 65.4633164,76.8316111 68.0805426,77.170198 C69.1722738,77.3112997 70.000818,77.3780472 70.1860377,77.3921193 C70.1992541,77.3921193 70.2115197,77.3930702 70.2247361,77.3949718 L70.3761066,78.0156669 L70.7381787,79.5042702 L71.0945459,80.9667259 L71.4002344,82.2230439 Z" id="Fill-51" fill="#2B478B" mask="url(#mask-4)"></path>
                <polygon id="Fill-52" fill="#EF8C20" mask="url(#mask-4)" points="85.6609511 91.1828459 68.1005479 90.4430131 71.6632692 68.5586623 89.2236725 69.2984951"></polygon>
                <path d="M70.224717,77.395219 C70.224717,77.395219 73.6431039,77.1567534 73.8145367,77.9535403 C74.2142613,79.8108715 70.8757433,81.3359862 69.794281,81.2317764 C68.7128187,81.1274715 69.4380089,77.271137 70.224717,77.395219" id="Fill-53" fill="#FFB27D" mask="url(#mask-4)"></path>
                <path d="M88.2635443,73.7424551 C88.2635443,73.7424551 84.9931049,72.7198485 84.6419672,73.4553075 C83.8235016,75.1699207 86.7186525,77.4258354 87.7948852,77.5746387 C88.8713082,77.7233469 89.0577639,73.803783 88.2635443,73.7424551" id="Fill-54" fill="#FFB27D" mask="url(#mask-4)"></path>
                <path d="M67.0630515,51.9315361 C67.0630515,51.9315361 65.6250318,52.616982 64.9040252,53.6514738 C64.9040252,53.6514738 70.2794843,62.9845295 70.2555236,62.8970541 C70.2314679,62.8095787 68.4384121,53.1270016 67.0630515,51.9315361" id="Fill-55" fill="#233862" mask="url(#mask-4)"></path>
                <path d="M73.7583433,52.0631105 C74.2317564,52.2418646 75.1397892,53.1719564 75.3445007,53.6862548 L75.9834515,61.8342089 C75.9834515,61.8342089 74.6191203,55.854599 73.9245466,53.151799 C73.7480744,52.4647367 73.7804974,52.2560318 73.7583433,52.0631105" id="Fill-56" fill="#233862" mask="url(#mask-4)"></path>
                <path d="M77.484463,68.8038502 C77.484463,68.8038502 77.6232826,68.1966567 78.4225416,68.2672075 C79.2218957,68.3377584 83.712522,68.5586338 83.712522,68.5586338 C83.712522,68.5586338 84.5785285,68.5443715 84.4981843,69.0993649 L77.484463,68.8038502 Z" id="Fill-57" fill="#C65447" mask="url(#mask-4)"></path>
                <path d="M72.3334164,48.1750567 C72.3334164,48.1750567 72.9162689,48.7064698 73.8567246,48.5417879 C74.4144754,48.4442338 74.7266295,47.7189485 74.7266295,47.7189485 C74.7266295,47.7189485 73.6547705,47.5262174 72.3334164,48.1750567" id="Fill-58" fill="#FFFFFF" mask="url(#mask-4)"></path>
                <polygon id="Fill-59" fill="#FFFFFF" mask="url(#mask-4)" points="155.54285 54.9853977 142.571578 55.033319 138.365342 38.9297616 151.336519 38.8818403"></polygon>
                <polygon id="Fill-60" fill="#ADCBF9" mask="url(#mask-4)" points="148.119402 40.997861 142.680523 41.0179233 142.618244 40.7796479 148.057218 40.7594905"></polygon>
                <polygon id="Fill-61" fill="#ADCBF9" mask="url(#mask-4)" points="148.987766 41.6598121 142.15936 41.6850089 142.096986 41.4467334 148.925583 41.4214416"></polygon>
                <polygon id="Fill-62" fill="#ADCBF9" mask="url(#mask-4)" points="150.865359 44.9370689 141.995828 44.9698721 141.93355 44.7315016 150.803176 44.6987934"></polygon>
                <polygon id="Fill-63" fill="#ADCBF9" mask="url(#mask-4)" points="151.07047 45.7222462 142.200939 45.7550495 142.13866 45.5167741 151.008191 45.4839708"></polygon>
                <polygon id="Fill-64" fill="#ADCBF9" mask="url(#mask-4)" points="151.275581 46.5074141 142.405955 46.5402174 142.343771 46.301942 151.213302 46.2691387"></polygon>
                <polygon id="Fill-65" fill="#ADCBF9" mask="url(#mask-4)" points="151.480606 47.292582 142.611075 47.3253852 142.548796 47.0871098 151.418423 47.0543066"></polygon>
                <polygon id="Fill-66" fill="#ADCBF9" mask="url(#mask-4)" points="151.685717 48.0777498 142.816186 48.1105531 142.753907 47.8722777 151.623533 47.8394744"></polygon>
                <polygon id="Fill-67" fill="#ADCBF9" mask="url(#mask-4)" points="152.184802 49.9884885 143.315271 50.0212918 143.252992 49.7830164 152.122619 49.7502131"></polygon>
                <polygon id="Fill-68" fill="#ADCBF9" mask="url(#mask-4)" points="152.389923 50.7736564 143.520391 50.8064597 143.458113 50.5681843 152.327739 50.535381"></polygon>
                <polygon id="Fill-69" fill="#ADCBF9" mask="url(#mask-4)" points="152.595033 51.5588243 143.725407 51.5916275 143.663224 51.3533521 152.532755 51.3205489"></polygon>
                <polygon id="Fill-70" fill="#ADCBF9" mask="url(#mask-4)" points="152.800144 52.3439921 143.930518 52.3767954 143.868334 52.13852 152.737866 52.1057167"></polygon>
                <polygon id="Fill-71" fill="#ADCBF9" mask="url(#mask-4)" points="153.00517 53.1292551 144.135638 53.1619633 144.07336 52.9236879 152.942986 52.8908846"></polygon>
                <polygon id="Fill-72" fill="#FFFFFF" mask="url(#mask-4)" points="160.769668 74.9958826 147.79849 75.0438039 143.592159 58.9402466 156.563336 58.8923252"></polygon>
                <polygon id="Fill-73" fill="#ADCBF9" mask="url(#mask-4)" points="153.346219 61.0082508 147.90734 61.0284082 147.845157 60.7900377 153.284035 60.7699754"></polygon>
                <polygon id="Fill-74" fill="#ADCBF9" mask="url(#mask-4)" points="154.214584 61.670297 147.386177 61.6954938 147.323803 61.4572184 154.1524 61.4319266"></polygon>
                <polygon id="Fill-75" fill="#ADCBF9" mask="url(#mask-4)" points="156.092177 64.9475538 147.222646 64.980357 147.160367 64.7419866 156.029993 64.7092784"></polygon>
                <polygon id="Fill-76" fill="#ADCBF9" mask="url(#mask-4)" points="156.297288 65.7327216 147.427756 65.7655249 147.365478 65.5271544 156.235104 65.4944462"></polygon>
                <polygon id="Fill-77" fill="#ADCBF9" mask="url(#mask-4)" points="156.502398 66.517899 147.632867 66.5507023 147.570589 66.3123318 156.44012 66.2796236"></polygon>
                <polygon id="Fill-78" fill="#ADCBF9" mask="url(#mask-4)" points="156.707424 67.3030669 147.837892 67.3358702 147.775614 67.0975948 156.64524 67.0647915"></polygon>
                <polygon id="Fill-79" fill="#ADCBF9" mask="url(#mask-4)" points="156.912534 68.0882348 148.043003 68.121038 147.980725 67.8827626 156.850351 67.8499593"></polygon>
                <polygon id="Fill-80" fill="#ADCBF9" mask="url(#mask-4)" points="157.41162 69.9989734 148.542089 70.0317767 148.47981 69.7934062 157.349436 69.760698"></polygon>
                <polygon id="Fill-81" fill="#ADCBF9" mask="url(#mask-4)" points="157.61673 70.7841413 148.747199 70.8169446 148.684921 70.5785741 157.554547 70.5458659"></polygon>
                <polygon id="Fill-82" fill="#ADCBF9" mask="url(#mask-4)" points="157.821851 71.5693092 148.95232 71.6021125 148.890041 71.363742 157.759572 71.3310338"></polygon>
                <polygon id="Fill-83" fill="#ADCBF9" mask="url(#mask-4)" points="158.026867 72.354477 149.157335 72.3872803 149.095057 72.1489098 157.964683 72.1162016"></polygon>
                <polygon id="Fill-84" fill="#ADCBF9" mask="url(#mask-4)" points="158.231977 73.1396449 149.362446 73.1724482 149.300168 72.9341728 158.169794 72.9013695"></polygon>
                <polygon id="Fill-85" fill="#FFFFFF" mask="url(#mask-4)" points="166.031675 95.1409085 153.060403 95.1888298 148.854071 79.0852725 161.825344 79.0373511"></polygon>
                <polygon id="Fill-86" fill="#ADCBF9" mask="url(#mask-4)" points="158.608226 81.1532767 153.169348 81.1734341 153.107069 80.9350636 158.546043 80.9150013"></polygon>
                <polygon id="Fill-87" fill="#ADCBF9" mask="url(#mask-4)" points="159.476591 81.8152279 152.648089 81.8405197 152.58581 81.6022443 159.414407 81.5769525"></polygon>
                <polygon id="Fill-88" fill="#ADCBF9" mask="url(#mask-4)" points="161.354184 85.0925797 152.484653 85.1252879 152.422374 84.8870125 161.291905 84.8543043"></polygon>
                <polygon id="Fill-89" fill="#ADCBF9" mask="url(#mask-4)" points="161.5592 85.877757 152.689669 85.9104652 152.62739 85.6721898 161.497016 85.6394816"></polygon>
                <polygon id="Fill-90" fill="#ADCBF9" mask="url(#mask-4)" points="161.764406 86.6629249 152.894779 86.6957282 152.832596 86.4573577 161.702127 86.4246495"></polygon>
                <polygon id="Fill-91" fill="#ADCBF9" mask="url(#mask-4)" points="161.969431 87.4480928 153.0999 87.4808961 153.037621 87.2425256 161.907247 87.2098174"></polygon>
                <polygon id="Fill-92" fill="#ADCBF9" mask="url(#mask-4)" points="162.174542 88.2332607 153.30501 88.2660639 153.242732 88.0276934 162.112263 87.9949852"></polygon>
                <polygon id="Fill-93" fill="#ADCBF9" mask="url(#mask-4)" points="162.673627 90.1439993 153.804096 90.1767075 153.741817 89.9384321 162.611443 89.9057239"></polygon>
                <polygon id="Fill-94" fill="#ADCBF9" mask="url(#mask-4)" points="162.878738 90.9291672 154.009207 90.9619705 153.946928 90.7236 162.816459 90.6908918"></polygon>
                <polygon id="Fill-95" fill="#ADCBF9" mask="url(#mask-4)" points="163.083763 91.7143351 154.214232 91.7471384 154.151953 91.5087679 163.021579 91.4760597"></polygon>
                <polygon id="Fill-96" fill="#ADCBF9" mask="url(#mask-4)" points="163.288874 92.499503 154.419343 92.5323062 154.357064 92.2939357 163.22669 92.2612275"></polygon>
                <polygon id="Fill-97" fill="#ADCBF9" mask="url(#mask-4)" points="163.493985 93.2846708 154.624453 93.3174741 154.562175 93.0791987 163.431801 93.0463954"></polygon>
                <polygon id="Fill-98" fill="#FFFFFF" mask="url(#mask-4)" points="148.976071 95.2765715 103.608566 95.4441059 90.5518154 45.4571387 96.4620154 39.0931125 134.264133 38.9536272"></polygon>
                <polygon id="Fill-99" fill="#ADCBF9" mask="url(#mask-4)" points="121.767396 47.4011275 105.778413 47.4601734 105.59538 46.7597046 121.584364 46.7006587"></polygon>
                <polygon id="Fill-100" fill="#ADCBF9" mask="url(#mask-4)" points="124.320129 49.3471511 104.246138 49.42122 104.063201 48.7207511 124.137096 48.6466823"></polygon>
                <polygon id="Fill-101" fill="#ADCBF9" mask="url(#mask-4)" points="129.839618 58.9815311 103.76548 59.0778492 103.582542 58.3772852 129.65668 58.2810623"></polygon>
                <polygon id="Fill-102" fill="#ADCBF9" mask="url(#mask-4)" points="130.442609 61.289779 104.368376 61.386002 104.185533 60.6855331 130.259576 60.5892151"></polygon>
                <polygon id="Fill-103" fill="#ADCBF9" mask="url(#mask-4)" points="131.045504 63.5979318 104.971271 63.6942498 104.788429 62.993781 130.862471 62.897463"></polygon>
                <polygon id="Fill-104" fill="#ADCBF9" mask="url(#mask-4)" points="131.6484 65.9061797 105.574167 66.0024977 105.391325 65.3019338 131.465367 65.2057108"></polygon>
                <polygon id="Fill-105" fill="#ADCBF9" mask="url(#mask-4)" points="132.251296 68.214323 106.177158 68.310641 105.99422 67.6101721 132.068358 67.5138541"></polygon>
                <polygon id="Fill-106" fill="#ADCBF9" mask="url(#mask-4)" points="133.718477 73.8313092 107.644339 73.9276272 107.461402 73.2271584 133.535539 73.1308403"></polygon>
                <polygon id="Fill-107" fill="#ADCBF9" mask="url(#mask-4)" points="134.321373 76.139557 108.247235 76.2358751 108.064297 75.5353111 134.138435 75.4390882"></polygon>
                <polygon id="Fill-108" fill="#ADCBF9" mask="url(#mask-4)" points="134.924364 78.4478049 108.850131 78.5440279 108.667288 77.843559 134.741331 77.747241"></polygon>
                <polygon id="Fill-109" fill="#ADCBF9" mask="url(#mask-4)" points="135.527259 80.7559577 109.453027 80.8522757 109.270184 80.1518069 135.344227 80.0554889"></polygon>
                <polygon id="Fill-110" fill="#ADCBF9" mask="url(#mask-4)" points="136.130155 83.0641961 110.056017 83.1605141 109.87308 82.4599502 135.947122 82.3637272"></polygon>
                <polygon id="Fill-111" fill="#ADCBF9" mask="url(#mask-4)" points="90.5518249 45.4571482 98.1170216 45.4291941 96.4620249 39.093122"></polygon>
                <path d="M199.823017,134.480141 L162.889758,134.480141 L162.889758,121.435846 L199.941299,121.435846 C202.821902,121.435846 205.157115,123.770964 205.157115,126.651567 L205.157115,129.146137 C205.157115,132.092062 202.768941,134.480141 199.823017,134.480141" id="Fill-112" fill="#FCECDB" mask="url(#mask-4)"></path>
                <path d="M236.681209,126.802738 L236.681209,128.765134 C236.681209,129.813793 236.39929,130.795705 235.9061,131.639652 C234.916012,133.338197 233.074179,134.479846 230.965736,134.479846 L161.757854,134.479846 C161.299845,134.479846 160.928835,134.108836 160.928835,133.651587 L160.928835,133.357689 C160.928835,132.900534 161.299845,132.52943 161.757854,132.52943 L203.946389,132.52943 C204.172018,132.254357 204.370645,131.956751 204.538464,131.639652 C204.933625,130.895351 205.156877,130.046839 205.156877,129.145938 L205.156877,126.651272 C205.156877,126.192502 205.097641,125.747233 204.986015,125.323738 C204.797182,124.605679 204.458976,123.948282 204.007812,123.386823 L161.757854,123.386823 C161.299845,123.386823 160.928835,123.015813 160.928835,122.557803 L160.928835,122.264666 C160.928835,121.806751 161.299845,121.435741 161.757854,121.435741 L231.314212,121.435741 C233.76533,121.435741 235.832602,123.078757 236.47431,125.323738 C236.609231,125.793823 236.681209,126.289961 236.681209,126.802738" id="Fill-113" fill="#3476D6" mask="url(#mask-4)"></path>
                <path d="M236.474329,125.323766 L204.986034,125.323766 C204.797201,124.605612 204.458995,123.94831 204.007831,123.386851 L161.757778,123.386851 C161.299864,123.386851 160.928854,123.015842 160.928854,122.557832 L160.928854,122.264694 C160.928854,121.806779 161.299864,121.435674 161.757778,121.435674 L231.314136,121.435674 C233.765349,121.435674 235.832621,123.078786 236.474329,125.323766" id="Fill-114" fill="#2264B2" mask="url(#mask-4)"></path>
                <polygon id="Fill-115" fill="#F4D2B8" mask="url(#mask-4)" points="162.889786 127.958022 168.014229 128.177281 162.889786 128.30935"></polygon>
                <polygon id="Fill-116" fill="#F4D2B8" mask="url(#mask-4)" points="162.889786 130.004699 175.081101 130.223958 162.889786 130.356027"></polygon>
                <path d="M171.69778,144.598944 L211.014554,144.598944 L211.014554,134.452748 L171.378875,134.452748 C168.665046,134.452748 166.46523,136.652659 166.46523,139.366298 L166.46523,139.366393 C166.46523,142.25622 168.807859,144.598944 171.69778,144.598944" id="Fill-117" fill="#2B478B" mask="url(#mask-4)"></path>
                <path d="M208.757565,144.598944 L253.503519,144.598944 L253.503519,134.452748 L208.644322,134.452748 C205.885139,134.452748 203.64843,136.689361 203.64843,139.448639 L203.64843,139.48981 C203.64843,142.311462 205.935817,144.598944 208.757565,144.598944" id="Fill-118" fill="#FCECDB" mask="url(#mask-4)"></path>
                <path d="M200.660651,144.598944 L255.057425,144.598944 C255.476546,144.598944 255.816179,144.259216 255.816179,143.84019 C255.816179,143.421069 255.476546,143.081436 255.057425,143.081436 L200.660651,143.081436 C200.241625,143.081436 199.901992,143.421069 199.901992,143.84019 C199.901992,144.259216 200.241625,144.598944 200.660651,144.598944" id="Fill-119" fill="#2B478B" mask="url(#mask-4)"></path>
                <path d="M200.660651,135.970161 L255.057425,135.970161 C255.476546,135.970161 255.816179,135.630528 255.816179,135.211502 C255.816179,134.79238 255.476546,134.452748 255.057425,134.452748 L200.660651,134.452748 C200.241625,134.452748 199.901992,134.79238 199.901992,135.211502 C199.901992,135.630528 200.241625,135.970161 200.660651,135.970161" id="Fill-120" fill="#2B478B" mask="url(#mask-4)"></path>
                <polygon id="Fill-121" fill="#F4D2B8" mask="url(#mask-4)" points="253.503567 139.525798 247.459301 139.696375 253.503567 139.799159"></polygon>
                <polygon id="Fill-122" fill="#F4D2B8" mask="url(#mask-4)" points="253.503567 137.190813 239.12375 137.36139 253.503567 137.464079"></polygon>
                <path d="M239.271631,137.327399 C239.271631,137.327399 239.887857,137.76335 240.091903,138.479982 C240.128034,138.605205 240.151139,138.739556 240.155893,138.880848 C240.189838,139.832904 240.155893,141.987651 240.155893,141.987651 L241.975287,140.910277 L243.789926,141.987651 L243.789926,139.067209 C243.789926,138.514972 243.634182,137.977854 243.345133,137.626146 C243.204887,137.455759 243.034975,137.327399 242.842434,137.327399 L239.271631,137.327399 Z" id="Fill-123" fill="#3476D6" mask="url(#mask-4)"></path>
                <path d="M239.271631,137.327399 C239.271631,137.327399 239.887857,137.76335 240.091903,138.479982 L243.738011,138.522579 C243.738011,138.522579 243.594913,137.49655 242.842434,137.327399 L239.271631,137.327399 Z" id="Fill-124" fill="#2264B2" mask="url(#mask-4)"></path>
                <path d="M204.18184,121.463296 L244.351975,121.463296 L244.351975,106.55625 L204.049771,106.55625 C200.832863,106.55625 198.22505,109.164063 198.22505,112.380971 L198.22505,115.506506 C198.22505,118.796342 200.891909,121.463296 204.18184,121.463296" id="Fill-125" fill="#FCECDB" mask="url(#mask-4)"></path>
                <path d="M199.169889,112.340067 L199.169889,115.548228 C199.179778,116.918454 199.938247,118.107264 201.052892,118.742982 C201.601515,119.054755 202.235712,119.233129 202.909558,119.233129 L246.533545,119.233129 C247.044706,119.233129 247.459263,119.647687 247.459263,120.158847 L247.459263,120.537464 C247.459263,121.048719 247.044706,121.463182 246.533545,121.463182 L171.172433,121.463182 C169.009984,121.463182 167.099217,120.388375 165.944827,118.742982 C165.21707,117.706303 164.789771,116.443995 164.789771,115.080519 L164.789771,112.549152 C164.789771,111.615257 165.00342,110.73071 165.384984,109.942955 C166.354155,107.938532 168.406499,106.556326 170.782597,106.556326 L246.533545,106.556326 C247.044706,106.556326 247.459263,106.970028 247.459263,107.481283 L247.459263,107.8599 C247.459263,108.37106 247.044706,108.785523 246.533545,108.785523 L202.776158,108.785523 C201.730542,108.785523 200.78381,109.230791 200.122706,109.942955 C199.537191,110.57411 199.175879,111.414349 199.169889,112.340067" id="Fill-126" fill="#B5453C" mask="url(#mask-4)"></path>
                <polygon id="Fill-127" fill="#F4D2B8" mask="url(#mask-4)" points="244.351927 114.009754 238.759681 114.26039 244.351927 114.411285"></polygon>
                <polygon id="Fill-128" fill="#F4D2B8" mask="url(#mask-4)" points="244.351927 110.579101 231.047393 110.829737 244.351927 110.980728"></polygon>
                <path d="M231.184377,110.779943 C231.184377,110.779943 232.062364,111.252595 232.353125,112.029605 C232.404564,112.165382 232.437463,112.311048 232.444213,112.464225 C232.492705,113.49653 232.444213,115.832979 232.444213,115.832979 L235.036623,114.664707 L237.622187,115.832979 L237.622187,112.666369 C237.622187,112.067638 237.400266,111.485166 236.988371,111.103697 C236.788699,110.919048 236.546525,110.779943 236.272309,110.779943 L231.184377,110.779943 Z" id="Fill-129" fill="#EF8C20" mask="url(#mask-4)"></path>
                <path d="M231.184377,110.779943 C231.184377,110.779943 232.062364,111.252595 232.353125,112.029605 L237.548213,112.075815 C237.548213,112.075815 237.344358,110.963261 236.272309,110.779943 L231.184377,110.779943 Z" id="Fill-130" fill="#C66320" mask="url(#mask-4)"></path>
                <path d="M204.880284,101.029021 C207.179651,105.030831 210.071569,106.575532 210.071569,106.575532 L222.102766,106.575532 C222.102766,106.575532 203.126212,97.9761292 204.880284,101.029021" id="Fill-131" fill="#233862" mask="url(#mask-4)"></path>
                <path d="M214.120692,131.99176 C214.434272,132.351075 214.474207,132.752606 214.319033,133.181426 C214.318843,133.183042 214.317797,133.185704 214.31599,133.187226 C214.028938,133.980209 213.08097,134.865803 211.979731,135.750065 C211.839105,135.863688 211.713882,135.967042 211.604823,136.062599 C211.576203,136.087701 211.547584,136.112898 211.520675,136.138094 C211.498521,136.157586 211.477128,136.177934 211.455925,136.19657 C210.428944,137.143206 210.815357,137.360088 208.970577,139.280934 C206.866984,141.469626 205.418695,141.509085 205.006705,141.309603 C204.658039,141.139691 205.366305,139.978835 206.151016,138.674121 C206.189049,138.611271 206.226321,138.547567 206.265305,138.483862 C206.3698,138.310432 206.473725,138.134435 206.577459,137.960055 C207.496997,136.389681 207.260908,135.652891 207.042885,133.316062 C206.865652,131.41699 204.088498,122.706911 204.088498,122.706911 L208.119784,122.012432 C208.119784,122.012432 209.33379,128.948281 210.671403,130.016432 C211.38661,130.585783 212.1872,130.592914 212.874738,131.014983 C212.923325,131.044268 212.970961,131.074409 213.017646,131.105406 C213.408433,131.364219 213.806256,131.63159 214.120692,131.99176" id="Fill-132" fill="#FFB27D" mask="url(#mask-4)"></path>
                <path d="M214.120692,131.99176 C214.434272,132.351075 214.474207,132.752606 214.319033,133.181426 C214.318843,133.183042 214.317797,133.185704 214.31599,133.187226 C213.964567,133.979449 213.04037,134.860573 211.975928,135.741983 C211.836823,135.857412 211.714072,135.963429 211.604823,136.062599 C211.576203,136.087701 211.547584,136.112898 211.520675,136.138094 C211.498521,136.157586 211.477128,136.177934 211.455925,136.19657 C210.428944,137.143206 210.815357,137.360088 208.970577,139.280934 C206.866984,141.469626 205.418695,141.509085 205.006705,141.309603 C204.658039,141.139691 205.366305,139.978835 206.151016,138.674121 C206.560534,138.524081 208.462649,137.751445 209.900764,135.911134 C211.167351,134.29474 212.012154,132.21796 212.874738,131.014983 C212.923325,131.044268 212.970961,131.074409 213.017646,131.105406 C213.408433,131.364219 213.806256,131.63159 214.120692,131.99176" id="Fill-133" fill="#233862" mask="url(#mask-4)"></path>
                <path d="M181.615086,129.474037 C181.366162,130.718375 179.592503,130.510716 177.610804,130.026558 C175.629106,129.542306 176.100047,130.117932 173.279726,129.805683 C170.459404,129.493529 169.604998,128.441922 169.518949,128.022516 C169.442027,127.65046 170.835549,127.519152 172.330332,127.347053 C172.518309,127.325945 172.707047,127.30265 172.895975,127.27945 C174.583585,127.067608 175.81946,125.978634 177.352467,125.084293 C178.804368,124.237112 180.971286,120.785637 180.971286,120.785637 L184.839221,121.091991 C184.839221,121.091991 182.809601,124.174834 182.024509,125.515109 C181.562696,126.303434 181.587227,127.345912 181.644752,128.150971 C181.674798,128.588539 181.703322,129.035804 181.615086,129.474037" id="Fill-134" fill="#FFB27D" mask="url(#mask-4)"></path>
                <path d="M177.610785,130.02652 C175.629087,129.542268 176.100028,130.117989 173.279707,129.80574 C170.459385,129.493586 169.604979,128.441884 169.51893,128.022573 C169.442008,127.650517 170.83553,127.519209 172.330313,127.347015 L172.34429,127.37573 C172.34429,127.37573 174.035608,128.574999 176.383372,128.631192 C178.296802,128.677688 180.323474,128.12954 181.644828,128.150933 C181.674779,128.588501 181.703303,129.035766 181.615067,129.473999 C181.366143,130.718337 179.592484,130.510773 177.610785,130.02652" id="Fill-135" fill="#233862" mask="url(#mask-4)"></path>
                <path d="M196.437671,104.742048 L200.053448,114.471595 L204.773982,127.175497 C204.773982,127.175497 206.054927,127.299104 207.281769,126.946254 C208.411153,126.619838 209.70712,125.765717 209.70712,125.765717 C209.70712,125.765717 208.39632,112.125353 205.951192,104.295258 C205.324697,102.28532 204.622231,100.659609 203.847313,99.7445397 C200.056776,95.2647528 196.437671,104.742048 196.437671,104.742048" id="Fill-136" fill="#233862" mask="url(#mask-4)"></path>
                <path d="M200.113834,89.2903059 C202.482707,88.5262272 209.238851,89.507283 216.025611,90.8357682 L217.446611,88.4919977 L232.105779,87.3472108 C232.105779,87.3472108 236.943074,98.0744534 234.294851,104.909611 C233.905585,105.914247 233.132189,106.558617 231.813782,106.579821 C231.813307,106.580391 231.600228,106.579155 231.599752,106.579821 C231.599752,106.579821 222.874841,106.574686 220.041779,106.574686 C212.751559,106.574686 204.613113,101.563391 203.560366,101.35288 C201.8371,101.008208 201.147851,104.454644 199.424585,108.073463 C197.701415,111.692093 183.226421,124.099623 183.226421,124.099623 C183.226421,124.099623 181.001598,124.121398 180.082536,123.776821 C179.094254,123.406191 178.732657,122.924696 178.732657,122.924696 C178.732657,122.924696 194.771939,91.0135715 200.113834,89.2903059" id="Fill-137" fill="#2B478B" mask="url(#mask-4)"></path>
                <path d="M217.532775,68.3042134 C222.752775,71.1784462 233.342624,77.1369479 233.397676,77.0983446 C233.397676,77.0983446 237.289952,78.565079 239.49823,77.0985348 C243.178663,74.6543577 245.152375,68.0762069 238.421617,62.4150266 C235.064844,59.5917577 232.679998,58.9045052 232.317545,54.3963839 C232.121011,51.9505905 228.777644,43.878702 223.222765,44.6252856 C222.75848,44.6876593 219.901171,44.8209643 218.023303,45.8071544 C213.238017,48.3199807 209.707053,67.1917544 217.532775,68.3042134" id="Fill-138" fill="#233862" mask="url(#mask-4)"></path>
                <path d="M221.908038,65.8577069 C221.885123,65.8725397 224.476487,66.7572774 226.209166,65.9898708 C227.839346,65.2694348 229.074081,62.5875528 229.04993,62.5862216 C228.308386,62.551897 227.494294,61.9036282 226.867323,57.6497561 L226.551651,57.7629987 L221.242559,59.6733856 C221.242559,59.6733856 221.627261,61.3768741 221.875995,62.9988774 C222.085461,64.3605462 222.198038,65.6651659 221.908038,65.8577069" id="Fill-139" fill="#FFB27D" mask="url(#mask-4)"></path>
                <path d="M221.24255,59.6733856 C221.24255,59.6733856 221.627251,61.3768741 221.875986,62.9988774 C224.92536,62.4498741 226.122156,59.41172 226.551642,57.7629987 L221.24255,59.6733856 Z" id="Fill-140" fill="#ED975D" mask="url(#mask-4)"></path>
                <path d="M220.451905,61.3642472 C220.451905,61.3642472 227.715692,60.3892767 227.038899,55.8750702 C226.362105,51.3608636 226.843886,48.1948243 222.177453,48.6264013 C217.511115,49.0579784 216.870358,50.9153095 216.729827,52.4770308 C216.5892,54.0387521 218.544846,61.5014505 220.451905,61.3642472" id="Fill-141" fill="#FFB27D" mask="url(#mask-4)"></path>
                <path d="M216.994506,50.0025987 C216.994506,50.0025987 221.644395,54.0098282 224.807296,54.3328216 C227.970198,54.6558151 229.167565,53.6406249 229.167565,53.6406249 C229.167565,53.6406249 227.303293,52.0926905 226.181326,49.594697 C225.850726,48.8583823 225.152159,48.3531167 224.34805,48.2837069 C222.089473,48.0887889 217.808218,47.9998872 216.994506,50.0025987" id="Fill-142" fill="#233862" mask="url(#mask-4)"></path>
                <path d="M219.90119,49.6437213 C219.90119,49.6437213 218.34565,51.1477279 217.855692,52.2634197 C217.382945,53.3399377 217.241177,55.9147574 217.617607,56.9373639 C217.617607,56.9373639 215.193968,52.2247213 216.56619,49.9349574 C218.02123,47.5069443 219.90119,49.6437213 219.90119,49.6437213" id="Fill-143" fill="#233862" mask="url(#mask-4)"></path>
                <path d="M215.791586,76.5579557 C216.011226,91.2617164 215.851868,88.1891426 217.46018,89.5843754 C217.847734,89.9203 218.937278,90.1205426 220.371304,90.2152443 C224.879901,90.5145623 232.805553,89.771782 233.106963,88.9384836 C234.14697,86.0554082 233.412747,85.1597361 234.280465,80.745841 C234.370888,80.2764213 234.482799,79.7683033 234.614203,79.2149262 C235.337586,76.1833328 236.041763,75.1519787 233.475121,70.2815951 C231.147704,65.8698869 228.729675,62.2891951 228.512222,62.4184115 C222.371544,66.0636639 221.876262,62.9996475 221.876262,62.9996475 C221.876262,62.9996475 215.683858,69.3858279 215.791586,76.5579557" id="Fill-144" fill="#FFFFFF" mask="url(#mask-4)"></path>
                <path d="M200.053476,114.471605 L204.773916,127.175411 C204.773916,127.175411 206.054955,127.299113 207.281703,126.946264 C208.411086,126.619848 209.707053,125.765726 209.707053,125.765726 C209.707053,125.765726 208.396349,112.125362 205.951126,104.295267 L200.053476,114.471605 Z" id="Fill-145" fill="#2B478B" mask="url(#mask-4)"></path>
                <path d="M221.875995,62.9988393 C221.875995,62.9988393 215.557418,64.0701279 214.815399,66.7906131 C214.073379,69.5110984 209.70712,85.5042656 209.70712,85.5042656 C209.70712,85.5042656 212.919274,86.0815082 214.403218,84.5974689 C215.887163,83.1136197 219.566645,70.8300754 219.566645,70.8300754 L221.875995,62.9988393 Z" id="Fill-146" fill="#FFFFFF" mask="url(#mask-4)"></path>
                <path d="M220.371304,90.2152157 C224.879901,90.5145338 232.805553,89.7717534 233.106963,88.9384551 C234.14697,86.0553797 233.412747,85.1597075 234.280465,80.7458125 L232.10575,74.6223436 C232.10575,74.6223436 232.46535,81.441242 230.454367,83.2347731 C228.445475,85.0283043 222.220744,86.6970879 221.243301,88.1956748 C220.771694,88.9147797 220.461632,89.6360715 220.371304,90.2152157" id="Fill-147" fill="#EBF3FF" mask="url(#mask-4)"></path>
                <path d="M225.537022,87.3472489 C225.537022,87.3472489 221.088992,86.3568751 220.371314,86.7515603 C219.65354,87.1463407 217.899468,88.5838849 217.679829,89.0842062 C217.460189,89.5843374 219.277681,88.7043538 219.868806,88.5458521 C220.251701,88.4431636 221.259474,88.7933505 221.75837,88.9596489 C223.857589,89.659357 225.143953,89.2994718 225.143953,89.2994718 L225.537022,87.3472489 Z" id="Fill-148" fill="#FFB27D" mask="url(#mask-4)"></path>
                <path d="M228.51595,62.4150741 C228.51595,62.4150741 234.488523,62.7830413 236.556176,65.6667823 C239.466635,69.7261167 245.240297,87.0261856 241.93135,89.3334446 C238.204897,91.9318446 224.971674,90.0132807 224.971674,90.0132807 C224.971674,90.0132807 224.53135,87.9547561 225.143963,86.9591528 C225.756671,85.9634544 235.713559,84.3550479 236.17309,83.8955167 C236.632717,83.4358905 230.428809,74.9343266 230.428809,73.555638 C230.428809,72.1770446 228.51595,62.4150741 228.51595,62.4150741" id="Fill-149" fill="#FFFFFF" mask="url(#mask-4)"></path>
                <path d="M220.155887,87.9896131 C220.155887,87.9896131 219.223893,89.1918295 218.918395,89.3353082 C218.612801,89.478882 218.415411,89.4430361 218.415411,89.4430361 L219.043523,88.3126066 L220.155887,87.9896131 Z" id="Fill-150" fill="#FFB27D" mask="url(#mask-4)"></path>
                <path d="M220.371304,86.7515984 L217.661563,88.0674377 C217.661563,88.0674377 217.776803,88.2560803 218.11054,88.2408672 C218.444088,88.2256541 219.285658,87.9178738 219.285658,87.9178738 L220.371304,86.7515984 Z" id="Fill-151" fill="#FFB27D" mask="url(#mask-4)"></path>
                <polygon id="Fill-152" fill="#EF8C20" mask="url(#mask-4)" points="218.918433 91.1769984 197.483725 91.1769984 191.035836 75.1427557 212.437456 75.1427557"></polygon>
                <polygon id="Fill-153" fill="#C66320" mask="url(#mask-4)" points="197.232499 90.5522718 225.53707 90.5522718 225.53707 91.1769603 197.483801 91.1769603"></polygon>
                <path d="M202.894611,83.159839 C202.732972,82.5961931 203.058913,82.1393243 203.622464,82.1393243 C204.18611,82.1393243 204.774096,82.5961931 204.935736,83.159839 C205.09728,83.72358 204.771434,84.1803538 204.207788,84.1803538 C203.644142,84.1803538 203.056155,83.72358 202.894611,83.159839" id="Fill-154" fill="#FFFFFF" mask="url(#mask-4)"></path>
                <path d="M24.1348459,97.4739443 L23.6782623,97.790282 C23.1909672,98.1281082 22.5197836,98.0064033 22.1819574,97.5191082 L19.5271738,93.6887311 C19.1893475,93.2014361 19.3110525,92.5301574 19.7984426,92.1924262 L20.4522262,91.7392656 C20.5476885,91.6729934 20.6788066,91.6967639 20.7449836,91.7923213 C20.8111607,91.8877836 20.7873902,92.0189016 20.6919279,92.0850787 L20.0381443,92.5383344 C19.7414885,92.7439016 19.6675148,93.1524689 19.873082,93.4490295 L22.5278656,97.2793115 C22.7334328,97.5759672 23.142,97.6500361 23.4385607,97.4443738 L23.8951443,97.127941 C24.1917049,96.9223738 24.2657738,96.5139016 24.0602066,96.2172459 L22.2978623,93.6745639 C22.2315902,93.5791016 22.2553607,93.4479836 22.350823,93.3818066 C22.4463803,93.3156295 22.5774984,93.3394 22.6436754,93.4348623 L24.4061148,95.9775443 C24.7438459,96.4649344 24.622141,97.136118 24.1348459,97.4739443" id="Fill-155" fill="#AFCDFB" mask="url(#mask-4)"></path>
                <path d="M27.0450577,101.251313 L26.2267823,101.818572 C25.4668872,102.345136 24.3897036,102.11133 23.8254872,101.297143 L19.8341364,95.5385984 C19.7679593,95.4431361 19.7917298,95.312018 19.8872872,95.245841 C19.9828446,95.1796639 20.1139626,95.2034344 20.1801397,95.2988967 L24.1713954,101.057441 C24.6034479,101.680893 25.41792,101.867159 25.9869856,101.472664 L26.8053561,100.905405 C27.3744216,100.511005 27.4858577,99.6830311 27.0539003,99.0595787 L22.507461,92.5002541 C22.0754085,91.8768967 21.2610315,91.6906311 20.6919659,92.0851262 C20.5964085,92.1513033 20.4652905,92.1275328 20.3991134,92.0320705 C20.3328413,91.9365131 20.3566118,91.8053951 20.4521692,91.739218 C21.2119692,91.2126541 22.2891528,91.4464607 22.8533692,92.2604574 L27.3997134,98.819877 C27.9639298,99.6339689 27.8048577,100.724749 27.0450577,101.251313" id="Fill-156" fill="#AFCDFB" mask="url(#mask-4)"></path>
                <path d="M32.5357656,131.328135 L32.6342705,132.13928 C32.7393361,133.005286 32.1203525,133.795322 31.2543459,133.900388 L24.4479033,134.726365 C23.5819918,134.831526 22.7919557,134.212447 22.6868902,133.346535 L22.5459787,132.184729 C22.5253459,132.015008 22.6461951,131.860785 22.8159164,131.840152 C22.9856377,131.819519 23.1399557,131.940368 23.1604934,132.110185 L23.3015951,133.271896 C23.3654902,133.79903 23.8463197,134.175745 24.373359,134.111755 L31.1797066,133.285778 C31.706841,133.221788 32.0835557,132.740958 32.0195656,132.213919 L31.9211557,131.40268 C31.8571656,130.87564 31.3764311,130.49883 30.8493918,130.562821 L26.3310016,131.111253 C26.1612803,131.131886 26.0069623,131.010847 25.9864246,130.841221 C25.9657918,130.671499 26.0867361,130.517181 26.2564574,130.496549 L30.7747525,129.948211 C31.6406639,129.843145 32.4307951,130.462224 32.5357656,131.328135" id="Fill-157" fill="#AFCDFB" mask="url(#mask-4)"></path>
                <path d="M39.4486144,130.133392 L39.6250866,131.587576 C39.7889128,132.93774 38.7453882,134.179035 37.2988111,134.354556 L27.0659948,135.596422 C26.8961784,135.61696 26.7418603,135.496015 26.7213226,135.326389 C26.7007849,135.156668 26.8216341,135.00235 26.9913554,134.981717 L37.2241718,133.739947 C38.3318767,133.605501 39.1332275,132.673412 39.0104767,131.66212 L38.8339095,130.208032 C38.7112538,129.19674 37.7102308,128.48334 36.6025259,128.617881 L24.9467128,130.032415 C23.839103,130.166861 23.0377521,131.098855 23.160503,132.110147 C23.1811357,132.279868 23.0602866,132.434091 22.8904702,132.454724 C22.7207489,132.475356 22.5664308,132.354412 22.5458931,132.184691 C22.3820669,130.834622 23.4255915,129.593327 24.8721685,129.417806 L36.5279816,128.003271 C37.9745587,127.827655 39.2846931,128.783324 39.4486144,130.133392" id="Fill-158" fill="#AFCDFB" mask="url(#mask-4)"></path>
            </g>
        </g>
    </g>
</svg>