<?xml version="1.0" encoding="utf-8"?>
<!-- Generator: Adobe Illustrator 25.3.1, SVG Export Plug-In . SVG Version: 6.00 Build 0)  -->
<svg version="1.1" id="Layer_1" xmlns="http://www.w3.org/2000/svg" xmlns:xlink="http://www.w3.org/1999/xlink" x="0px" y="0px"
	 viewBox="0 0 964.6 341.5" style="enable-background:new 0 0 964.6 341.5;" xml:space="preserve">
<style type="text/css">
	.st0{fill:#FFFFFF;}
	.st1{opacity:0.75;}
	.st2{fill:#3476D6;}
	.st3{fill:#EF8C20;}
	.st4{fill:#F2BA1D;}
</style>
<g>
	<g>
		<g>
			<g>
				<path class="st0" d="M9.1,227.7V106.9h27.5v15.4c6.9-12.4,22.1-18.9,35.7-18.9c15.9,0,29.8,7.2,36.2,21.3
					c9.4-15.9,23.6-21.3,39.2-21.3c21.8,0,42.7,13.9,42.7,45.9v78.4h-27.8v-73.7c0-14.1-7.2-24.8-23.3-24.8
					c-15.1,0-25.1,11.9-25.1,26.8v71.7H86v-73.7c0-13.9-6.9-24.8-23.3-24.8c-15.4,0-25.1,11.4-25.1,26.8v71.7
					C37.6,227.7,9.1,227.7,9.1,227.7z"/>
				<path class="st0" d="M239.9,45.6c10.4,0,18.9,8.4,18.9,18.9c0,10.4-8.4,18.6-18.9,18.6c-10.2,0-18.6-8.2-18.6-18.6
					C221.3,54.1,229.7,45.6,239.9,45.6z M225.7,227.7V106.9h28.5v120.8H225.7z"/>
				<path class="st0" d="M291.5,227.7V106.9H319v15.4c6.9-12.4,22.1-18.9,35.7-18.9c15.9,0,29.8,7.2,36.2,21.3
					c9.4-15.9,23.6-21.3,39.2-21.3c21.8,0,42.7,13.9,42.7,45.9v78.4h-27.8v-73.7c0-14.1-7.2-24.8-23.3-24.8
					c-15.1,0-25.1,11.9-25.1,26.8v71.7h-28.3v-73.7c0-13.9-6.9-24.8-23.3-24.8c-15.4,0-25.1,11.4-25.1,26.8v71.7
					C320,227.7,291.5,227.7,291.5,227.7z"/>
				<path class="st0" d="M624,167.2c0,37.2-26.5,64.3-62.8,64.3c-36,0-62.5-27-62.5-64.3c0-37,26.5-64,62.5-64
					C597.4,103.2,624,130.2,624,167.2z M595,167.2c0-25.1-15.9-38-33.7-38c-17.6,0-33.7,12.9-33.7,38s16.1,38.5,33.7,38.5
					C579.1,205.7,595,192.5,595,167.2z"/>
				<path class="st0" d="M666.2,188c1,10.9,9.2,20.6,24.6,20.6c11.9,0,18.1-6.5,18.1-13.9c0-6.5-4.5-11.4-14.1-13.4l-17.9-4
					c-21.3-4.7-32.5-18.6-32.5-35.2c0-21.1,19.4-39,44.4-39c33.7,0,44.7,21.8,46.7,33.7l-24.3,6.9c-1-6.9-6.2-18.1-22.3-18.1
					c-10.2,0-17.4,6.5-17.4,13.9c0,6.5,4.7,11.2,12.2,12.7l18.4,3.7c22.8,5,34.7,18.9,34.7,36.7c0,18.4-14.9,38.7-45.7,38.7
					c-35,0-48.4-22.8-49.9-36.5L666.2,188z"/>
				<path class="st0" d="M792.5,158.5l31-4.7c6.9-1,8.9-4.5,8.9-8.7c0-10.2-6.9-18.4-22.8-18.4c-15.1,0-23.6,9.7-24.8,21.8l-26.3-6
					c2.2-20.8,21.1-39.5,50.9-39.5c37.2,0,51.4,21.1,51.4,45.2v60c0,10.9,1.2,18.1,1.5,19.4h-26.8c-0.2-0.7-1.2-5.7-1.2-15.4
					c-5.7,9.2-17.6,19.1-37.2,19.1c-25.3,0-40.9-17.4-40.9-36.5C756,173.4,771.9,161.5,792.5,158.5z M832.5,177.6v-5.5l-31.5,4.7
					c-8.9,1.5-16.1,6.4-16.1,16.4c0,8.2,6.2,15.6,17.6,15.6C818.6,208.9,832.5,201.2,832.5,177.6z"/>
			</g>
		</g>
		<g class="st1">
			<path class="st0" d="M29,336.7c-5.5,0-10.2-1.9-14.1-5.7c-3.9-3.8-5.9-8.9-5.9-15.3c0-4.3,1-8.1,2.9-11.3c2-3.3,4.4-5.7,7.4-7.2
				c3-1.6,6.2-2.4,9.6-2.4c4.5,0,8.4,1.1,11.5,3.4c3.1,2.3,5.2,5.4,6.2,9.3l-5.2,1.8c-0.8-3-2.2-5.4-4.4-7c-2.2-1.6-4.9-2.5-8.2-2.5
				c-3.9,0-7.3,1.4-10.1,4.2c-2.8,2.8-4.2,6.7-4.2,11.7c0,5,1.4,8.9,4.2,11.7c2.8,2.8,6.2,4.2,10.1,4.2c3.3,0,6-0.9,8.2-2.6
				c2.2-1.8,3.7-4.1,4.6-7l4.9,1.8c-1.1,3.9-3.2,7-6.3,9.4C37.3,335.6,33.5,336.7,29,336.7z"/>
			<path class="st0" d="M54.1,311.9c2.6-2.7,6-4.1,10-4.1c4,0,7.4,1.4,10,4.1c2.6,2.7,3.9,6.2,3.9,10.3c0,4.2-1.3,7.7-3.9,10.4
				c-2.6,2.7-6,4.1-10,4.1c-4.1,0-7.4-1.4-10-4.1c-2.6-2.7-3.9-6.2-3.9-10.4C50.2,318.1,51.5,314.6,54.1,311.9z M58.1,329.4
				c1.6,1.7,3.7,2.6,6,2.6c2.4,0,4.4-0.9,6-2.6c1.6-1.7,2.5-4.1,2.5-7.2c0-3-0.8-5.4-2.5-7.1c-1.6-1.7-3.7-2.6-6-2.6
				c-2.4,0-4.4,0.9-6,2.6c-1.6,1.7-2.5,4.1-2.5,7.1C55.6,325.3,56.5,327.7,58.1,329.4z"/>
			<path class="st0" d="M90.2,335.9h-5.3v-41h5.3V335.9z"/>
			<path class="st0" d="M104.6,335.9h-5.3v-41h5.3V335.9z"/>
			<path class="st0" d="M112,328.6c0-2.3,0.8-4.2,2.3-5.6c1.5-1.4,3.5-2.3,6-2.6l7.4-1.1c1.4-0.2,2.1-0.9,2.1-2
				c0-1.4-0.5-2.6-1.5-3.5c-1-0.9-2.5-1.4-4.4-1.4c-1.8,0-3.2,0.5-4.3,1.5c-1.1,1-1.7,2.3-1.9,4l-5.1-1.2c0.3-2.6,1.5-4.7,3.6-6.4
				c2.1-1.6,4.6-2.5,7.6-2.5c3.9,0,6.7,0.9,8.6,2.8c1.8,1.9,2.8,4.3,2.8,7.2v13.7c0,1.6,0.1,3.1,0.3,4.5h-5.2
				c-0.2-1.1-0.3-2.4-0.3-3.7c-0.8,1.2-1.9,2.3-3.3,3.2c-1.5,0.9-3.3,1.4-5.5,1.4c-2.7,0-4.9-0.8-6.6-2.4
				C112.8,332.7,112,330.8,112,328.6z M121.8,332.3c2.4,0,4.3-0.6,5.7-1.9c1.4-1.3,2.2-3.3,2.2-6.1V323l-8.3,1.2
				c-1.2,0.2-2.2,0.6-2.9,1.3c-0.7,0.7-1.1,1.6-1.1,2.8c0,1.1,0.4,2,1.2,2.8C119.5,331.9,120.5,332.3,121.8,332.3z"/>
			<path class="st0" d="M148.6,335.9h-5.3v-41h5.3v17.6c0.7-1.3,1.9-2.4,3.4-3.3c1.6-0.9,3.4-1.3,5.6-1.3c4,0,7,1.3,9.2,4
				c2.2,2.7,3.3,6.1,3.3,10.3c0,4.2-1.1,7.7-3.4,10.4c-2.3,2.7-5.4,4.1-9.3,4.1c-4.1,0-7-1.6-8.8-4.7L148.6,335.9L148.6,335.9z
				 M162.5,329.2c1.5-1.8,2.2-4.1,2.2-7.1c0-3-0.7-5.3-2.2-7c-1.5-1.7-3.4-2.6-5.9-2.6c-2.4,0-4.3,0.9-5.8,2.6
				c-1.5,1.7-2.3,4.1-2.3,7s0.8,5.3,2.3,7.1c1.5,1.8,3.5,2.7,5.8,2.7C159.1,331.9,161,331,162.5,329.2z"/>
			<path class="st0" d="M178.6,311.9c2.6-2.7,6-4.1,10-4.1c4,0,7.4,1.4,10,4.1c2.6,2.7,3.9,6.2,3.9,10.3c0,4.2-1.3,7.7-3.9,10.4
				c-2.6,2.7-6,4.1-10,4.1c-4.1,0-7.4-1.4-10-4.1c-2.6-2.7-3.9-6.2-3.9-10.4C174.7,318.1,176,314.6,178.6,311.9z M182.6,329.4
				c1.6,1.7,3.7,2.6,6,2.6c2.4,0,4.4-0.9,6-2.6c1.6-1.7,2.5-4.1,2.5-7.2c0-3-0.8-5.4-2.5-7.1c-1.6-1.7-3.7-2.6-6-2.6
				c-2.4,0-4.4,0.9-6,2.6c-1.6,1.7-2.5,4.1-2.5,7.1C180.1,325.3,180.9,327.7,182.6,329.4z"/>
			<path class="st0" d="M224.5,308.3v5.7c-0.8-0.1-1.6-0.2-2.3-0.2c-5,0-7.5,2.8-7.5,8.4v13.7h-5.3v-27.3h5.2v4.8
				c1.7-3.5,4.4-5.2,8.2-5.2C223.4,308.2,223.9,308.2,224.5,308.3z"/>
			<path class="st0" d="M228.5,328.6c0-2.3,0.8-4.2,2.3-5.6c1.5-1.4,3.5-2.3,6-2.6l7.4-1.1c1.4-0.2,2.1-0.9,2.1-2
				c0-1.4-0.5-2.6-1.5-3.5c-1-0.9-2.5-1.4-4.4-1.4c-1.8,0-3.2,0.5-4.3,1.5c-1.1,1-1.7,2.3-1.9,4l-5.1-1.2c0.3-2.6,1.5-4.7,3.6-6.4
				c2.1-1.6,4.6-2.5,7.6-2.5c3.9,0,6.7,0.9,8.6,2.8c1.8,1.9,2.8,4.3,2.8,7.2v13.7c0,1.6,0.1,3.1,0.3,4.5h-5.2
				c-0.2-1.1-0.3-2.4-0.3-3.7c-0.8,1.2-1.9,2.3-3.3,3.2c-1.5,0.9-3.3,1.4-5.5,1.4c-2.7,0-4.9-0.8-6.6-2.4
				C229.3,332.7,228.5,330.8,228.5,328.6z M238.3,332.3c2.4,0,4.3-0.6,5.7-1.9c1.4-1.3,2.2-3.3,2.2-6.1V323l-8.3,1.2
				c-1.2,0.2-2.2,0.6-2.9,1.3c-0.7,0.7-1.1,1.6-1.1,2.8c0,1.1,0.4,2,1.2,2.8C236,331.9,237,332.3,238.3,332.3z"/>
			<path class="st0" d="M267,300v8.6h5.9v4.8H267v14.2c0,1.3,0.3,2.2,0.9,2.8c0.6,0.6,1.6,0.9,2.9,0.9c0.8,0,1.5-0.1,2.1-0.2v4.5
				c-0.9,0.3-2.1,0.5-3.6,0.5c-2.3,0-4.2-0.7-5.6-2c-1.4-1.4-2-3.3-2-5.7v-15h-5.2v-4.8h1.5c1.4,0,2.4-0.4,3.1-1.2
				c0.7-0.8,1-1.8,1-3V300L267,300L267,300z"/>
			<path class="st0" d="M279.9,301c-0.7-0.7-1.1-1.6-1.1-2.7s0.4-2,1.1-2.7c0.7-0.8,1.6-1.1,2.7-1.1s2,0.4,2.7,1.1
				c0.8,0.7,1.1,1.7,1.1,2.8c0,1.1-0.4,2-1.1,2.7c-0.8,0.7-1.7,1.1-2.7,1.1S280.6,301.7,279.9,301z M285.2,335.9H280v-27.3h5.3
				V335.9z"/>
			<path class="st0" d="M317.7,308.6l-10.9,27.3h-5.4l-11.1-27.3h6l7.8,21l7.8-21H317.7z"/>
			<path class="st0" d="M341.1,326.5l4.6,1.6c-0.8,2.5-2.3,4.6-4.4,6.2c-2.2,1.6-4.8,2.4-7.8,2.4c-3.8,0-7.1-1.3-9.7-3.9
				c-2.7-2.6-4-6.2-4-10.6c0-4.2,1.3-7.6,3.9-10.3c2.6-2.7,5.6-4.1,9.2-4.1c4.1,0,7.3,1.3,9.6,3.9c2.3,2.6,3.5,6.1,3.5,10.4
				c0,0.7,0,1.2-0.1,1.7h-20.5c0,2.4,0.8,4.4,2.4,6c1.6,1.6,3.5,2.3,5.8,2.3C337.3,332,339.9,330.2,341.1,326.5z M325.4,319.4h14.9
				c-0.1-2-0.8-3.7-2-5c-1.3-1.3-3.1-2-5.4-2c-2.1,0-3.9,0.7-5.2,2.1C326.2,315.9,325.5,317.6,325.4,319.4z"/>
			<path class="st0" d="M393,304.8l-5,1.8c-0.3-1.7-1.1-3.3-2.5-4.7c-1.4-1.4-3.4-2.1-6-2.1c-2.2,0-4.1,0.6-5.6,1.9
				c-1.5,1.3-2.2,2.9-2.2,4.8c0,1.5,0.4,2.7,1.3,3.7c0.9,1,2.2,1.7,3.8,2.1l6,1.3c3.3,0.7,5.9,2.1,7.7,4c1.8,2,2.7,4.4,2.7,7.2
				c0,3.3-1.3,6-3.9,8.4c-2.6,2.3-5.9,3.5-10,3.5c-4.5,0-8-1.2-10.6-3.5c-2.6-2.4-4-5.2-4.5-8.4l5.3-1.7c0.2,2.4,1.2,4.5,2.8,6.1
				c1.7,1.7,3.9,2.5,6.8,2.5c2.6,0,4.7-0.6,6.1-1.8c1.4-1.2,2.2-2.7,2.2-4.6c0-1.5-0.5-2.8-1.5-3.9c-1-1.1-2.5-1.9-4.5-2.3l-5.7-1.2
				c-3-0.6-5.4-1.9-7.1-3.8c-1.8-1.9-2.7-4.3-2.7-7.2c0-3.2,1.3-6,3.9-8.4c2.6-2.4,5.7-3.6,9.4-3.6c4.1,0,7.3,1,9.5,3
				C391,299.8,392.4,302.2,393,304.8z"/>
			<path class="st0" d="M411.3,312.7c-2.3,0-4.3,0.8-5.9,2.5c-1.6,1.7-2.4,4-2.4,7c0,3,0.8,5.3,2.4,7c1.6,1.7,3.6,2.5,5.9,2.5
				c2.3,0,4-0.6,5.2-1.7c1.2-1.1,2-2.4,2.4-3.9l4.7,2c-0.8,2.3-2.2,4.3-4.3,6s-4.8,2.5-8,2.5c-4,0-7.3-1.4-9.9-4.1
				c-2.6-2.8-3.9-6.2-3.9-10.4c0-4.2,1.3-7.7,3.9-10.4c2.6-2.7,5.9-4.1,9.8-4.1c3.3,0,6,0.9,8.1,2.5c2.1,1.7,3.4,3.7,4.1,6.1l-4.8,2
				c-0.4-1.6-1.2-3-2.4-4.1C415.1,313.3,413.4,312.7,411.3,312.7z"/>
			<path class="st0" d="M429.8,301c-0.7-0.7-1.1-1.6-1.1-2.7s0.4-2,1.1-2.7c0.7-0.8,1.6-1.1,2.7-1.1s2,0.4,2.7,1.1
				c0.8,0.7,1.1,1.7,1.1,2.8c0,1.1-0.4,2-1.1,2.7c-0.8,0.7-1.7,1.1-2.7,1.1C431.5,302.1,430.6,301.7,429.8,301z M435.2,335.9h-5.3
				v-27.3h5.3V335.9z"/>
			<path class="st0" d="M463.4,326.5l4.6,1.6c-0.8,2.5-2.3,4.6-4.4,6.2c-2.2,1.6-4.8,2.4-7.8,2.4c-3.8,0-7.1-1.3-9.7-3.9
				c-2.7-2.6-4-6.2-4-10.6c0-4.2,1.3-7.6,3.9-10.3s5.6-4.1,9.2-4.1c4.1,0,7.3,1.3,9.6,3.9c2.3,2.6,3.5,6.1,3.5,10.4
				c0,0.7,0,1.2-0.1,1.7h-20.5c0,2.4,0.8,4.4,2.4,6c1.6,1.6,3.5,2.3,5.8,2.3C459.6,332,462.2,330.2,463.4,326.5z M447.7,319.4h14.9
				c-0.1-2-0.8-3.7-2-5s-3.1-2-5.4-2c-2.1,0-3.9,0.7-5.2,2.1C448.6,315.9,447.8,317.6,447.7,319.4z"/>
			<path class="st0" d="M480.3,320.1v15.8H475v-27.3h5.2v3.9c1.8-3.1,4.6-4.7,8.4-4.7c3.1,0,5.5,1,7.2,3c1.7,2,2.5,4.6,2.5,7.8v17.3
				H493v-16.4c0-4.6-2.1-6.9-6.4-6.9c-2,0-3.6,0.7-4.7,2.1C480.9,316.2,480.3,318,480.3,320.1z"/>
			<path class="st0" d="M518.3,312.7c-2.3,0-4.3,0.8-5.9,2.5c-1.6,1.7-2.4,4-2.4,7c0,3,0.8,5.3,2.4,7c1.6,1.7,3.6,2.5,5.9,2.5
				c2.3,0,4-0.6,5.2-1.7c1.2-1.1,2-2.4,2.4-3.9l4.7,2c-0.8,2.3-2.2,4.3-4.3,6s-4.8,2.5-8,2.5c-4,0-7.3-1.4-9.9-4.1
				c-2.6-2.8-3.9-6.2-3.9-10.4c0-4.2,1.3-7.7,3.9-10.4c2.6-2.7,5.9-4.1,9.8-4.1c3.3,0,6,0.9,8.1,2.5c2.1,1.7,3.4,3.7,4.1,6.1l-4.8,2
				c-0.4-1.6-1.2-3-2.4-4.1C522,313.3,520.4,312.7,518.3,312.7z"/>
			<path class="st0" d="M555.8,326.5l4.6,1.6c-0.8,2.5-2.3,4.6-4.4,6.2c-2.2,1.6-4.8,2.4-7.8,2.4c-3.8,0-7.1-1.3-9.7-3.9
				c-2.7-2.6-4-6.2-4-10.6c0-4.2,1.3-7.6,3.9-10.3c2.6-2.7,5.6-4.1,9.2-4.1c4.1,0,7.3,1.3,9.6,3.9c2.3,2.6,3.5,6.1,3.5,10.4
				c0,0.7,0,1.2-0.1,1.7h-20.5c0,2.4,0.8,4.4,2.4,6c1.6,1.6,3.5,2.3,5.8,2.3C552,332,554.5,330.2,555.8,326.5z M540.1,319.4H555
				c-0.1-2-0.8-3.7-2-5c-1.3-1.3-3.1-2-5.4-2c-2.1,0-3.9,0.7-5.2,2.1C540.9,315.9,540.2,317.6,540.1,319.4z"/>
			<path class="st0" d="M579.8,328.6c0-2.3,0.8-4.2,2.3-5.6c1.5-1.4,3.5-2.3,6-2.6l7.4-1.1c1.4-0.2,2.1-0.9,2.1-2
				c0-1.4-0.5-2.6-1.5-3.5c-1-0.9-2.5-1.4-4.4-1.4c-1.8,0-3.3,0.5-4.3,1.5c-1.1,1-1.7,2.3-1.9,4l-5.1-1.2c0.3-2.6,1.5-4.7,3.6-6.4
				c2.1-1.6,4.7-2.5,7.6-2.5c3.9,0,6.7,0.9,8.6,2.8c1.9,1.9,2.8,4.3,2.8,7.2v13.7c0,1.6,0.1,3.1,0.3,4.5H598
				c-0.2-1.1-0.3-2.4-0.3-3.7c-0.8,1.2-1.9,2.3-3.3,3.2c-1.5,0.9-3.3,1.4-5.5,1.4c-2.7,0-4.9-0.8-6.6-2.4
				C580.6,332.7,579.8,330.8,579.8,328.6z M589.7,332.3c2.4,0,4.3-0.6,5.7-1.9c1.4-1.3,2.2-3.3,2.2-6.1V323l-8.3,1.2
				c-1.2,0.2-2.2,0.6-2.9,1.3c-0.7,0.7-1.1,1.6-1.1,2.8c0,1.1,0.4,2,1.2,2.8C587.3,331.9,588.3,332.3,589.7,332.3z"/>
			<path class="st0" d="M618.3,300v8.6h5.9v4.8h-5.9v14.2c0,1.3,0.3,2.2,0.9,2.8c0.6,0.6,1.6,0.9,2.9,0.9c0.8,0,1.5-0.1,2.1-0.2v4.5
				c-0.9,0.3-2.1,0.5-3.6,0.5c-2.3,0-4.2-0.7-5.6-2c-1.4-1.4-2-3.3-2-5.7v-15h-5.2v-4.8h1.5c1.4,0,2.4-0.4,3.1-1.2
				c0.7-0.8,1-1.8,1-3V300L618.3,300L618.3,300z"/>
			<path class="st0" d="M643.7,328.6c0-2.3,0.8-4.2,2.3-5.6c1.5-1.4,3.5-2.3,6-2.6l7.4-1.1c1.4-0.2,2.1-0.9,2.1-2
				c0-1.4-0.5-2.6-1.5-3.5c-1-0.9-2.5-1.4-4.4-1.4c-1.8,0-3.3,0.5-4.3,1.5c-1.1,1-1.7,2.3-1.9,4l-5.1-1.2c0.3-2.6,1.5-4.7,3.6-6.4
				c2.1-1.6,4.7-2.5,7.6-2.5c3.9,0,6.7,0.9,8.6,2.8c1.9,1.9,2.8,4.3,2.8,7.2v13.7c0,1.6,0.1,3.1,0.3,4.5h-5.2
				c-0.2-1.1-0.3-2.4-0.3-3.7c-0.8,1.2-1.9,2.3-3.3,3.2c-1.5,0.9-3.3,1.4-5.5,1.4c-2.7,0-4.9-0.8-6.6-2.4
				C644.6,332.7,643.7,330.8,643.7,328.6z M653.6,332.3c2.4,0,4.3-0.6,5.7-1.9c1.4-1.3,2.2-3.3,2.2-6.1V323l-8.3,1.2
				c-1.2,0.2-2.2,0.6-2.9,1.3c-0.7,0.7-1.1,1.6-1.1,2.8c0,1.1,0.4,2,1.2,2.8C651.2,331.9,652.3,332.3,653.6,332.3z"/>
			<path class="st0" d="M724.6,335.9h-4.5l-0.5-5.7c-1,1.8-2.6,3.3-4.8,4.6c-2.2,1.3-4.9,1.9-8,1.9c-3.4,0-6.6-0.8-9.5-2.3
				c-2.9-1.6-5.3-4-7.2-7.2c-1.9-3.3-2.8-7-2.8-11.4c0-4.3,1-8.1,3-11.4c2-3.2,4.4-5.7,7.4-7.2c3-1.6,6.2-2.3,9.6-2.3
				c4.3,0,8.1,1.1,11.3,3.3c3.2,2.2,5.4,5.1,6.5,8.8l-5,2.2c-0.9-2.9-2.5-5.2-4.7-6.8c-2.2-1.6-4.9-2.4-8-2.4c-3.9,0-7.2,1.4-10,4.1
				c-2.8,2.8-4.2,6.7-4.2,11.7c0,5.1,1.4,9,4.1,11.8c2.7,2.8,6,4.2,9.9,4.2c2.1,0,4-0.3,5.6-1c1.6-0.7,2.9-1.6,3.9-2.7
				c0.9-1.1,1.6-2.2,2.1-3.4c0.5-1.1,0.7-2.3,0.8-3.4h-13.9v-5h19.2L724.6,335.9L724.6,335.9z"/>
			<path class="st0" d="M738,335.9h-5.3v-41h5.3V335.9z"/>
			<path class="st0" d="M745.3,328.6c0-2.3,0.8-4.2,2.3-5.6c1.5-1.4,3.5-2.3,6-2.6l7.4-1.1c1.4-0.2,2.1-0.9,2.1-2
				c0-1.4-0.5-2.6-1.5-3.5c-1-0.9-2.5-1.4-4.4-1.4c-1.8,0-3.3,0.5-4.3,1.5c-1.1,1-1.7,2.3-1.9,4l-5.1-1.2c0.3-2.6,1.5-4.7,3.6-6.4
				c2.1-1.6,4.7-2.5,7.6-2.5c3.9,0,6.7,0.9,8.6,2.8c1.9,1.9,2.8,4.3,2.8,7.2v13.7c0,1.6,0.1,3.1,0.3,4.5h-5.2
				c-0.2-1.1-0.3-2.4-0.3-3.7c-0.8,1.2-1.9,2.3-3.3,3.2c-1.5,0.9-3.3,1.4-5.5,1.4c-2.7,0-4.9-0.8-6.6-2.4
				C746.2,332.7,745.3,330.8,745.3,328.6z M755.2,332.3c2.4,0,4.3-0.6,5.7-1.9c1.4-1.3,2.2-3.3,2.2-6.1V323l-8.3,1.2
				c-1.2,0.2-2.2,0.6-2.9,1.3c-0.7,0.7-1.1,1.6-1.1,2.8c0,1.1,0.4,2,1.2,2.8C752.8,331.9,753.9,332.3,755.2,332.3z"/>
			<path class="st0" d="M782,320.1v15.8h-5.3v-27.3h5.2v3.9c1.8-3.1,4.6-4.7,8.4-4.7c3.1,0,5.5,1,7.2,3c1.7,2,2.5,4.6,2.5,7.8v17.3
				h-5.3v-16.4c0-4.6-2.1-6.9-6.4-6.9c-2,0-3.6,0.7-4.7,2.1C782.6,316.2,782,318,782,320.1z"/>
			<path class="st0" d="M820,312.7c-2.3,0-4.3,0.8-5.9,2.5c-1.6,1.7-2.4,4-2.4,7c0,3,0.8,5.3,2.4,7c1.6,1.7,3.6,2.5,5.9,2.5
				c2.3,0,4-0.6,5.2-1.7c1.2-1.1,2-2.4,2.4-3.9l4.7,2c-0.8,2.3-2.2,4.3-4.3,6c-2.1,1.7-4.8,2.5-8,2.5c-4,0-7.3-1.4-9.9-4.1
				c-2.6-2.8-3.9-6.2-3.9-10.4c0-4.2,1.3-7.7,3.9-10.4c2.6-2.7,5.9-4.1,9.8-4.1c3.3,0,6,0.9,8.1,2.5c2.1,1.7,3.4,3.7,4.1,6.1l-4.8,2
				c-0.4-1.6-1.2-3-2.4-4.1S822.1,312.7,820,312.7z"/>
			<path class="st0" d="M857.5,326.5l4.6,1.6c-0.8,2.5-2.3,4.6-4.4,6.2c-2.2,1.6-4.8,2.4-7.8,2.4c-3.8,0-7.1-1.3-9.7-3.9
				c-2.7-2.6-4-6.2-4-10.6c0-4.2,1.3-7.6,3.9-10.3c2.6-2.7,5.6-4.1,9.2-4.1c4.1,0,7.3,1.3,9.6,3.9c2.3,2.6,3.5,6.1,3.5,10.4
				c0,0.7,0,1.2-0.1,1.7h-20.5c0,2.4,0.8,4.4,2.4,6c1.6,1.6,3.5,2.3,5.8,2.3C853.7,332,856.3,330.2,857.5,326.5z M841.8,319.4h14.9
				c-0.1-2-0.8-3.7-2-5c-1.3-1.3-3.1-2-5.4-2c-2.1,0-3.9,0.7-5.2,2.1C842.6,315.9,841.9,317.6,841.8,319.4z"/>
		</g>
	</g>
	<g id="XMLID_2_">
		<g>
			<polygon class="st2" points="961,66.9 948.9,87.9 922.4,72.7 922.4,58.7 934.7,51.6 			"/>
			<polygon class="st3" points="948.8,15.4 961,36.4 934.7,51.6 922.4,44.7 922.4,30.6 			"/>
			<polygon class="st2" points="934.7,51.6 922.4,58.7 922.4,44.7 			"/>
			<polygon class="st4" points="922.4,72.7 922.4,103.2 898.1,103.2 898.1,72.8 910.3,65.8 			"/>
			<polygon class="st2" points="922.4,58.7 922.4,72.7 910.3,65.8 			"/>
			<polygon class="st2" points="922.4,44.7 922.4,58.7 910.3,65.8 898.1,58.7 898.1,44.7 910.3,37.6 			"/>
			<polygon class="st3" points="922.4,30.6 922.4,44.7 910.3,37.6 			"/>
			<polygon class="st4" points="922.4,0.2 922.4,30.6 910.3,37.6 898.1,30.6 898.1,0.2 			"/>
			<polygon class="st2" points="910.3,37.6 898.1,44.7 898.1,30.6 			"/>
			<polygon class="st3" points="910.3,65.8 898.1,72.8 898.1,58.7 			"/>
			<polygon class="st3" points="898.1,58.7 898.1,72.8 871.7,88 859.6,66.9 885.9,51.7 			"/>
			<polygon class="st2" points="898.1,44.7 898.1,58.7 885.9,51.7 			"/>
			<polygon class="st2" points="898.1,30.6 898.1,44.7 885.9,51.7 859.6,36.5 871.7,15.4 			"/>
		</g>
	</g>
</g>
</svg>
