<svg xmlns="http://www.w3.org/2000/svg" xmlns:xlink="http://www.w3.org/1999/xlink" width="163" height="58" viewBox="0 0 163 58">
  <defs>
    <polygon id="logo-a" points="0 39.661 162.885 39.661 162.885 0 0 0"/>
  </defs>
  <g fill="none" fill-rule="evenodd">
    <path fill="#FFF" d="M0.000145454545,39.0247273 L0.000145454545,18.3738182 L4.70705455,18.3738182 L4.70705455,21.0029091 C5.89396364,18.8829091 8.48087273,17.7803636 10.8132364,17.7803636 C13.5274182,17.7803636 15.9012364,19.0101818 17.0045091,21.4269091 C18.6154182,18.7127273 21.0328727,17.7803636 23.7034182,17.7803636 C27.4365091,17.7803636 30.9979636,20.1549091 30.9979636,25.6247273 L30.9979636,39.0247273 L26.2481455,39.0247273 L26.2481455,26.4305455 C26.2481455,24.0138182 25.0176,22.1905455 22.2619636,22.1905455 C19.6765091,22.1905455 17.9797818,24.2254545 17.9797818,26.7694545 L17.9797818,39.0247273 L13.1448727,39.0247273 L13.1448727,26.4305455 C13.1448727,24.056 11.9572364,22.1905455 9.15941818,22.1905455 C6.53032727,22.1905455 4.87650909,24.1403636 4.87650909,26.7694545 L4.87650909,39.0247273 L0.000145454545,39.0247273 Z"/>
    <mask id="logo-b" fill="#fff">
      <use xlink:href="#logo-a"/>
    </mask>
    <path fill="#FFF" d="M37.0218182 39.0244364L41.8981818 39.0244364 41.8981818 18.3735273 37.0218182 18.3735273 37.0218182 39.0244364zM39.4385455 7.90007273C41.2196364 7.90007273 42.6618182 9.34152727 42.6618182 11.1226182 42.6618182 12.9029818 41.2196364 14.3029818 39.4385455 14.3029818 37.7010909 14.3029818 36.2589091 12.9029818 36.2589091 11.1226182 36.2589091 9.34152727 37.7010909 7.90007273 39.4385455 7.90007273L39.4385455 7.90007273zM48.2600727 39.0247273L48.2600727 18.3738182 52.9669818 18.3738182 52.9669818 21.0029091C54.1538909 18.8829091 56.7408 17.7803636 59.0731636 17.7803636 61.7873455 17.7803636 64.1611636 19.0101818 65.2644364 21.4269091 66.8753455 18.7127273 69.2935273 17.7803636 71.9640727 17.7803636 75.6964364 17.7803636 79.2578909 20.1549091 79.2578909 25.6247273L79.2578909 39.0247273 74.5088 39.0247273 74.5088 26.4305455C74.5088 24.0138182 73.2782545 22.1905455 70.5218909 22.1905455 67.9364364 22.1905455 66.2397091 24.2254545 66.2397091 26.7694545L66.2397091 39.0247273 61.4055273 39.0247273 61.4055273 26.4305455C61.4055273 24.056 60.2171636 22.1905455 57.4193455 22.1905455 54.7902545 22.1905455 53.1364364 24.1403636 53.1364364 26.7694545L53.1364364 39.0247273 48.2600727 39.0247273zM100.123709 28.6778182C100.123709 24.3949091 97.4102545 22.1905455 94.3564364 22.1905455 91.3455273 22.1905455 88.5898909 24.3949091 88.5898909 28.6778182 88.5898909 32.9607273 91.3455273 35.2509091 94.3564364 35.2509091 97.4102545 35.2509091 100.123709 33.0029091 100.123709 28.6778182M105.085164 28.6778182C105.085164 35.0385455 100.547709 39.6610909 94.3564364 39.6610909 88.2073455 39.6610909 83.6706182 35.0385455 83.6706182 28.6778182 83.6706182 22.3592727 88.2073455 17.7381818 94.3564364 17.7381818 100.547709 17.7381818 105.085164 22.3592727 105.085164 28.6778182M112.295636 32.2399273C112.465818 34.1053818 113.865091 35.7599273 116.494182 35.7599273 118.529091 35.7599273 119.590182 34.6573818 119.590182 33.3846545 119.590182 32.2821091 118.826545 31.4341091 117.172727 31.0952L114.120364 30.4166545C110.472364 29.6108364 108.564 27.2362909 108.564 24.3948364 108.564 20.7904727 111.872364 17.7381091 116.155273 17.7381091 121.921818 17.7381091 123.788 21.4690182 124.127636 23.5046545L119.971273 24.6922909C119.801818 23.5046545 118.911636 21.5962909 116.155273 21.5962909 114.416364 21.5962909 113.186545 22.6988364 113.186545 23.9708364 113.186545 25.0733818 113.992364 25.8792 115.264364 26.1337455L118.401818 26.7701091C122.304364 27.6181091 124.339273 29.9926545 124.339273 33.0457455 124.339273 36.1832 121.794545 39.6610182 116.537091 39.6610182 110.557455 39.6610182 108.268 35.7599273 108.013455 33.4268364L112.295636 32.2399273zM140.708945 30.4590545L140.708945 29.5259636 135.323491 30.3317818C133.796945 30.5863273 132.567127 31.4343273 132.567127 33.1303273 132.567127 34.5296 133.626764 35.8023273 135.578036 35.8023273 138.333673 35.8023273 140.708945 34.4874182 140.708945 30.4590545M133.881309 27.1943273L139.1824 26.3877818C140.369309 26.2183273 140.708945 25.6248727 140.708945 24.9041455 140.708945 23.1652364 139.520582 21.7659636 136.807127 21.7659636 134.220945 21.7659636 132.779491 23.4197818 132.567127 25.4976L128.071855 24.4801455C128.453673 20.9179636 131.676218 17.7376 136.764945 17.7376 143.124945 17.7376 145.5424 21.3419636 145.5424 25.4554182L145.5424 35.7165091C145.5424 37.5826909 145.754036 38.8125091 145.796945 39.0248727L141.217309 39.0248727C141.175127 38.8976 141.005673 38.0496 141.005673 36.3957818 140.0304 37.9645091 137.994764 39.6605091 134.644945 39.6605091 130.319855 39.6605091 127.647855 36.6925091 127.647855 33.4270545 127.647855 29.7383273 130.361309 27.7026909 133.881309 27.1943273" mask="url(#logo-b)"/>
    <g mask="url(#logo-b)">
      <g transform="translate(144.727 -.34)">
        <polygon fill="#3476D6" points="17.98 11.906 15.9 15.506 11.39 12.91 11.39 10.517 13.478 9.31"/>
        <polygon fill="#EF8C20" points="15.892 3.12 17.971 6.713 13.478 9.309 11.39 8.117 11.39 5.724"/>
        <polygon fill="#E68435" points="13.477 9.31 11.39 10.517 11.39 8.117"/>
        <polygon fill="#F2BA1D" points="11.39 12.909 11.39 18.117 7.237 18.117 7.237 12.917 9.317 11.717"/>
        <polygon fill="#EBB530" points="11.39 10.517 11.39 12.909 9.317 11.717"/>
        <polygon fill="#FEBD0B" points="11.39 8.117 11.39 10.517 9.317 11.717 7.237 10.517 7.237 8.117 9.317 6.917"/>
        <polygon fill="#FEC107" points="11.39 5.724 11.39 8.117 9.317 6.917"/>
        <polygon fill="#F2BA1D" points="11.39 .524 11.39 5.724 9.317 6.917 7.237 5.724 7.237 .524"/>
        <polygon fill="#EBB530" points="9.318 6.917 7.238 8.117 7.238 5.724"/>
        <polygon fill="#FEC107" points="9.318 11.717 7.238 12.917 7.238 10.517"/>
        <polygon fill="#EF8C20" points="7.237 10.517 7.237 12.917 2.736 15.52 .656 11.92 5.158 9.317"/>
        <polygon fill="#E68435" points="7.237 8.117 7.237 10.517 5.158 9.317"/>
        <polygon fill="#3476D6" points="7.237 5.724 7.237 8.117 5.158 9.317 .656 6.728 2.728 3.128"/>
      </g>
    </g>
    <path fill="#FFF" fill-rule="nonzero" d="M3.47436523,57.1762695 C4.39282227,57.1762695 5.12263997,56.8840332 5.66381836,56.2995605 C6.11531576,55.8140462 6.38126628,55.2125651 6.46166992,54.4951172 L6.46166992,54.4951172 L5.56176758,54.4951172 C5.46899414,54.9435221 5.32828776,55.3053385 5.13964844,55.5805664 C4.78401693,56.1031901 4.2660319,56.364502 3.58569336,56.364502 C2.84659831,56.364502 2.29073079,56.116333 1.91809082,55.6199951 C1.54545085,55.1236572 1.35913086,54.4765625 1.35913086,53.6787109 C1.35913086,52.7045898 1.56555176,51.9817301 1.97839355,51.5101318 C2.39123535,51.0385335 2.93318685,50.8027344 3.60424805,50.8027344 C4.15470378,50.8027344 4.5822347,50.931071 4.88684082,51.1877441 C5.19144694,51.4444173 5.39477539,51.7923177 5.49682617,52.2314453 L5.49682617,52.2314453 L6.39672852,52.2314453 C6.3441569,51.6531576 6.0797526,51.1367188 5.60351562,50.6821289 C5.12727865,50.2275391 4.45776367,50.0002441 3.5949707,50.0002441 C2.58374023,50.0002441 1.79052734,50.3496908 1.21533203,51.048584 C0.68343099,51.6918132 0.417480469,52.5159505 0.417480469,53.5209961 C0.417480469,54.8445638 0.771565755,55.8233236 1.47973633,56.4572754 C2.01782227,56.9366048 2.68269857,57.1762695 3.47436523,57.1762695 Z M9.42485352,57.1809082 C10.2443522,57.1809082 10.8489258,56.9195964 11.2385742,56.3969727 C11.6282227,55.874349 11.8230469,55.2125651 11.8230469,54.4116211 C11.8230469,53.5828451 11.6019368,52.9550781 11.1597168,52.5283203 C10.7174967,52.1015625 10.1763184,51.8881836 9.53618164,51.8881836 C8.82182617,51.8881836 8.25281576,52.1355794 7.82915039,52.6303711 C7.40548503,53.1251628 7.19365234,53.7900391 7.19365234,54.625 C7.19365234,55.4042969 7.39466146,56.0251058 7.79667969,56.4874268 C8.19869792,56.9497477 8.74142253,57.1809082 9.42485352,57.1809082 Z M9.50371094,56.4619141 C8.99964193,56.4619141 8.63164062,56.2856445 8.39970703,55.9331055 C8.16777344,55.5805664 8.05180664,55.1398926 8.05180664,54.611084 C8.05180664,54.0606283 8.16777344,53.5905762 8.39970703,53.2009277 C8.63164062,52.8112793 9.00273437,52.6164551 9.51298828,52.6164551 C10.0881836,52.6164551 10.4932943,52.8452962 10.7283203,53.3029785 C10.8767578,53.5936686 10.9509766,53.9709473 10.9509766,54.4348145 C10.9509766,54.9481608 10.8481527,55.4143473 10.6425049,55.833374 C10.4368571,56.2524007 10.0572591,56.4619141 9.50371094,56.4619141 Z M13.733252,57 L13.733252,50.185791 L12.898291,50.185791 L12.898291,57 L13.733252,57 Z M15.9032227,57 L15.9032227,50.185791 L15.0682617,50.185791 L15.0682617,57 L15.9032227,57 Z M18.5509766,57.1669922 C18.9344401,57.1669922 19.2854329,57.0850423 19.6039551,56.9211426 C19.9224772,56.7572428 20.1667806,56.5639648 20.3368652,56.3413086 C20.3646973,56.5392253 20.4126302,56.6923014 20.4806641,56.8005371 C20.6105469,57.0046387 20.8192871,57.1066895 21.1068848,57.1066895 C21.2243978,57.1066895 21.3171712,57.1020508 21.3852051,57.0927734 C21.4532389,57.0834961 21.5521973,57.0603027 21.6820801,57.0231934 L21.6820801,57.0231934 L21.6820801,56.40625 C21.6295085,56.4155273 21.5800293,56.4224854 21.5336426,56.427124 C21.4872559,56.4317627 21.4455078,56.434082 21.4083984,56.434082 C21.2939779,56.434082 21.218986,56.4077962 21.1834229,56.3552246 C21.1478597,56.302653 21.1300781,56.2330729 21.1300781,56.1464844 L21.1300781,56.1464844 L21.1300781,53.2844238 C21.1300781,52.8143717 20.9491699,52.4680176 20.5873535,52.2453613 C20.2224447,52.0227051 19.7477539,51.911377 19.1632812,51.911377 C18.6592122,51.911377 18.2162191,52.0312093 17.8343018,52.270874 C17.4523844,52.5105387 17.2536947,52.9365234 17.2382324,53.5488281 L17.2382324,53.5488281 L18.0175293,53.5488281 C18.0484538,53.2921549 18.1149414,53.098877 18.2169922,52.9689941 C18.3994466,52.7339681 18.7086914,52.6164551 19.1447266,52.6164551 C19.5220052,52.6164551 19.8119222,52.6806234 20.0144775,52.80896 C20.2170329,52.9372965 20.3183105,53.1437174 20.3183105,53.4282227 C20.3183105,53.5673828 20.2997559,53.6740723 20.2626465,53.748291 C20.1977051,53.8843587 20.0693685,53.9647624 19.8776367,53.989502 L19.8776367,53.989502 L18.5463379,54.1564941 C18.0793783,54.2152507 17.7020996,54.3714193 17.414502,54.625 C17.1269043,54.8785807 16.9831055,55.2357585 16.9831055,55.6965332 C16.9831055,56.1171061 17.1292236,56.4673258 17.42146,56.7471924 C17.7136963,57.0270589 18.0902018,57.1669922 18.5509766,57.1669922 Z M18.7458008,56.4572754 C18.5045898,56.4572754 18.2958496,56.3876953 18.1195801,56.2485352 C17.9433105,56.109375 17.8551758,55.9191895 17.8551758,55.6779785 C17.8551758,55.3594564 17.9835124,55.1275228 18.2401855,54.9821777 C18.3917155,54.8955892 18.6190104,54.832194 18.9220703,54.7919922 L18.9220703,54.7919922 L19.4276855,54.7270508 C19.5823079,54.7084961 19.7400228,54.6775716 19.9008301,54.6342773 C20.0616374,54.5909831 20.1930664,54.5368652 20.2951172,54.4719238 L20.2951172,54.4719238 L20.2951172,55.1445312 C20.2951172,55.6578776 20.0631836,56.0274251 19.5993164,56.2531738 C19.3240885,56.3892415 19.0395833,56.4572754 18.7458008,56.4572754 Z M24.7148437,57.1577148 C25.3889974,57.1577148 25.9162598,56.8979492 26.2966309,56.378418 C26.677002,55.8588867 26.8671875,55.2063802 26.8671875,54.4208984 C26.8671875,53.5921224 26.6746826,52.9651286 26.2896729,52.539917 C25.9046631,52.1147054 25.4029134,51.9020996 24.7844238,51.9020996 C24.4875488,51.9020996 24.212321,51.9647217 23.9587402,52.0899658 C23.7051595,52.21521 23.4871419,52.3968913 23.3046875,52.6350098 L23.3046875,52.6350098 L23.3046875,50.1625977 L22.4929199,50.1625977 L22.4929199,57 L23.2629395,57 L23.2629395,56.364502 C23.439209,56.6026204 23.6046549,56.7757975 23.7592773,56.8840332 C24.019043,57.0664876 24.3375651,57.1577148 24.7148437,57.1577148 Z M24.6638184,56.420166 C24.0638835,56.420166 23.6541341,56.1464844 23.4345703,55.5991211 C23.3170573,55.308431 23.2583008,54.9296061 23.2583008,54.4626465 C23.2583008,53.8163249 23.4013265,53.3524577 23.6873779,53.0710449 C23.9734294,52.7896322 24.3066406,52.6489258 24.6870117,52.6489258 C25.1230469,52.6489258 25.4531657,52.8205566 25.6773682,53.1638184 C25.9015706,53.5070801 26.0136719,53.9400228 26.0136719,54.4626465 C26.0136719,55.0502116 25.9015706,55.5233561 25.6773682,55.8820801 C25.4531657,56.240804 25.1153158,56.420166 24.6638184,56.420166 Z M29.7932617,57.1809082 C30.6127604,57.1809082 31.217334,56.9195964 31.6069824,56.3969727 C31.9966309,55.874349 32.1914551,55.2125651 32.1914551,54.4116211 C32.1914551,53.5828451 31.9703451,52.9550781 31.528125,52.5283203 C31.0859049,52.1015625 30.5447266,51.8881836 29.9045898,51.8881836 C29.1902344,51.8881836 28.621224,52.1355794 28.1975586,52.6303711 C27.7738932,53.1251628 27.5620605,53.7900391 27.5620605,54.625 C27.5620605,55.4042969 27.7630697,56.0251058 28.1650879,56.4874268 C28.5671061,56.9497477 29.1098307,57.1809082 29.7932617,57.1809082 Z M29.8721191,56.4619141 C29.3680501,56.4619141 29.0000488,56.2856445 28.7681152,55.9331055 C28.5361816,55.5805664 28.4202148,55.1398926 28.4202148,54.611084 C28.4202148,54.0606283 28.5361816,53.5905762 28.7681152,53.2009277 C29.0000488,52.8112793 29.3711426,52.6164551 29.8813965,52.6164551 C30.4565918,52.6164551 30.8617025,52.8452962 31.0967285,53.3029785 C31.245166,53.5936686 31.3193848,53.9709473 31.3193848,54.4348145 C31.3193848,54.9481608 31.2165609,55.4143473 31.0109131,55.833374 C30.8052653,56.2524007 30.4256673,56.4619141 29.8721191,56.4619141 Z M34.1016602,57 L34.1016602,54.1425781 C34.1016602,53.7900391 34.2145345,53.4784749 34.4402832,53.2078857 C34.6660319,52.9372965 34.9891927,52.802002 35.4097656,52.802002 C35.4592448,52.802002 35.5048584,52.8035482 35.5466064,52.8066406 C35.5883545,52.8097331 35.6339681,52.815918 35.6834473,52.8251953 L35.6834473,52.8251953 L35.6834473,51.9438477 C35.5937663,51.9345703 35.5303711,51.9283854 35.4932617,51.925293 C35.4561523,51.9222005 35.4298665,51.9206543 35.4144043,51.9206543 C35.0835124,51.9206543 34.791276,52.0404867 34.5376953,52.2801514 C34.2841146,52.5198161 34.1248535,52.7231445 34.0599121,52.8901367 L34.0599121,52.8901367 L34.0599121,52.0319824 L33.2666992,52.0319824 L33.2666992,57 L34.1016602,57 Z M37.8023926,57.1669922 C38.1858561,57.1669922 38.536849,57.0850423 38.8553711,56.9211426 C39.1738932,56.7572428 39.4181966,56.5639648 39.5882812,56.3413086 C39.6161133,56.5392253 39.6640462,56.6923014 39.7320801,56.8005371 C39.8619629,57.0046387 40.0707031,57.1066895 40.3583008,57.1066895 C40.4758138,57.1066895 40.5685872,57.1020508 40.6366211,57.0927734 C40.7046549,57.0834961 40.8036133,57.0603027 40.9334961,57.0231934 L40.9334961,57.0231934 L40.9334961,56.40625 C40.8809245,56.4155273 40.8314453,56.4224854 40.7850586,56.427124 C40.7386719,56.4317627 40.6969238,56.434082 40.6598145,56.434082 C40.5453939,56.434082 40.470402,56.4077962 40.4348389,56.3552246 C40.3992757,56.302653 40.3814941,56.2330729 40.3814941,56.1464844 L40.3814941,56.1464844 L40.3814941,53.2844238 C40.3814941,52.8143717 40.2005859,52.4680176 39.8387695,52.2453613 C39.4738607,52.0227051 38.9991699,51.911377 38.4146973,51.911377 C37.9106283,51.911377 37.4676351,52.0312093 37.0857178,52.270874 C36.7038005,52.5105387 36.5051107,52.9365234 36.4896484,53.5488281 L36.4896484,53.5488281 L37.2689453,53.5488281 C37.2998698,53.2921549 37.3663574,53.098877 37.4684082,52.9689941 C37.6508626,52.7339681 37.9601074,52.6164551 38.3961426,52.6164551 C38.7734212,52.6164551 39.0633382,52.6806234 39.2658936,52.80896 C39.4684489,52.9372965 39.5697266,53.1437174 39.5697266,53.4282227 C39.5697266,53.5673828 39.5511719,53.6740723 39.5140625,53.748291 C39.4491211,53.8843587 39.3207845,53.9647624 39.1290527,53.989502 L39.1290527,53.989502 L37.7977539,54.1564941 C37.3307943,54.2152507 36.9535156,54.3714193 36.665918,54.625 C36.3783203,54.8785807 36.2345215,55.2357585 36.2345215,55.6965332 C36.2345215,56.1171061 36.3806396,56.4673258 36.672876,56.7471924 C36.9651123,57.0270589 37.3416178,57.1669922 37.8023926,57.1669922 Z M37.9972168,56.4572754 C37.7560059,56.4572754 37.5472656,56.3876953 37.3709961,56.2485352 C37.1947266,56.109375 37.1065918,55.9191895 37.1065918,55.6779785 C37.1065918,55.3594564 37.2349284,55.1275228 37.4916016,54.9821777 C37.6431315,54.8955892 37.8704264,54.832194 38.1734863,54.7919922 L38.1734863,54.7919922 L38.6791016,54.7270508 C38.833724,54.7084961 38.9914388,54.6775716 39.1522461,54.6342773 C39.3130534,54.5909831 39.4444824,54.5368652 39.5465332,54.4719238 L39.5465332,54.4719238 L39.5465332,55.1445312 C39.5465332,55.6578776 39.3145996,56.0274251 38.8507324,56.2531738 C38.5755046,56.3892415 38.2909993,56.4572754 37.9972168,56.4572754 Z M42.9782227,57.0788574 C43.0988281,57.0788574 43.2109294,57.0726725 43.3145264,57.0603027 C43.4181234,57.0479329 43.5178548,57.027832 43.6137207,57 L43.6137207,57 L43.6137207,56.3413086 C43.5518717,56.3474935 43.4977539,56.351359 43.4513672,56.3529053 C43.4049805,56.3544515 43.3616862,56.3552246 43.3214844,56.3552246 C43.1699544,56.3552246 43.0617187,56.3382161 42.9967773,56.3041992 C42.8792643,56.2454427 42.8205078,56.1294759 42.8205078,55.9562988 L42.8205078,55.9562988 L42.8205078,52.7138672 L43.6137207,52.7138672 L43.6137207,52.0319824 L42.8205078,52.0319824 L42.8205078,50.6450195 L41.9762695,50.6450195 L41.9762695,52.0319824 L41.3036621,52.0319824 L41.3036621,52.7138672 L41.9762695,52.7138672 L41.9762695,56.0026855 C41.9762695,56.3212077 42.0458496,56.5802002 42.1850098,56.7796631 C42.3241699,56.979126 42.5885742,57.0788574 42.9782227,57.0788574 Z M45.3569336,51.1320801 L45.3569336,50.185791 L44.5080566,50.185791 L44.5080566,51.1320801 L45.3569336,51.1320801 Z M45.3569336,57 L45.3569336,52.0551758 L44.5080566,52.0551758 L44.5080566,57 L45.3569336,57 Z M48.8396484,57 L50.7136719,52.0319824 L49.7998535,52.0319824 L48.4128906,56.0769043 L47.0862305,52.0319824 L46.116748,52.0319824 L47.9490234,57 L48.8396484,57 Z M53.4263672,57.1762695 C53.6799479,57.1762695 53.9072428,57.1515299 54.108252,57.1020508 C54.4824382,57.0154622 54.7963216,56.8484701 55.0499023,56.6010742 C55.2014323,56.4588216 55.3382731,56.2755941 55.4604248,56.0513916 C55.5825765,55.8271891 55.6544759,55.6238607 55.676123,55.4414062 L55.676123,55.4414062 L54.8550781,55.4414062 C54.7932292,55.6609701 54.6880859,55.854248 54.5396484,56.0212402 C54.2798828,56.3088379 53.9319824,56.4526367 53.4959473,56.4526367 C53.0289876,56.4526367 52.6841797,56.3003337 52.4615234,55.9957275 C52.2388672,55.6911214 52.1198079,55.2867839 52.1043457,54.7827148 L52.1043457,54.7827148 L55.7457031,54.7827148 C55.7457031,54.2817383 55.7209635,53.9168294 55.6714844,53.6879883 C55.6158203,53.3540039 55.5044922,53.0617676 55.3375,52.8112793 C55.1643229,52.5484212 54.9122884,52.3342692 54.5813965,52.1688232 C54.2505046,52.0033773 53.9087891,51.9206543 53.55625,51.9206543 C52.8573568,51.9206543 52.2914388,52.1695964 51.8584961,52.6674805 C51.4255534,53.1653646 51.209082,53.8132324 51.209082,54.611084 C51.209082,55.4213053 51.4240072,56.0513916 51.8538574,56.5013428 C52.2837077,56.9512939 52.8078776,57.1762695 53.4263672,57.1762695 Z M54.8875488,54.1193848 L52.1275391,54.1193848 C52.1430013,53.692627 52.2806152,53.340861 52.5403809,53.0640869 C52.8001465,52.7873128 53.1217611,52.6489258 53.5052246,52.6489258 C54.0402181,52.6489258 54.4221354,52.8499349 54.6509766,53.2519531 C54.7746745,53.4684245 54.8535319,53.7575684 54.8875488,54.1193848 L54.8875488,54.1193848 Z M62.0709961,57.1994629 C62.7977214,57.1994629 63.4355387,57.0371094 63.9844482,56.7124023 C64.5333577,56.3876953 64.8078125,55.8480632 64.8078125,55.0935059 C64.8078125,54.4873861 64.5913411,54.0250651 64.1583984,53.706543 C63.9079102,53.5240885 63.5522786,53.3802897 63.0915039,53.2751465 L63.0915039,53.2751465 L62.1359375,53.0571289 C61.4927083,52.9086914 61.0798665,52.7849935 60.8974121,52.6860352 C60.6190918,52.5314128 60.4799316,52.2871094 60.4799316,51.953125 C60.4799316,51.6500651 60.5989909,51.3841146 60.8371094,51.1552734 C61.0752279,50.9264323 61.4664225,50.8120117 62.0106934,50.8120117 C62.684847,50.8120117 63.1626302,50.9898275 63.444043,51.345459 C63.5955729,51.5402832 63.6945312,51.8201497 63.740918,52.1850586 L63.740918,52.1850586 L64.6083496,52.1850586 C64.6083496,51.4274089 64.3586344,50.87618 63.8592041,50.5313721 C63.3597738,50.1865641 62.7528809,50.0141602 62.0385254,50.0141602 C61.262321,50.0141602 60.6623861,50.2105306 60.2387207,50.6032715 C59.8150553,50.9960124 59.6032227,51.4985352 59.6032227,52.1108398 C59.6032227,52.6767578 59.819694,53.1019694 60.2526367,53.3864746 C60.503125,53.5503743 60.9298828,53.7003581 61.5329102,53.8364258 L61.5329102,53.8364258 L62.4560059,54.045166 C62.9569824,54.1595866 63.3249837,54.2941081 63.5600098,54.4487305 C63.7919434,54.6064453 63.9079102,54.8708496 63.9079102,55.2419434 C63.9079102,55.736735 63.6326823,56.0799967 63.0822266,56.2717285 C62.7977214,56.3706868 62.4822917,56.420166 62.1359375,56.420166 C61.3628255,56.420166 60.8231934,56.1944173 60.517041,55.7429199 C60.3562337,55.501709 60.2650065,55.1878255 60.2433594,54.8012695 L60.2433594,54.8012695 L59.3759277,54.8012695 C59.3666504,55.5372721 59.6016764,56.1201986 60.0810059,56.5500488 C60.5603353,56.9829915 61.2236654,57.1994629 62.0709961,57.1994629 Z M67.7199707,57.1437988 C68.2982585,57.1437988 68.7729492,56.9914958 69.144043,56.6868896 C69.5151367,56.3822835 69.7470703,55.9006348 69.8398437,55.2419434 L69.8398437,55.2419434 L69.0280762,55.2419434 C68.950765,55.6099447 68.8108317,55.8998617 68.6082764,56.1116943 C68.405721,56.323527 68.1312663,56.4294434 67.7849121,56.4294434 C67.3334147,56.4294434 67.0025228,56.2593587 66.7922363,55.9191895 C66.5819499,55.5790202 66.4768066,55.1599935 66.4768066,54.6621094 C66.4768066,54.1673177 66.5510254,53.7513835 66.6994629,53.4143066 C66.928304,52.8947754 67.3086751,52.6350098 67.8405762,52.6350098 C68.2302246,52.6350098 68.5131836,52.7362874 68.6894531,52.9388428 C68.8657227,53.1413981 68.978597,53.395752 69.0280762,53.7019043 L69.0280762,53.7019043 L69.8398437,53.7019043 C69.7687174,53.037028 69.5576579,52.5685221 69.206665,52.2963867 C68.8556722,52.0242513 68.4003092,51.8881836 67.8405762,51.8881836 C67.1849772,51.8881836 66.6453451,52.1309408 66.2216797,52.6164551 C65.7980143,53.1019694 65.5861816,53.7807617 65.5861816,54.652832 C65.5861816,55.3640951 65.7794596,55.9570719 66.1660156,56.4317627 C66.5525716,56.9064535 67.0705566,57.1437988 67.7199707,57.1437988 Z M71.5830566,51.1320801 L71.5830566,50.185791 L70.7341797,50.185791 L70.7341797,51.1320801 L71.5830566,51.1320801 Z M71.5830566,57 L71.5830566,52.0551758 L70.7341797,52.0551758 L70.7341797,57 L71.5830566,57 Z M74.8431152,57.1762695 C75.096696,57.1762695 75.3239909,57.1515299 75.525,57.1020508 C75.8991862,57.0154622 76.2130697,56.8484701 76.4666504,56.6010742 C76.6181803,56.4588216 76.7550212,56.2755941 76.8771729,56.0513916 C76.9993245,55.8271891 77.071224,55.6238607 77.0928711,55.4414062 L77.0928711,55.4414062 L76.2718262,55.4414062 C76.2099772,55.6609701 76.104834,55.854248 75.9563965,56.0212402 C75.6966309,56.3088379 75.3487305,56.4526367 74.9126953,56.4526367 C74.4457357,56.4526367 74.1009277,56.3003337 73.8782715,55.9957275 C73.6556152,55.6911214 73.536556,55.2867839 73.5210937,54.7827148 L73.5210937,54.7827148 L77.1624512,54.7827148 C77.1624512,54.2817383 77.1377116,53.9168294 77.0882324,53.6879883 C77.0325684,53.3540039 76.9212402,53.0617676 76.754248,52.8112793 C76.581071,52.5484212 76.3290365,52.3342692 75.9981445,52.1688232 C75.6672526,52.0033773 75.3255371,51.9206543 74.972998,51.9206543 C74.2741048,51.9206543 73.7081868,52.1695964 73.2752441,52.6674805 C72.8423014,53.1653646 72.6258301,53.8132324 72.6258301,54.611084 C72.6258301,55.4213053 72.8407552,56.0513916 73.2706055,56.5013428 C73.7004557,56.9512939 74.2246257,57.1762695 74.8431152,57.1762695 Z M76.3042969,54.1193848 L73.5442871,54.1193848 C73.5597493,53.692627 73.6973633,53.340861 73.9571289,53.0640869 C74.2168945,52.7873128 74.5385091,52.6489258 74.9219727,52.6489258 C75.4569661,52.6489258 75.8388835,52.8499349 76.0677246,53.2519531 C76.1914225,53.4684245 76.2702799,53.7575684 76.3042969,54.1193848 L76.3042969,54.1193848 Z M79.0819336,57 L79.0819336,54.3977051 C79.0819336,54.072998 79.1028076,53.8232829 79.1445557,53.6485596 C79.1863037,53.4738363 79.2767578,53.3045247 79.415918,53.140625 C79.5890951,52.9365234 79.7901042,52.8004557 80.0189453,52.7324219 C80.1457357,52.6922201 80.3080892,52.6721191 80.5060059,52.6721191 C80.8956543,52.6721191 81.1646973,52.8267415 81.3131348,53.1359863 C81.4028158,53.3215332 81.4476562,53.5658366 81.4476562,53.8688965 L81.4476562,53.8688965 L81.4476562,57 L82.2965332,57 L82.2965332,53.8132324 C82.2965332,53.3122559 82.2284993,52.9272461 82.0924316,52.6582031 C81.8450358,52.1665039 81.3687988,51.9206543 80.6637207,51.9206543 C80.3421061,51.9206543 80.0498698,51.9840495 79.7870117,52.1108398 C79.5241536,52.2376302 79.2752116,52.4463704 79.0401855,52.7370605 L79.0401855,52.7370605 L79.0401855,52.0319824 L78.2469727,52.0319824 L78.2469727,57 L79.0819336,57 Z M85.3849609,57.1437988 C85.9632487,57.1437988 86.4379395,56.9914958 86.8090332,56.6868896 C87.180127,56.3822835 87.4120605,55.9006348 87.504834,55.2419434 L87.504834,55.2419434 L86.6930664,55.2419434 C86.6157552,55.6099447 86.4758219,55.8998617 86.2732666,56.1116943 C86.0707113,56.323527 85.7962565,56.4294434 85.4499023,56.4294434 C84.9984049,56.4294434 84.667513,56.2593587 84.4572266,55.9191895 C84.2469401,55.5790202 84.1417969,55.1599935 84.1417969,54.6621094 C84.1417969,54.1673177 84.2160156,53.7513835 84.3644531,53.4143066 C84.5932943,52.8947754 84.9736654,52.6350098 85.5055664,52.6350098 C85.8952148,52.6350098 86.1781738,52.7362874 86.3544434,52.9388428 C86.5307129,53.1413981 86.6435872,53.395752 86.6930664,53.7019043 L86.6930664,53.7019043 L87.504834,53.7019043 C87.4337077,53.037028 87.2226481,52.5685221 86.8716553,52.2963867 C86.5206624,52.0242513 86.0652995,51.8881836 85.5055664,51.8881836 C84.8499674,51.8881836 84.3103353,52.1309408 83.8866699,52.6164551 C83.4630046,53.1019694 83.2511719,53.7807617 83.2511719,54.652832 C83.2511719,55.3640951 83.4444499,55.9570719 83.8310059,56.4317627 C84.2175618,56.9064535 84.7355469,57.1437988 85.3849609,57.1437988 Z M90.3381348,57.1762695 C90.5917155,57.1762695 90.8190104,57.1515299 91.0200195,57.1020508 C91.3942057,57.0154622 91.7080892,56.8484701 91.9616699,56.6010742 C92.1131999,56.4588216 92.2500407,56.2755941 92.3721924,56.0513916 C92.4943441,55.8271891 92.5662435,55.6238607 92.5878906,55.4414062 L92.5878906,55.4414062 L91.7668457,55.4414062 C91.7049967,55.6609701 91.5998535,55.854248 91.451416,56.0212402 C91.1916504,56.3088379 90.84375,56.4526367 90.4077148,56.4526367 C89.9407552,56.4526367 89.5959473,56.3003337 89.373291,55.9957275 C89.1506348,55.6911214 89.0315755,55.2867839 89.0161133,54.7827148 L89.0161133,54.7827148 L92.6574707,54.7827148 C92.6574707,54.2817383 92.6327311,53.9168294 92.583252,53.6879883 C92.5275879,53.3540039 92.4162598,53.0617676 92.2492676,52.8112793 C92.0760905,52.5484212 91.824056,52.3342692 91.4931641,52.1688232 C91.1622721,52.0033773 90.8205566,51.9206543 90.4680176,51.9206543 C89.7691243,51.9206543 89.2032064,52.1695964 88.7702637,52.6674805 C88.337321,53.1653646 88.1208496,53.8132324 88.1208496,54.611084 C88.1208496,55.4213053 88.3357747,56.0513916 88.765625,56.5013428 C89.1954753,56.9512939 89.7196452,57.1762695 90.3381348,57.1762695 Z M91.7993164,54.1193848 L89.0393066,54.1193848 C89.0547689,53.692627 89.1923828,53.340861 89.4521484,53.0640869 C89.7119141,52.7873128 90.0335286,52.6489258 90.4169922,52.6489258 C90.9519857,52.6489258 91.333903,52.8499349 91.5627441,53.2519531 C91.6864421,53.4684245 91.7652995,53.7575684 91.7993164,54.1193848 L91.7993164,54.1193848 Z M97.776709,57.1669922 C98.1601725,57.1669922 98.5111654,57.0850423 98.8296875,56.9211426 C99.1482096,56.7572428 99.392513,56.5639648 99.5625977,56.3413086 C99.5904297,56.5392253 99.6383626,56.6923014 99.7063965,56.8005371 C99.8362793,57.0046387 100.04502,57.1066895 100.332617,57.1066895 C100.45013,57.1066895 100.542904,57.1020508 100.610937,57.0927734 C100.678971,57.0834961 100.77793,57.0603027 100.907812,57.0231934 L100.907812,57.0231934 L100.907812,56.40625 C100.855241,56.4155273 100.805762,56.4224854 100.759375,56.427124 C100.712988,56.4317627 100.67124,56.434082 100.634131,56.434082 C100.51971,56.434082 100.444718,56.4077962 100.409155,56.3552246 C100.373592,56.302653 100.355811,56.2330729 100.355811,56.1464844 L100.355811,56.1464844 L100.355811,53.2844238 C100.355811,52.8143717 100.174902,52.4680176 99.8130859,52.2453613 C99.4481771,52.0227051 98.9734863,51.911377 98.3890137,51.911377 C97.8849447,51.911377 97.4419515,52.0312093 97.0600342,52.270874 C96.6781169,52.5105387 96.4794271,52.9365234 96.4639648,53.5488281 L96.4639648,53.5488281 L97.2432617,53.5488281 C97.2741862,53.2921549 97.3406738,53.098877 97.4427246,52.9689941 C97.625179,52.7339681 97.9344238,52.6164551 98.370459,52.6164551 C98.7477376,52.6164551 99.0376546,52.6806234 99.24021,52.80896 C99.4427653,52.9372965 99.544043,53.1437174 99.544043,53.4282227 C99.544043,53.5673828 99.5254883,53.6740723 99.4883789,53.748291 C99.4234375,53.8843587 99.2951009,53.9647624 99.1033691,53.989502 L99.1033691,53.989502 L97.7720703,54.1564941 C97.3051107,54.2152507 96.927832,54.3714193 96.6402344,54.625 C96.3526367,54.8785807 96.2088379,55.2357585 96.2088379,55.6965332 C96.2088379,56.1171061 96.3549561,56.4673258 96.6471924,56.7471924 C96.9394287,57.0270589 97.3159342,57.1669922 97.776709,57.1669922 Z M97.9715332,56.4572754 C97.7303223,56.4572754 97.521582,56.3876953 97.3453125,56.2485352 C97.169043,56.109375 97.0809082,55.9191895 97.0809082,55.6779785 C97.0809082,55.3594564 97.2092448,55.1275228 97.465918,54.9821777 C97.6174479,54.8955892 97.8447428,54.832194 98.1478027,54.7919922 L98.1478027,54.7919922 L98.653418,54.7270508 C98.8080404,54.7084961 98.9657552,54.6775716 99.1265625,54.6342773 C99.2873698,54.5909831 99.4187988,54.5368652 99.5208496,54.4719238 L99.5208496,54.4719238 L99.5208496,55.1445312 C99.5208496,55.6578776 99.288916,56.0274251 98.8250488,56.2531738 C98.549821,56.3892415 98.2653158,56.4572754 97.9715332,56.4572754 Z M102.952539,57.0788574 C103.073145,57.0788574 103.185246,57.0726725 103.288843,57.0603027 C103.39244,57.0479329 103.492171,57.027832 103.588037,57 L103.588037,57 L103.588037,56.3413086 C103.526188,56.3474935 103.47207,56.351359 103.425684,56.3529053 C103.379297,56.3544515 103.336003,56.3552246 103.295801,56.3552246 C103.144271,56.3552246 103.036035,56.3382161 102.971094,56.3041992 C102.853581,56.2454427 102.794824,56.1294759 102.794824,55.9562988 L102.794824,55.9562988 L102.794824,52.7138672 L103.588037,52.7138672 L103.588037,52.0319824 L102.794824,52.0319824 L102.794824,50.6450195 L101.950586,50.6450195 L101.950586,52.0319824 L101.277979,52.0319824 L101.277979,52.7138672 L101.950586,52.7138672 L101.950586,56.0026855 C101.950586,56.3212077 102.020166,56.5802002 102.159326,56.7796631 C102.298486,56.979126 102.562891,57.0788574 102.952539,57.0788574 Z M108.51709,57.1669922 C108.900553,57.1669922 109.251546,57.0850423 109.570068,56.9211426 C109.88859,56.7572428 110.132894,56.5639648 110.302979,56.3413086 C110.330811,56.5392253 110.378743,56.6923014 110.446777,56.8005371 C110.57666,57.0046387 110.7854,57.1066895 111.072998,57.1066895 C111.190511,57.1066895 111.283285,57.1020508 111.351318,57.0927734 C111.419352,57.0834961 111.518311,57.0603027 111.648193,57.0231934 L111.648193,57.0231934 L111.648193,56.40625 C111.595622,56.4155273 111.546143,56.4224854 111.499756,56.427124 C111.453369,56.4317627 111.411621,56.434082 111.374512,56.434082 C111.260091,56.434082 111.185099,56.4077962 111.149536,56.3552246 C111.113973,56.302653 111.096191,56.2330729 111.096191,56.1464844 L111.096191,56.1464844 L111.096191,53.2844238 C111.096191,52.8143717 110.915283,52.4680176 110.553467,52.2453613 C110.188558,52.0227051 109.713867,51.911377 109.129395,51.911377 C108.625326,51.911377 108.182332,52.0312093 107.800415,52.270874 C107.418498,52.5105387 107.219808,52.9365234 107.204346,53.5488281 L107.204346,53.5488281 L107.983643,53.5488281 C108.014567,53.2921549 108.081055,53.098877 108.183105,52.9689941 C108.36556,52.7339681 108.674805,52.6164551 109.11084,52.6164551 C109.488118,52.6164551 109.778035,52.6806234 109.980591,52.80896 C110.183146,52.9372965 110.284424,53.1437174 110.284424,53.4282227 C110.284424,53.5673828 110.265869,53.6740723 110.22876,53.748291 C110.163818,53.8843587 110.035482,53.9647624 109.84375,53.989502 L109.84375,53.989502 L108.512451,54.1564941 C108.045492,54.2152507 107.668213,54.3714193 107.380615,54.625 C107.093018,54.8785807 106.949219,55.2357585 106.949219,55.6965332 C106.949219,56.1171061 107.095337,56.4673258 107.387573,56.7471924 C107.67981,57.0270589 108.056315,57.1669922 108.51709,57.1669922 Z M108.711914,56.4572754 C108.470703,56.4572754 108.261963,56.3876953 108.085693,56.2485352 C107.909424,56.109375 107.821289,55.9191895 107.821289,55.6779785 C107.821289,55.3594564 107.949626,55.1275228 108.206299,54.9821777 C108.357829,54.8955892 108.585124,54.832194 108.888184,54.7919922 L108.888184,54.7919922 L109.393799,54.7270508 C109.548421,54.7084961 109.706136,54.6775716 109.866943,54.6342773 C110.027751,54.5909831 110.15918,54.5368652 110.26123,54.4719238 L110.26123,54.4719238 L110.26123,55.1445312 C110.26123,55.6578776 110.029297,56.0274251 109.56543,56.2531738 C109.290202,56.3892415 109.005697,56.4572754 108.711914,56.4572754 Z M118.103369,57.1809082 C118.728044,57.1809082 119.242936,57.0664876 119.648047,56.8376465 C119.889258,56.7046712 120.166032,56.4665527 120.478369,56.123291 L120.478369,56.123291 L120.701025,57 L121.294775,57 L121.294775,53.3540039 L118.302832,53.3540039 L118.302832,54.1193848 L120.436621,54.1193848 C120.427344,54.9172363 120.220923,55.494751 119.817358,55.8519287 C119.413794,56.2091064 118.904313,56.3876953 118.288916,56.3876953 C117.48488,56.3876953 116.905046,56.1333415 116.549414,55.6246338 C116.193783,55.1159261 116.015967,54.4564616 116.015967,53.6462402 C116.015967,52.7092285 116.231665,52.0041504 116.663062,51.5310059 C117.094458,51.0578613 117.625586,50.8212891 118.256445,50.8212891 C118.788346,50.8212891 119.22902,50.9349365 119.578467,51.1622314 C119.927913,51.3895264 120.158301,51.7521159 120.269629,52.25 L120.269629,52.25 L121.183447,52.25 C121.031917,51.359375 120.617529,50.7362467 119.940283,50.3806152 C119.473324,50.1332194 118.919775,50.0095215 118.279639,50.0095215 C117.345719,50.0095215 116.584977,50.3311361 115.997412,50.9743652 C115.378923,51.6485189 115.069678,52.5561523 115.069678,53.6972656 C115.069678,54.8414714 115.386654,55.7413737 116.020605,56.3969727 C116.601986,56.9195964 117.29624,57.1809082 118.103369,57.1809082 Z M123.529687,57 L123.529687,50.185791 L122.694727,50.185791 L122.694727,57 L123.529687,57 Z M126.177441,57.1669922 C126.560905,57.1669922 126.911898,57.0850423 127.23042,56.9211426 C127.548942,56.7572428 127.793245,56.5639648 127.96333,56.3413086 C127.991162,56.5392253 128.039095,56.6923014 128.107129,56.8005371 C128.237012,57.0046387 128.445752,57.1066895 128.73335,57.1066895 C128.850863,57.1066895 128.943636,57.1020508 129.01167,57.0927734 C129.079704,57.0834961 129.178662,57.0603027 129.308545,57.0231934 L129.308545,57.0231934 L129.308545,56.40625 C129.255973,56.4155273 129.206494,56.4224854 129.160107,56.427124 C129.113721,56.4317627 129.071973,56.434082 129.034863,56.434082 C128.920443,56.434082 128.845451,56.4077962 128.809888,56.3552246 C128.774325,56.302653 128.756543,56.2330729 128.756543,56.1464844 L128.756543,56.1464844 L128.756543,53.2844238 C128.756543,52.8143717 128.575635,52.4680176 128.213818,52.2453613 C127.84891,52.0227051 127.374219,51.911377 126.789746,51.911377 C126.285677,51.911377 125.842684,52.0312093 125.460767,52.270874 C125.078849,52.5105387 124.88016,52.9365234 124.864697,53.5488281 L124.864697,53.5488281 L125.643994,53.5488281 C125.674919,53.2921549 125.741406,53.098877 125.843457,52.9689941 C126.025911,52.7339681 126.335156,52.6164551 126.771191,52.6164551 C127.14847,52.6164551 127.438387,52.6806234 127.640942,52.80896 C127.843498,52.9372965 127.944775,53.1437174 127.944775,53.4282227 C127.944775,53.5673828 127.926221,53.6740723 127.889111,53.748291 C127.82417,53.8843587 127.695833,53.9647624 127.504102,53.989502 L127.504102,53.989502 L126.172803,54.1564941 C125.705843,54.2152507 125.328564,54.3714193 125.040967,54.625 C124.753369,54.8785807 124.60957,55.2357585 124.60957,55.6965332 C124.60957,56.1171061 124.755688,56.4673258 125.047925,56.7471924 C125.340161,57.0270589 125.716667,57.1669922 126.177441,57.1669922 Z M126.372266,56.4572754 C126.131055,56.4572754 125.922314,56.3876953 125.746045,56.2485352 C125.569775,56.109375 125.481641,55.9191895 125.481641,55.6779785 C125.481641,55.3594564 125.609977,55.1275228 125.86665,54.9821777 C126.01818,54.8955892 126.245475,54.832194 126.548535,54.7919922 L126.548535,54.7919922 L127.05415,54.7270508 C127.208773,54.7084961 127.366488,54.6775716 127.527295,54.6342773 C127.688102,54.5909831 127.819531,54.5368652 127.921582,54.4719238 L127.921582,54.4719238 L127.921582,55.1445312 C127.921582,55.6578776 127.689648,56.0274251 127.225781,56.2531738 C126.950553,56.3892415 126.666048,56.4572754 126.372266,56.4572754 Z M131.019287,57 L131.019287,54.3977051 C131.019287,54.072998 131.040161,53.8232829 131.081909,53.6485596 C131.123657,53.4738363 131.214111,53.3045247 131.353271,53.140625 C131.526449,52.9365234 131.727458,52.8004557 131.956299,52.7324219 C132.083089,52.6922201 132.245443,52.6721191 132.443359,52.6721191 C132.833008,52.6721191 133.102051,52.8267415 133.250488,53.1359863 C133.340169,53.3215332 133.38501,53.5658366 133.38501,53.8688965 L133.38501,53.8688965 L133.38501,57 L134.233887,57 L134.233887,53.8132324 C134.233887,53.3122559 134.165853,52.9272461 134.029785,52.6582031 C133.782389,52.1665039 133.306152,51.9206543 132.601074,51.9206543 C132.27946,51.9206543 131.987223,51.9840495 131.724365,52.1108398 C131.461507,52.2376302 131.212565,52.4463704 130.977539,52.7370605 L130.977539,52.7370605 L130.977539,52.0319824 L130.184326,52.0319824 L130.184326,57 L131.019287,57 Z M137.322314,57.1437988 C137.900602,57.1437988 138.375293,56.9914958 138.746387,56.6868896 C139.11748,56.3822835 139.349414,55.9006348 139.442187,55.2419434 L139.442187,55.2419434 L138.63042,55.2419434 C138.553109,55.6099447 138.413175,55.8998617 138.21062,56.1116943 C138.008065,56.323527 137.73361,56.4294434 137.387256,56.4294434 C136.935758,56.4294434 136.604867,56.2593587 136.39458,55.9191895 C136.184294,55.5790202 136.07915,55.1599935 136.07915,54.6621094 C136.07915,54.1673177 136.153369,53.7513835 136.301807,53.4143066 C136.530648,52.8947754 136.911019,52.6350098 137.44292,52.6350098 C137.832568,52.6350098 138.115527,52.7362874 138.291797,52.9388428 C138.468066,53.1413981 138.580941,53.395752 138.63042,53.7019043 L138.63042,53.7019043 L139.442187,53.7019043 C139.371061,53.037028 139.160002,52.5685221 138.809009,52.2963867 C138.458016,52.0242513 138.002653,51.8881836 137.44292,51.8881836 C136.787321,51.8881836 136.247689,52.1309408 135.824023,52.6164551 C135.400358,53.1019694 135.188525,53.7807617 135.188525,54.652832 C135.188525,55.3640951 135.381803,55.9570719 135.768359,56.4317627 C136.154915,56.9064535 136.6729,57.1437988 137.322314,57.1437988 Z M142.275488,57.1762695 C142.529069,57.1762695 142.756364,57.1515299 142.957373,57.1020508 C143.331559,57.0154622 143.645443,56.8484701 143.899023,56.6010742 C144.050553,56.4588216 144.187394,56.2755941 144.309546,56.0513916 C144.431698,55.8271891 144.503597,55.6238607 144.525244,55.4414062 L144.525244,55.4414062 L143.704199,55.4414062 C143.64235,55.6609701 143.537207,55.854248 143.38877,56.0212402 C143.129004,56.3088379 142.781104,56.4526367 142.345068,56.4526367 C141.878109,56.4526367 141.533301,56.3003337 141.310645,55.9957275 C141.087988,55.6911214 140.968929,55.2867839 140.953467,54.7827148 L140.953467,54.7827148 L144.594824,54.7827148 C144.594824,54.2817383 144.570085,53.9168294 144.520605,53.6879883 C144.464941,53.3540039 144.353613,53.0617676 144.186621,52.8112793 C144.013444,52.5484212 143.76141,52.3342692 143.430518,52.1688232 C143.099626,52.0033773 142.75791,51.9206543 142.405371,51.9206543 C141.706478,51.9206543 141.14056,52.1695964 140.707617,52.6674805 C140.274674,53.1653646 140.058203,53.8132324 140.058203,54.611084 C140.058203,55.4213053 140.273128,56.0513916 140.702979,56.5013428 C141.132829,56.9512939 141.656999,57.1762695 142.275488,57.1762695 Z M143.73667,54.1193848 L140.97666,54.1193848 C140.992122,53.692627 141.129736,53.340861 141.389502,53.0640869 C141.649268,52.7873128 141.970882,52.6489258 142.354346,52.6489258 C142.889339,52.6489258 143.271257,52.8499349 143.500098,53.2519531 C143.623796,53.4684245 143.702653,53.7575684 143.73667,54.1193848 L143.73667,54.1193848 Z" opacity=".75"/>
  </g>
</svg>
