<?xml version="1.0" encoding="UTF-8"?>
<svg width="372px" height="260px" viewBox="0 0 372 260" version="1.1" xmlns="http://www.w3.org/2000/svg" xmlns:xlink="http://www.w3.org/1999/xlink">
    <title>C09A3749-89DC-4D19-90A8-85907EF399A7</title>
    <defs>
        <polygon id="path-1" points="0.096946411 0.649 35.7613299 0.649 35.7613299 68.155076 0.096946411 68.155076"></polygon>
    </defs>
    <g id="Design" stroke="none" stroke-width="1" fill="none" fill-rule="evenodd">
        <g id="Maintenance" transform="translate(-535.000000, -238.000000)">
            <g id="Group-381" transform="translate(535.000000, 238.000000)">
                <path d="M16.0803,258.624246 C15.9503,258.319246 -24.0007,209.354246 26.3053,158.159246 C51.2313,132.794246 9.40851706,107.140395 26.3053,71.715246 C51.4128766,19.0756607 104.3113,50.602246 136.6313,37.009246 C142.3413,34.610246 148.0723,30.747246 153.8083,24.821246 C157.0373,21.489246 160.5763,18.573246 164.3643,16.057246 C164.9453,15.670246 165.5323,15.292246 166.1243,14.924246 C168.3933,13.517246 170.7453,12.245246 173.1673,11.101246 C174.7953,10.334246 176.4523,9.62424596 178.1423,8.97224596 C180.8233,7.93624596 183.5753,7.04324596 186.3873,6.28824596 C190.3793,5.21524596 194.4893,4.41724596 198.6823,3.87624596 C200.5113,3.63824596 202.3533,3.45324596 204.2113,3.31224596 C240.3243,0.597245957 280.9653,15.868246 301.9383,38.187246 C306.1603,42.682246 325.3613,65.937246 310.2263,97.901246 C300.6703,118.081246 340.7033,137.356246 354.9303,160.401246 C391.0983,218.991246 355.4933,258.580246 355.1653,259.344246 C331.8113,259.344246 16.0803,258.662246 16.0803,258.624246 Z" id="Fill-1" fill="#E6C533"></path>
                <path d="M149.4309,147.3645 L140.5689,252.7385 C140.5689,252.7385 139.6399,259.1265 144.3909,259.1375 C152.2029,259.1565 183.2739,259.1375 183.2739,259.1375 C183.2739,259.1375 177.3949,257.8075 177.4659,254.8165 C177.5499,251.2905 187.8249,146.3675 187.8249,146.3675 L149.4309,147.3645 Z" id="Fill-3" fill="#B96832"></path>
                <path d="M185.7951,257.2258 C184.2591,257.2308 154.5821,257.3238 146.9741,257.2258 C143.6591,257.1848 143.0771,254.2788 143.0501,252.3968 C143.0361,251.4958 143.1501,250.8288 143.1501,250.8288 L143.3811,248.0888 L143.9681,241.1088 L144.4871,234.9418 L145.1541,227.0168 L145.7151,220.3278 L152.0131,145.4518 L190.4061,144.4548 C190.4061,144.4548 186.0791,188.3648 183.0181,220.3278 C182.6761,223.8888 182.3521,227.3038 182.0511,230.4908 C181.9531,231.5078 181.8601,232.5028 181.7691,233.4718 C181.4851,236.4968 181.2261,239.2738 181.0001,241.7248 C180.8811,243.0178 180.7711,244.2178 180.6711,245.3188 C180.2811,249.6288 180.0521,252.3808 180.0491,252.9048 C180.0471,253.2098 180.0731,253.4948 180.1241,253.7578 C180.7541,257.1168 185.2191,257.2258 185.7951,257.2258" id="Fill-5" fill="#F1A051"></path>
                <polygon id="Fill-7" fill="#E18F3D" points="56.1897 90.0237 77.7757 176.7337 80.7317 188.6097 90.7867 228.9957 277.5767 228.9957 240.5177 90.0237"></polygon>
                <polygon id="Fill-9" fill="#F1A051" points="56.1897 90.0237 53.1977 91.0197 86.8087 232.0117 90.7867 228.9977"></polygon>
                <polygon id="Fill-11" fill="#B96832" points="86.8083 232.0119 272.4493 232.0119 277.5743 228.9969 90.7873 228.9969"></polygon>
                <polygon id="Fill-13" fill="#F1A051" points="152.001 259.179 192.195 259.179 192.195 257.268 152.001 257.268"></polygon>
                <polygon id="Fill-15" fill="#E5A55E" points="268.5266 203.3879 238.2176 91.8609 55.8916 91.8609 55.8916 90.0239 240.5176 90.0239 270.7246 203.1399"></polygon>
                <polygon id="Fill-17" fill="#B96832" points="181.9768 232.0119 181.7688 233.4729 143.9688 241.1099 144.4868 234.9419 144.7348 232.0119"></polygon>
                <path d="M185.7951,257.2258 C184.2591,257.2308 154.5821,257.3238 146.9741,257.2258 C143.6591,257.1848 143.0771,254.2788 143.0501,252.3968 L180.6711,245.3188 C180.2811,249.6288 180.0521,252.3808 180.0491,252.9048 C180.0471,253.2098 180.0731,253.4948 180.1241,253.7578 C180.7541,257.1168 185.2191,257.2258 185.7951,257.2258" id="Fill-19" fill="#E18F3D"></path>
                <polygon id="Fill-21" fill="#4277CE" points="56.1897 90.0237 240.5177 90.0237 270.4247 201.7137 83.0457 201.7137"></polygon>
                <path d="M189.133,215.8332 C188.601,213.0942 185.948,210.8732 183.209,210.8732 C180.47,210.8732 178.681,213.0942 179.214,215.8332 C179.746,218.5722 182.398,220.7922 185.137,220.7922 C187.876,220.7922 189.665,218.5722 189.133,215.8332" id="Fill-23" fill="#B96832"></path>
                <polygon id="Fill-25" fill="#EAF2FC" points="261.7326 196.8733 89.1456 196.8733 69.5996 119.0123 68.1016 113.0423 66.8236 107.9483 65.7996 103.8713 63.8246 96.0063 233.9246 96.0063 234.0446 96.4383 236.0916 103.8713 237.2146 107.9483 238.6206 113.0423 240.2676 119.0123"></polygon>
                <polygon id="Fill-27" fill="#EAF2FC" points="261.7326 197.1399 89.1456 197.1399 69.5996 119.2789 68.1016 113.3089 66.8236 108.2149 65.7996 104.1369 63.8246 96.2729 233.9246 96.2729 234.0446 96.7049 236.0916 104.1369 237.2146 108.2149 238.6206 113.3089 240.2676 119.2789"></polygon>
                <polygon id="Fill-29" fill="#B3CCF6" points="236.092 103.8713 65.8 103.8713 63.824 96.0063 233.86 96.0063 234.044 96.4383"></polygon>
                <path d="M78.8581,99.9387 C78.6521,99.1147 79.1541,98.4457 79.9791,98.4457 C80.8031,98.4457 81.6381,99.1147 81.8441,99.9387 C82.0491,100.7627 81.5471,101.4317 80.7231,101.4317 C79.8991,101.4317 79.0641,100.7627 78.8581,99.9387 M73.5171,99.9387 C73.3121,99.1147 73.8131,98.4457 74.6371,98.4457 C75.4621,98.4457 76.2971,99.1147 76.5031,99.9387 C76.7081,100.7627 76.2071,101.4317 75.3821,101.4317 C74.5571,101.4317 73.7221,100.7627 73.5171,99.9387 M68.5571,99.9387 C68.3511,99.1147 68.8531,98.4457 69.6771,98.4457 C70.5021,98.4457 71.3371,99.1147 71.5431,99.9387 C71.7481,100.7627 71.2461,101.4317 70.4221,101.4317 C69.5971,101.4317 68.7621,100.7627 68.5571,99.9387" id="Fill-31" fill="#EAF2FC"></path>
                <polygon id="Fill-33" fill="#FFFFFF" points="238.3098 135.1887 220.3848 135.2537 214.5718 113.0017 232.4978 112.9357"></polygon>
                <polygon id="Fill-35" fill="#B1CAF4" points="228.05 115.8596 220.535 115.8866 220.448 115.5586 227.965 115.5296"></polygon>
                <polygon id="Fill-37" fill="#B1CAF4" points="229.2512 116.7746 219.8142 116.8086 219.7292 116.4796 229.1652 116.4446"></polygon>
                <polygon id="Fill-39" fill="#B1CAF4" points="231.8449 121.303 219.5889 121.349 219.5029 121.02 231.7589 120.974"></polygon>
                <polygon id="Fill-41" fill="#B1CAF4" points="232.1281 122.3879 219.8721 122.4339 219.7861 122.1049 232.0431 122.0589"></polygon>
                <polygon id="Fill-43" fill="#B1CAF4" points="232.4133 123.4729 220.1553 123.5179 220.0693 123.1899 232.3263 123.1439"></polygon>
                <polygon id="Fill-45" fill="#B1CAF4" points="232.6965 124.5588 220.4385 124.6028 220.3535 124.2738 232.6095 124.2288"></polygon>
                <polygon id="Fill-47" fill="#B1CAF4" points="232.9797 125.6438 220.7217 125.6888 220.6367 125.3588 232.8937 125.3138"></polygon>
                <polygon id="Fill-49" fill="#B1CAF4" points="233.6692 128.2834 221.4112 128.3284 221.3262 127.9994 233.5832 127.9544"></polygon>
                <polygon id="Fill-51" fill="#B1CAF4" points="233.9524 129.3694 221.6954 129.4134 221.6094 129.0844 233.8664 129.0394"></polygon>
                <polygon id="Fill-53" fill="#B1CAF4" points="234.2356 130.4543 221.9786 130.4993 221.8926 130.1693 234.1506 130.1253"></polygon>
                <polygon id="Fill-55" fill="#B1CAF4" points="234.5188 131.5383 222.2628 131.5843 222.1758 131.2553 234.4338 131.2103"></polygon>
                <polygon id="Fill-57" fill="#B1CAF4" points="234.802 132.6233 222.546 132.6693 222.459 132.3403 234.717 132.2943"></polygon>
                <polygon id="Fill-59" fill="#FFFFFF" points="245.5324 162.8411 227.6064 162.9071 221.7944 140.6541 239.7194 140.5871"></polygon>
                <polygon id="Fill-61" fill="#B1CAF4" points="235.2737 143.511 227.7567 143.539 227.6717 143.21 235.1877 143.183"></polygon>
                <polygon id="Fill-63" fill="#B1CAF4" points="236.4748 144.426 227.0368 144.461 226.9518 144.132 236.3868 144.097"></polygon>
                <polygon id="Fill-65" fill="#B1CAF4" points="239.0686 148.9563 226.8126 149.0003 226.7246 148.6713 238.9826 148.6263"></polygon>
                <polygon id="Fill-67" fill="#B1CAF4" points="239.3518 150.0412 227.0958 150.0862 227.0078 149.7562 239.2658 149.7102"></polygon>
                <polygon id="Fill-69" fill="#B1CAF4" points="239.635 151.1252 227.379 151.1712 227.293 150.8412 239.549 150.7972"></polygon>
                <polygon id="Fill-71" fill="#B1CAF4" points="239.9182 152.2102 227.6622 152.2562 227.5762 151.9272 239.8322 151.8812"></polygon>
                <polygon id="Fill-73" fill="#B1CAF4" points="240.2024 153.2952 227.9454 153.3412 227.8594 153.0122 240.1154 152.9662"></polygon>
                <polygon id="Fill-75" fill="#B1CAF4" points="240.8928 155.9358 228.6348 155.9818 228.5488 155.6518 240.8048 155.6068"></polygon>
                <polygon id="Fill-77" fill="#B1CAF4" points="241.176 157.0207 228.918 157.0667 228.832 156.7377 241.09 156.6917"></polygon>
                <polygon id="Fill-79" fill="#B1CAF4" points="241.4592 158.1057 229.2012 158.1517 229.1152 157.8227 241.3732 157.7767"></polygon>
                <polygon id="Fill-81" fill="#B1CAF4" points="241.7424 159.1907 229.4844 159.2357 229.3994 158.9077 241.6564 158.8617"></polygon>
                <polygon id="Fill-83" fill="#B1CAF4" points="242.0256 160.2766 229.7676 160.3206 229.6826 159.9916 241.9396 159.9466"></polygon>
                <polygon id="Fill-85" fill="#FFFFFF" points="252.8039 190.6799 234.8779 190.7459 229.0669 168.4929 246.9909 168.4259"></polygon>
                <polygon id="Fill-87" fill="#B1CAF4" points="242.5451 171.3498 235.0291 171.3768 234.9431 171.0478 242.4591 171.0208"></polygon>
                <polygon id="Fill-89" fill="#B1CAF4" points="243.7463 172.2649 234.3083 172.2999 234.2243 171.9699 243.6593 171.9359"></polygon>
                <polygon id="Fill-91" fill="#B1CAF4" points="246.3401 176.7942 234.0841 176.8382 233.9961 176.5102 246.2541 176.4642"></polygon>
                <polygon id="Fill-93" fill="#B1CAF4" points="246.6233 177.8791 234.3673 177.9231 234.2803 177.5951 246.5373 177.5491"></polygon>
                <polygon id="Fill-95" fill="#B1CAF4" points="246.9065 178.9641 234.6505 179.0101 234.5645 178.6791 246.8205 178.6351"></polygon>
                <polygon id="Fill-97" fill="#B1CAF4" points="247.1897 180.0491 234.9337 180.0941 234.8477 179.7661 247.1037 179.7201"></polygon>
                <polygon id="Fill-99" fill="#B1CAF4" points="247.4748 181.133 235.2168 181.179 235.1308 180.85 247.3868 180.805"></polygon>
                <polygon id="Fill-101" fill="#B1CAF4" points="248.1643 183.7746 235.9063 183.8196 235.8203 183.4896 248.0763 183.4456"></polygon>
                <polygon id="Fill-103" fill="#B1CAF4" points="248.4475 184.8596 236.1895 184.9046 236.1035 184.5756 248.3605 184.5306"></polygon>
                <polygon id="Fill-105" fill="#B1CAF4" points="248.7307 185.9436 236.4727 185.9896 236.3867 185.6606 248.6447 185.6156"></polygon>
                <polygon id="Fill-107" fill="#B1CAF4" points="249.0139 187.0305 236.7559 187.0745 236.6709 186.7455 248.9279 186.6995"></polygon>
                <polygon id="Fill-109" fill="#B1CAF4" points="249.2971 188.1145 237.0391 188.1595 236.9541 187.8305 249.2111 187.7845"></polygon>
                <polygon id="Fill-111" fill="#FFFFFF" points="229.2346 190.8674 166.5426 191.0974 148.4986 122.0214 156.6656 113.2264 208.9046 113.0354"></polygon>
                <polygon id="Fill-113" fill="#B1CAF4" points="191.635 124.7082 169.54 124.7892 169.287 123.8222 191.382 123.7402"></polygon>
                <polygon id="Fill-115" fill="#B1CAF4" points="195.1623 127.3967 167.4223 127.4997 167.1693 126.5327 194.9093 126.4297"></polygon>
                <polygon id="Fill-117" fill="#B1CAF4" points="202.7912 140.7121 166.7582 140.8441 166.5062 139.8751 202.5382 139.7431"></polygon>
                <polygon id="Fill-119" fill="#B1CAF4" points="203.6242 143.9016 167.5912 144.0336 167.3392 143.0666 203.3712 142.9326"></polygon>
                <polygon id="Fill-121" fill="#B1CAF4" points="204.4572 147.0901 168.4242 147.2231 168.1712 146.2561 204.2032 146.1221"></polygon>
                <polygon id="Fill-123" fill="#B1CAF4" points="205.2893 150.2795 169.2573 150.4125 169.0043 149.4455 205.0363 149.3125"></polygon>
                <polygon id="Fill-125" fill="#B1CAF4" points="206.1223 153.469 170.0913 153.604 169.8383 152.635 205.8693 152.502"></polygon>
                <polygon id="Fill-127" fill="#B1CAF4" points="208.1496 161.2317 172.1186 161.3657 171.8656 160.3967 207.8986 160.2637"></polygon>
                <polygon id="Fill-129" fill="#B1CAF4" points="208.9826 164.4221 172.9516 164.5551 172.6986 163.5861 208.7296 163.4531"></polygon>
                <polygon id="Fill-131" fill="#B1CAF4" points="209.8166 167.6116 173.7846 167.7446 173.5316 166.7766 209.5636 166.6426"></polygon>
                <polygon id="Fill-133" fill="#B1CAF4" points="210.6496 170.801 174.6176 170.934 174.3646 169.966 210.3966 169.832"></polygon>
                <polygon id="Fill-135" fill="#B1CAF4" points="211.4826 173.9905 175.4516 174.1245 175.1986 173.1555 211.2296 173.0235"></polygon>
                <polygon id="Fill-137" fill="#B1CAF4" points="148.4987 122.0217 158.9527 121.9827 156.6657 113.2267"></polygon>
                <path d="M296.9406,148.8967 C296.9406,148.8967 297.3396,144.9247 295.2626,145.0607 C293.1856,145.1977 292.6356,146.1497 292.8686,146.9137 C293.0996,147.6767 295.1206,150.2017 295.1206,150.2017 L296.9406,148.8967 Z" id="Fill-139" fill="#FFB27D"></path>
                <path d="M329.3069,156.8567 C329.3069,156.8567 327.0069,159.5577 322.0619,162.6757 C321.5939,162.9717 321.1039,163.2707 320.5869,163.5707 C318.6669,164.6887 316.4139,165.8357 313.8129,166.9037 C313.5269,167.0217 313.1899,167.1507 312.8129,167.2867 C309.8489,168.3567 304.3969,169.8747 301.0179,170.0097 C300.7239,170.0217 300.4449,170.0217 300.1859,170.0117 C295.0429,169.8037 294.4159,149.8437 294.4159,149.8437 C294.4159,149.8437 294.9889,147.8467 297.6299,148.3497 C297.6299,148.3497 301.6429,159.6227 303.0809,160.5417 C304.3589,161.3577 311.6999,150.2297 318.0189,149.4517 C322.2729,148.9267 329.3069,156.8567 329.3069,156.8567" id="Fill-141" fill="#FFFFFF"></path>
                <path d="M315.4904,254.1916 C315.4904,254.1916 315.8704,258.5856 314.9414,259.0436 L303.0544,259.0186 C303.0544,259.0186 303.0544,257.6466 304.9644,257.3416 C306.8734,257.0376 310.2274,255.9196 310.7954,253.4296 C311.3624,250.9396 315.4904,254.1916 315.4904,254.1916" id="Fill-143" fill="#000000"></path>
                <path d="M306.7639,201.0119 C306.8229,203.8859 306.9599,206.8489 307.2309,209.5129 C308.5149,222.1509 308.9659,237.4209 309.1509,240.3659 C309.4699,245.4759 310.4799,253.6399 310.4799,253.6399 C310.4799,253.6399 312.4829,255.5409 316.3859,254.6339 C316.3859,254.6339 319.6189,242.8749 320.3419,230.4919 C320.3539,230.2889 320.3649,230.0849 320.3749,229.8809 C320.4579,228.2439 320.5459,226.3719 320.6359,224.3539 C321.2309,210.8339 321.8759,190.7509 321.8759,190.7509 L306.9599,187.2489 C306.9599,187.2489 306.6179,193.8499 306.7639,201.0119" id="Fill-145" fill="#3F4D94"></path>
                <path d="M306.7639,201.0119 C310.5439,207.5339 317.7489,219.5499 320.6359,224.3539 C321.2309,210.8339 321.8759,190.7509 321.8759,190.7509 L306.9599,187.2489 C306.9599,187.2489 306.6179,193.8499 306.7639,201.0119" id="Fill-147" fill="#233862"></path>
                <path d="M312.8127,167.2864 C309.8487,168.3564 304.3967,169.8744 301.0177,170.0104 C301.5347,169.9134 305.2967,169.1674 306.6887,167.4874 C308.1827,165.6824 310.6987,160.7774 312.7007,162.7784 C313.6427,163.7214 313.3667,165.5834 312.8127,167.2864" id="Fill-149" fill="#F0F4FF"></path>
                <path d="M337.8762,198.8879 C337.8762,198.8879 338.8022,202.5189 338.6492,203.3249 C338.4982,204.1319 337.5942,206.8649 337.0302,207.5419 C336.4672,208.2199 336.4432,204.5959 336.0692,204.0269 C335.6942,203.4569 335.8972,205.3789 335.5972,205.5359 C335.2972,205.6949 334.7962,204.0799 334.5722,203.5079 C334.3502,202.9359 335.3742,200.9449 335.4682,199.5169 C335.5632,198.0889 337.8762,198.8879 337.8762,198.8879" id="Fill-151" fill="#FFB27D"></path>
                <path d="M345.1008,249.1985 C345.1008,249.1985 347.2158,251.1295 346.8038,252.5005 C346.3908,253.8725 344.4818,254.7875 344.2238,256.4635 C343.9658,258.1395 342.9338,259.0545 342.0048,259.0545 L337.5768,259.0545 C337.5768,259.0545 336.8928,257.8755 338.5438,257.5195 C340.1958,257.1635 340.8178,255.1935 340.7148,253.3645 C340.6118,251.5355 340.8698,249.0965 340.8698,249.0965 L344.3778,248.2835 L345.1008,249.1985 Z" id="Fill-153" fill="#000000"></path>
                <path d="M309.3108,191.0569 C309.3108,191.0569 323.2738,220.9329 330.7048,234.0409 C338.1348,247.1499 340.4568,250.8079 340.4568,250.8079 C340.4568,250.8079 344.7138,249.1309 345.1008,247.9879 C345.1008,247.9879 342.2588,222.6809 337.2838,216.5119 C334.4718,213.0269 331.1688,202.5659 331.0138,198.9079 C330.8598,195.2489 327.5968,186.5179 327.5968,186.5179 L309.3108,191.0569 Z" id="Fill-155" fill="#3F4D94"></path>
                <path d="M306.7092,189.5032 C306.7092,189.5032 311.2562,194.3962 318.9812,195.8732 C322.3722,196.5232 329.2552,197.1492 330.9622,194.7352 C331.3632,194.1692 331.3662,193.3292 331.2772,192.0202 C331.0482,188.6142 330.1912,182.0302 334.0592,168.8002 C334.4182,167.5692 334.6612,166.3892 334.8022,165.2642 C335.6462,158.4952 335.5552,153.3862 329.6822,150.6562 C320.8832,146.5652 317.2722,149.9312 317.2722,149.9312 C317.2722,149.9312 312.5922,152.1182 310.4532,158.4912 C306.1782,171.2382 306.7092,189.5032 306.7092,189.5032" id="Fill-157" fill="#FFFFFF"></path>
                <path d="M324.3996,149.5325 C322.9186,150.5845 320.3126,151.2055 317.8276,149.9635 C317.6356,149.8675 317.6606,148.5535 317.7076,147.2615 C317.7546,145.9955 317.8756,144.7525 317.8756,144.7525 L321.0056,142.6975 L323.9936,140.7365 C323.6346,147.4765 325.0686,149.0535 324.3996,149.5325" id="Fill-159" fill="#FFB27D"></path>
                <path d="M323.468,143.5198 C323.468,143.5198 321.436,146.5688 317.707,147.2618 C317.755,145.9958 317.891,144.5998 317.891,144.5998 L321.006,142.6978 L323.468,143.5198 Z" id="Fill-161" fill="#ED985F"></path>
                <path d="M315.0705,143.9602 C315.0705,143.9602 322.6455,146.7862 324.3315,142.1192 C326.0165,137.4522 328.1295,134.6752 323.3645,132.6722 C318.5985,130.6702 317.0105,132.1142 316.0635,133.5352 C315.1155,134.9562 313.1435,143.1052 315.0705,143.9602" id="Fill-163" fill="#FFB27D"></path>
                <path d="M329.049,133.1965 C329.137,133.1295 329.314,133.0955 329.682,133.1485 C329.682,133.1485 329.427,132.9085 329.038,132.8215 C329.063,132.2995 328.97,131.3485 328.14,130.9585 C328.14,130.9585 328.56,131.3005 328.515,131.8515 C327.709,130.6135 325.692,129.4295 319.6,128.7185 C311.57,127.7805 313.176,133.3575 314.08,134.1635 C314.985,134.9685 317.888,133.8235 319.765,134.3515 C321.642,134.8795 321.46,137.7065 322.032,138.2125 C322.605,138.7175 322.483,137.9995 323.436,137.7765 C324.389,137.5535 324.186,139.0205 323.747,139.9145 C323.308,140.8065 324.265,142.2885 324.265,142.2885 L325.738,141.2195 C327.212,140.1505 329.453,134.8335 329.134,133.5425 C329.106,133.4275 329.078,133.3125 329.049,133.1965" id="Fill-165" fill="#2C3A64"></path>
                <path d="M331.2776,192.0198 C331.0486,188.6148 330.1916,182.0308 334.0586,168.7998 C334.4186,167.5698 334.6616,166.3888 334.8016,165.2638 L334.8006,165.2638 C331.9276,164.3158 326.6926,166.4238 326.6926,166.4238 C326.6926,166.4238 325.4626,183.9128 331.2776,192.0198" id="Fill-167" fill="#F0F4FF"></path>
                <path d="M331.2668,151.5412 C331.2668,151.5412 334.8018,152.8262 337.0568,162.1872 C338.5468,168.3722 341.2898,177.4632 341.5998,180.3192 C341.9088,183.1762 338.4638,199.9012 338.4638,199.9012 C338.4638,199.9012 337.9778,200.2562 336.7878,200.0182 C335.6478,199.7902 335.1178,199.0192 335.1178,199.0192 C335.1178,199.0192 334.2928,187.8722 334.5058,182.6082 C334.5948,180.4222 324.3828,166.5932 318.8708,164.8122 C316.7068,164.1122 331.2668,151.5412 331.2668,151.5412" id="Fill-169" fill="#FFFFFF"></path>
                <path d="M281.8137,139.4231 C281.8137,139.4231 292.0327,139.1331 303.8247,141.3041 L305.0567,138.1991 L306.4077,134.7981 C306.4077,134.7981 294.5697,129.7011 287.4527,122.6041 L281.8137,139.4231 Z" id="Fill-171" fill="#AEC3FF"></path>
                <path d="M287.6145,122.4387 L281.7475,139.7577 C280.8895,139.5037 280.4205,138.5827 280.7195,137.7397 L285.8835,123.1877 C286.1335,122.4827 286.9295,122.1377 287.6145,122.4387" id="Fill-173" fill="#F99746"></path>
                <path d="M293.2151,152.3137 L293.2151,152.3137 C294.3561,152.5427 295.4761,151.7947 295.7041,150.6547 L297.7241,140.5457 C297.9521,139.4057 297.2051,138.2867 296.0651,138.0577 C294.9241,137.8307 293.8041,138.5767 293.5751,139.7177 L291.5561,149.8257 C291.3271,150.9657 292.0741,152.0857 293.2151,152.3137" id="Fill-175" fill="#F99746"></path>
                <path d="M281.8137,139.4231 C281.8137,139.4231 292.0327,139.1331 303.8247,141.3041 L305.0567,138.1991 C293.9767,135.9371 281.8137,139.4231 281.8137,139.4231" id="Fill-177" fill="#739AF0"></path>
                <path d="M300.5647,140.6789 L303.7567,141.2409 C303.7087,141.2429 306.7237,141.8269 307.7117,139.1559 C307.8017,138.9729 307.8607,138.7919 307.9017,138.5789 C308.6687,135.2479 306.8407,134.6349 306.8407,134.6349 L302.7317,133.0329 L301.4247,137.6549 L301.4257,137.6699 L300.5647,140.6789 Z" id="Fill-179" fill="#F99746"></path>
                <path d="M300.5647,140.6789 L303.7567,141.2409 C303.7087,141.2429 306.7237,141.8269 307.7117,139.1559 C305.9057,137.8419 301.4247,137.6549 301.4247,137.6549 L301.4257,137.6699 L300.5647,140.6789 Z" id="Fill-181" fill="#ED7D2B"></path>
                <path d="M293.4875,142.5256 C293.4875,142.5256 295.0495,143.1486 294.7635,143.8366 C294.4775,144.5246 292.4905,145.4696 292.1765,144.9266 C291.8645,144.3846 292.5055,141.9456 293.4875,142.5256" id="Fill-183" fill="#FFB27D"></path>
                <path d="M296.9709,148.2717 C296.9709,148.2717 297.2659,146.6727 297.2839,145.9387 C297.3019,145.2057 297.3889,144.6057 297.2159,144.5837 C297.0429,144.5637 296.9169,144.6997 296.8469,144.9347 C296.7769,145.1707 296.5059,146.6347 296.5059,146.6347 L296.6429,148.0477 L296.9709,148.2717 Z" id="Fill-185" fill="#FFB27D"></path>
                <g id="Group-189" transform="translate(176.000000, 0.351000)">
                    <mask id="mask-2" fill="white">
                        <use xlink:href="#path-1"></use>
                    </mask>
                    <g id="Clip-188"></g>
                    <path d="M10.1731,67.6971 C17.1391,59.5181 27.8801,43.0901 35.1121,34.6761 C36.6011,32.9441 35.3631,30.2711 33.0801,30.2711 L19.9201,30.2711 L32.3331,2.2031 C32.8631,1.0051 31.2301,0.0501 30.4451,1.1001 L0.4321,41.2711 C-0.4439,42.4431 0.5131,44.0931 1.9651,43.9141 L16.8631,42.0791 L8.0001,66.4271 C7.5121,67.7671 9.2481,68.7831 10.1731,67.6971" id="Fill-187" fill="#E18F3D" mask="url(#mask-2)"></path>
                </g>
                <path d="M130.822,78.219 C132.389,70.181 133.379,55.251 135.034,46.958 C135.375,45.251 133.554,43.939 132.037,44.793 L123.297,49.715 L121.043,26.43 C120.946,25.436 119.505,25.412 119.376,26.403 L114.468,64.311 C114.324,65.416 115.577,66.154 116.475,65.492 L125.684,58.7 L128.904,78.188 C129.081,79.26 130.614,79.285 130.822,78.219" id="Fill-190" fill="#5B7DD9"></path>
                <path d="M218.6633,250.7356 C218.9353,251.1236 218.9343,251.5236 218.7353,251.9306 C218.7353,251.9326 218.7333,251.9356 218.7313,251.9366 C218.3663,252.6906 217.3373,253.4666 216.1573,254.2266 C216.0073,254.3246 215.8723,254.4136 215.7553,254.4966 C215.7243,254.5176 215.6933,254.5406 215.6643,254.5616 C215.6403,254.5796 215.6163,254.5966 215.5943,254.6136 C214.4803,255.4416 214.8403,255.6966 212.8183,257.4026 C210.5133,259.3466 209.0773,259.2356 208.6913,258.9956 C208.3643,258.7916 209.1843,257.7176 210.0953,256.5096 C210.1403,256.4526 210.1833,256.3926 210.2273,256.3346 C210.3493,256.1736 210.4703,256.0106 210.5913,255.8486 C211.6623,254.3926 211.5053,253.6406 211.5323,251.3086 C211.5553,249.4146 209.7153,240.5206 209.7153,240.5206 L213.7693,240.2536 C213.7693,240.2536 214.2493,247.2316 215.4603,248.4256 C216.1073,249.0626 216.8973,249.1526 217.5333,249.6406 C217.5783,249.6746 217.6223,249.7096 217.6653,249.7456 C218.0243,250.0416 218.3903,250.3466 218.6633,250.7356" id="Fill-192" fill="#F3B484"></path>
                <path d="M218.6633,250.7356 C218.9353,251.1236 218.9343,251.5236 218.7353,251.9306 C218.7353,251.9326 218.7333,251.9356 218.7313,251.9366 C218.3033,252.6826 217.2983,253.4576 216.1543,254.2176 C216.0053,254.3176 215.8733,254.4096 215.7553,254.4966 C215.7243,254.5176 215.6933,254.5406 215.6643,254.5616 C215.6403,254.5796 215.6163,254.5966 215.5943,254.6136 C214.4803,255.4416 214.8403,255.6966 212.8183,257.4026 C210.5133,259.3466 209.0773,259.2356 208.6913,258.9956 C208.3643,258.7916 209.1843,257.7176 210.0953,256.5096 C210.5163,256.4046 212.4753,255.8396 214.0873,254.1706 C215.5063,252.7046 216.5563,250.7396 217.5333,249.6406 C217.5783,249.6746 217.6223,249.7096 217.6653,249.7456 C218.0243,250.0416 218.3903,250.3466 218.6633,250.7356" id="Fill-194" fill="#27385F"></path>
                <path d="M196.9924,257.4553 C196.9724,257.9293 196.7274,258.2453 196.3234,258.4493 C196.3214,258.4503 196.3194,258.4513 196.3164,258.4513 C195.5684,258.8273 194.2794,258.8193 192.8814,258.7063 C192.7024,258.6913 192.5414,258.6813 192.3974,258.6753 C192.3594,258.6743 192.3214,258.6733 192.2854,258.6723 C192.2564,258.6713 192.2264,258.6713 192.1984,258.6703 C190.8104,258.6523 190.9414,259.0723 188.2994,259.1993 C185.2864,259.3433 184.2144,258.3823 184.0534,257.9573 C183.9174,257.5973 185.2214,257.2423 186.6784,256.8363 C186.7484,256.8173 186.8194,256.7973 186.8904,256.7773 C187.0844,256.7243 187.2794,256.6673 187.4734,256.6123 C189.2094,256.1063 189.5424,255.4143 190.9794,253.5783 C192.1484,252.0873 191.8184,243.9683 191.8184,243.9683 L197.0494,244.5873 C197.0494,244.5873 195.6154,251.9903 195.8514,253.6753 C195.9784,254.5733 196.5524,255.1253 196.7604,255.8993 C196.7744,255.9543 196.7884,256.0083 196.8014,256.0623 C196.9064,256.5163 197.0114,256.9803 196.9924,257.4553" id="Fill-196" fill="#F3B484"></path>
                <path d="M196.9924,257.4553 C196.9724,257.9293 196.7274,258.2453 196.3234,258.4493 C196.3214,258.4503 196.3194,258.4513 196.3164,258.4513 C195.5224,258.7833 194.2544,258.7883 192.8844,258.6973 C192.7044,258.6853 192.5444,258.6783 192.3974,258.6753 C192.3594,258.6743 192.3214,258.6733 192.2854,258.6723 C192.2564,258.6713 192.2264,258.6713 192.1984,258.6703 C190.8104,258.6523 190.9414,259.0723 188.2994,259.1993 C185.2864,259.3433 184.2144,258.3823 184.0534,257.9573 C183.9174,257.5973 185.2214,257.2423 186.6784,256.8363 C187.0764,257.0083 188.9764,257.7493 191.2704,257.4023 C193.2884,257.1013 195.3154,256.1793 196.7604,255.8993 C196.7744,255.9543 196.7884,256.0083 196.8014,256.0623 C196.9064,256.5163 197.0114,256.9803 196.9924,257.4553" id="Fill-198" fill="#27385F"></path>
                <path d="M196.7697,129.345 C194.1407,128.472 192.3207,129.574 192.3207,129.574 C184.7507,129.885 184.4697,137.644 185.3587,140.532 C186.6067,144.587 182.1907,147.785 187.0877,149.426 C192.7707,151.33 197.5397,149.072 197.2137,150.052 C215.1847,151.468 202.7487,131.331 196.7697,129.345" id="Fill-200" fill="#163560"></path>
                <path d="M188.9182,167.0832 C188.9182,167.0832 188.1992,168.5072 186.8952,170.1442 C185.3222,172.1132 177.0692,167.4382 177.7802,167.0832 C178.4912,166.7282 182.6382,154.7792 183.6252,153.2782 C184.6132,151.7762 187.9792,150.9972 187.9792,150.9972 L188.9182,167.0832 Z" id="Fill-202" fill="#F99746"></path>
                <path d="M207.3352,161.1428 C207.3352,161.1428 207.5252,163.8318 207.3352,167.0588 C207.2082,169.1978 205.0452,172.0628 204.7372,172.7708 C203.9682,174.5478 203.0992,174.8368 203.0992,174.8368 L196.3792,176.4848 L194.0162,177.0628 L186.5642,174.8368 C186.5642,174.8368 183.1712,165.3658 184.5342,160.0328 C185.8972,154.7008 187.9792,150.9968 187.9792,150.9968 C187.9792,150.9968 193.0422,149.8588 201.9762,150.4928 L207.3352,161.1428 Z" id="Fill-204" fill="#F99746"></path>
                <path d="M207.9748,167.133 C207.8488,169.273 205.0448,172.063 204.7378,172.771 C203.9678,174.548 203.0988,174.837 203.0988,174.837 L196.3788,176.485 L195.1648,173.007 C195.1648,173.007 204.9848,170.428 203.4058,161.34 L207.9748,167.133 Z" id="Fill-206" fill="#ED7D2B"></path>
                <path d="M187.0393,176.2756 C187.0393,176.2756 183.3493,187.7606 183.1123,191.6716 C182.8753,195.5816 190.1663,247.2216 190.4593,249.0236 C190.7353,250.7216 192.8453,251.8046 192.8453,251.8046 C192.8453,251.8046 193.8143,252.3766 195.1983,251.9856 C197.1193,251.4436 197.7273,250.7946 197.7273,250.7946 C197.7273,250.7946 200.5993,213.9646 198.8213,200.8086 C197.0443,187.6526 197.0223,176.2756 197.0223,176.2756 L187.0393,176.2756 Z" id="Fill-208" fill="#233862"></path>
                <path d="M202.6721,175.9328 C202.6721,175.9328 208.3011,183.4848 208.8261,188.5898 C209.3511,193.6958 209.6501,211.6278 210.7671,216.6048 C211.8851,221.5808 215.9921,231.1598 215.9921,246.6818 C215.9921,246.6818 215.5661,247.5718 214.2471,248.0458 C213.8251,248.1978 213.2611,248.3438 212.7121,248.4698 C211.6251,248.7188 210.5101,248.1878 210.0141,247.1888 C207.2361,241.5978 198.3921,223.5658 197.9381,219.8228 C197.6171,217.1728 194.8241,199.6418 188.7321,189.3548 C187.2701,186.8848 189.6291,177.0628 189.6291,177.0628 L202.6721,175.9328 Z" id="Fill-210" fill="#2A4E96"></path>
                <path d="M186.4494,174.5022 C186.4494,174.5022 187.9304,175.6742 190.8734,175.7332 C194.3884,175.8042 203.0984,174.8372 203.0984,174.8372 C203.0984,174.8372 203.4854,175.9182 203.4704,177.0602 C203.4704,177.0602 192.8324,179.7432 186.6684,177.4522 C186.6684,177.4522 185.8734,175.9562 186.4494,174.5022" id="Fill-212" fill="#233862"></path>
                <path d="M190.0305,175.6633 C189.4395,175.6633 188.9585,176.2393 188.9585,176.9473 C188.9585,177.6553 189.4395,178.2303 190.0305,178.2303 C190.6215,178.2303 191.1025,177.6553 191.1025,176.9473 C191.1025,176.2393 190.6215,175.6633 190.0305,175.6633 M190.0305,178.7623 C189.1455,178.7623 188.4265,177.9483 188.4265,176.9473 C188.4265,175.9463 189.1455,175.1323 190.0305,175.1323 C190.9155,175.1323 191.6345,175.9463 191.6345,176.9473 C191.6345,177.9483 190.9155,178.7623 190.0305,178.7623" id="Fill-214" fill="#FFFFFF"></path>
                <polygon id="Fill-216" fill="#B5453C" points="197.7151 182.0647 181.7271 182.2137 173.8601 163.7247 189.8481 163.5757"></polygon>
                <path d="M195.6242,173.7092 L194.4522,172.2692 C194.4522,172.2692 193.6592,171.5622 193.0842,171.4412 C192.5082,171.3212 191.2932,170.6202 191.1752,170.8172 C191.0582,171.0152 192.1092,172.4242 192.1092,172.4242 L192.1622,172.4322 C190.9552,173.3402 187.9072,172.5382 187.5312,172.9082 C187.0752,173.3572 188.1592,174.3282 188.7402,174.8732 C189.3212,175.4182 190.9842,176.3262 192.2802,175.9232 C193.2282,175.6282 194.7192,175.3272 194.7192,175.3272 L195.6242,173.7092 Z" id="Fill-218" fill="#FFB27D"></path>
                <path d="M175.0622,166.9768 C175.0622,166.9768 176.0672,165.8348 176.7072,166.3828 C177.3462,166.9318 176.5392,169.6258 175.9302,169.3518 C175.3212,169.0788 174.7122,167.3118 175.0622,166.9768" id="Fill-220" fill="#FFB27D"></path>
                <path d="M201.9758,150.4924 C201.9758,150.4924 206.5528,150.9974 209.8368,156.9654 C212.4278,161.6714 216.8558,170.3464 215.1848,172.7984 C214.4518,173.8744 207.4198,177.7024 193.8588,175.5134 C193.8588,175.5134 194.0718,173.8014 195.1648,173.0074 C195.1648,173.0074 206.5788,169.3434 206.5588,168.6134 C206.5218,167.2354 205.0168,166.0444 198.6418,159.6664 C196.9088,157.9324 201.9758,150.4924 201.9758,150.4924" id="Fill-222" fill="#F99746"></path>
                <path d="M198.4533,150.7346 C198.6103,150.5236 198.4083,149.8506 198.1563,148.5986 C197.9293,147.4636 197.5423,145.7106 197.5513,143.7366 L197.2143,143.7936 L191.5413,144.7476 C191.5413,144.7476 191.6703,146.2636 191.6743,147.6926 L191.6743,147.7286 C191.6813,148.9686 191.3393,150.8446 191.7583,151.0896 C193.9073,152.3486 197.8483,151.5466 198.4533,150.7346" id="Fill-224" fill="#FFB27D"></path>
                <path d="M191.5412,144.7473 C191.5412,144.7473 191.6532,146.8863 191.6572,148.3143 C194.8322,148.2383 196.5262,145.1563 197.2142,143.7933 L191.5412,144.7473 Z" id="Fill-226" fill="#E8945B"></path>
                <path d="M191.1985,147.2981 C191.1985,147.2981 198.6355,146.2381 197.9045,141.6171 C197.1735,136.9971 197.6405,133.7481 192.8615,134.2291 C188.0835,134.7101 187.4415,136.6181 187.3105,138.2201 C187.1785,139.8221 189.2455,147.4541 191.1985,147.2981" id="Fill-228" fill="#FFB27D"></path>
                <path d="M189.466,134.6536 C189.466,134.6536 192.36,139.7506 195.604,140.0556 C198.849,140.3606 200.068,139.3096 200.068,139.3096 C200.068,139.3096 197.374,137.7926 196.35,134.5556 C196.35,134.5556 190.587,131.8306 189.466,134.6536" id="Fill-230" fill="#163560"></path>
                <path d="M190.0393,135.0139 C190.0393,135.0139 188.6233,135.8169 188.1783,137.0139 C187.7433,138.1839 187.4533,139.6889 187.8513,141.4149 C187.8513,141.4149 185.7343,137.9749 187.1223,135.6169 C188.5933,133.1169 190.0393,135.0139 190.0393,135.0139" id="Fill-232" fill="#163560"></path>
                <path d="M81.1945,152.6409 C81.1675,152.6699 81.1285,152.6889 81.0815,152.6939 C80.9665,152.7029 80.8445,152.6199 80.8105,152.5049 C80.7265,152.2289 80.6465,151.9489 80.5725,151.6719 C80.5425,151.5569 80.6125,151.4599 80.7295,151.4539 C80.8455,151.4489 80.9645,151.5369 80.9945,151.6509 C81.0665,151.9219 81.1445,152.1979 81.2275,152.4689 C81.2475,152.5369 81.2335,152.5989 81.1945,152.6409" id="Fill-237" fill="#5B7DD9"></path>
                <path d="M82.9084,136.8244 C82.8454,136.8924 82.7274,136.8964 82.6304,136.8304 C82.5244,136.7574 82.4844,136.6264 82.5404,136.5384 C82.8234,136.0994 83.1304,135.6704 83.4524,135.2624 C83.5214,135.1814 83.6524,135.1784 83.7534,135.2594 C83.8554,135.3384 83.8844,135.4694 83.8204,135.5514 C83.5034,135.9514 83.2014,136.3734 82.9254,136.8034 C82.9204,136.8104 82.9144,136.8174 82.9084,136.8244 M86.7304,132.7024 C86.7234,132.7094 86.7174,132.7154 86.7104,132.7204 C86.2994,133.0334 85.8994,133.3684 85.5214,133.7174 C85.4444,133.7874 85.3074,133.7724 85.2144,133.6824 C85.1224,133.5934 85.1144,133.4644 85.1864,133.3924 C85.5724,133.0374 85.9794,132.6954 86.3984,132.3774 C86.4824,132.3134 86.6204,132.3394 86.7064,132.4334 C86.7844,132.5194 86.7934,132.6354 86.7304,132.7024 M90.3324,130.5994 C90.3184,130.6164 90.3004,130.6294 90.2784,130.6374 C89.7904,130.8504 89.3094,131.0854 88.8474,131.3374 C88.7534,131.3884 88.6164,131.3474 88.5414,131.2454 C88.4674,131.1434 88.4834,131.0184 88.5774,130.9684 C89.0474,130.7114 89.5374,130.4704 90.0344,130.2554 C90.1344,130.2124 90.2694,130.2624 90.3374,130.3684 C90.3894,130.4514 90.3854,130.5434 90.3324,130.5994 M81.1404,140.5284 C81.0884,140.5854 80.9944,140.5994 80.9044,140.5574 C80.7884,140.5044 80.7214,140.3794 80.7554,140.2784 C80.9234,139.7734 81.1164,139.2744 81.3284,138.7934 C81.3704,138.6964 81.4964,138.6684 81.6094,138.7294 C81.7214,138.7904 81.7784,138.9184 81.7354,139.0144 C81.5274,139.4874 81.3384,139.9774 81.1734,140.4714 C81.1664,140.4944 81.1554,140.5124 81.1404,140.5284 M94.4704,129.3414 C94.4474,129.3664 94.4154,129.3844 94.3764,129.3904 C93.8334,129.4924 93.2914,129.6174 92.7634,129.7624 C92.6564,129.7934 92.5254,129.7264 92.4714,129.6164 C92.4174,129.5064 92.4604,129.3924 92.5674,129.3634 C93.1054,129.2154 93.6584,129.0874 94.2124,128.9834 C94.3234,128.9634 94.4504,129.0374 94.4964,129.1494 C94.5254,129.2224 94.5134,129.2954 94.4704,129.3414 M80.3004,144.6634 C80.2574,144.7104 80.1854,144.7294 80.1074,144.7094 C79.9874,144.6774 79.8984,144.5614 79.9074,144.4524 C79.9544,143.9034 80.0254,143.3544 80.1174,142.8224 C80.1364,142.7154 80.2474,142.6614 80.3664,142.7014 C80.4854,142.7414 80.5664,142.8604 80.5484,142.9684 C80.4574,143.4904 80.3874,144.0284 80.3414,144.5674 C80.3384,144.6054 80.3234,144.6384 80.3004,144.6634 M98.9714,128.9834 C98.9404,129.0184 98.8924,129.0384 98.8354,129.0374 C98.2574,129.0244 97.6754,129.0334 97.1064,129.0644 C96.9904,129.0704 96.8714,128.9834 96.8404,128.8694 C96.8094,128.7554 96.8784,128.6574 96.9944,128.6504 C97.5744,128.6194 98.1674,128.6104 98.7574,128.6234 C98.8754,128.6264 98.9894,128.7204 99.0104,128.8354 C99.0214,128.8944 99.0064,128.9474 98.9714,128.9834 M80.4104,149.0524 C80.3764,149.0884 80.3244,149.1084 80.2624,149.1044 C80.1424,149.0954 80.0334,148.9954 80.0184,148.8824 C79.9434,148.3134 79.8904,147.7404 79.8624,147.1764 C79.8564,147.0624 79.9484,146.9854 80.0694,147.0044 C80.1894,147.0214 80.2914,147.1274 80.2974,147.2404 C80.3254,147.7944 80.3774,148.3574 80.4504,148.9144 C80.4584,148.9694 80.4424,149.0164 80.4104,149.0524 M103.6494,129.5464 C103.6094,129.5904 103.5424,129.6094 103.4684,129.5944 C102.8784,129.4674 102.2824,129.3594 101.6954,129.2754 C101.5754,129.2594 101.4724,129.1524 101.4664,129.0404 C101.4594,128.9274 101.5514,128.8484 101.6724,128.8664 C102.2704,128.9524 102.8784,129.0604 103.4794,129.1904 C103.5994,129.2164 103.6944,129.3274 103.6914,129.4384 C103.6904,129.4814 103.6754,129.5184 103.6494,129.5464 M108.3054,130.9904 C108.2564,131.0444 108.1684,131.0604 108.0804,131.0254 C107.5094,130.7914 106.9224,130.5744 106.3394,130.3804 C106.2204,130.3404 106.1374,130.2204 106.1564,130.1134 C106.1734,130.0064 106.2844,129.9514 106.4034,129.9914 C106.9984,130.1894 107.5964,130.4114 108.1794,130.6494 C108.2964,130.6974 108.3694,130.8204 108.3424,130.9244 C108.3354,130.9504 108.3234,130.9724 108.3054,130.9904 M112.7434,133.2664 C112.6834,133.3314 112.5724,133.3394 112.4764,133.2794 C111.9424,132.9454 111.3914,132.6254 110.8394,132.3284 C110.7264,132.2674 110.6694,132.1394 110.7114,132.0434 C110.7514,131.9454 110.8784,131.9164 110.9914,131.9774 C111.5544,132.2804 112.1154,132.6064 112.6594,132.9464 C112.7684,133.0144 112.8164,133.1444 112.7654,133.2364 C112.7594,133.2474 112.7514,133.2584 112.7434,133.2664" id="Fill-239" fill="#5B7DD9"></path>
                <path d="M116.0334,135.6457 C115.9644,135.7197 115.8314,135.7157 115.7344,135.6347 C115.4984,135.4397 115.2564,135.2447 115.0134,135.0547 C114.9124,134.9757 114.8824,134.8447 114.9464,134.7627 C115.0124,134.6827 115.1444,134.6777 115.2464,134.7567 C115.4934,134.9497 115.7404,135.1487 115.9804,135.3477 C116.0794,135.4307 116.1054,135.5617 116.0374,135.6407 C116.0354,135.6427 116.0344,135.6437 116.0334,135.6457" id="Fill-241" fill="#5B7DD9"></path>
                <path d="M125.6726,151.4895 C125.6406,151.5235 125.5916,151.5445 125.5336,151.5425 C125.4146,151.5385 125.3016,151.4425 125.2816,151.3285 C125.2336,151.0545 125.1796,150.7785 125.1206,150.5085 C125.0966,150.3945 125.1716,150.301492 125.2886,150.301492 C125.4066,150.3005 125.5226,150.3925 125.5476,150.5075 C125.6066,150.7825 125.6616,151.0635 125.7116,151.3435 C125.7216,151.4015 125.7056,151.4535 125.6726,151.4895" id="Fill-243" fill="#5B7DD9"></path>
                <path d="M94.0793,168.5608 C94.0203,168.6238 93.9123,168.6328 93.8173,168.5778 C93.2753,168.2558 92.7353,167.9128 92.2113,167.5548 C92.1053,167.4828 92.0643,167.3528 92.1203,167.2638 C92.1763,167.1778 92.3083,167.1638 92.4143,167.2358 C92.9283,167.5848 93.4573,167.9228 93.9893,168.2378 C94.1003,168.3028 94.1513,168.4328 94.1033,168.5258 C94.0973,168.5398 94.0893,168.5508 94.0793,168.5608 M98.4853,170.6978 C98.4363,170.7498 98.3523,170.7668 98.2663,170.7338 C97.6873,170.5118 97.1063,170.2668 96.5383,170.0058 C96.4233,169.9528 96.3563,169.8278 96.3893,169.7258 C96.4223,169.6248 96.5433,169.5858 96.6593,169.6388 C97.2163,169.8958 97.7863,170.1358 98.3533,170.3538 C98.4713,170.3988 98.5473,170.5208 98.5233,170.6248 C98.5163,170.6538 98.5033,170.6778 98.4853,170.6978 M103.0793,172.0218 C103.0403,172.0648 102.9753,172.0848 102.9033,172.0708 C102.4393,171.9798 101.9673,171.8748 101.5013,171.7578 C101.3763,171.7268 101.2503,171.6948 101.1263,171.6618 C101.0063,171.6288 100.9163,171.5138 100.9263,171.4048 C100.9353,171.2938 101.0403,171.2318 101.1603,171.2638 C101.2833,171.2958 101.4053,171.3288 101.5283,171.3588 C101.9863,171.4738 102.4493,171.5768 102.9043,171.6648 C103.0243,171.6888 103.1213,171.7988 103.1213,171.9108 C103.1213,171.9558 103.1063,171.9938 103.0793,172.0218 M107.6743,172.4858 C107.6433,172.5188 107.5973,172.5398 107.5413,172.5398 C106.9643,172.5368 106.3743,172.5118 105.7863,172.4658 C105.6673,172.4568 105.5583,172.3568 105.5433,172.2438 C105.5293,172.1288 105.6143,172.0438 105.7333,172.0538 C106.3093,172.0988 106.8893,172.1228 107.4553,172.1248 C107.5733,172.1248 107.6873,172.2188 107.7113,172.3328 C107.7243,172.3938 107.7093,172.4488 107.6743,172.4858 M125.9843,155.8368 C125.9433,155.8808 125.8763,155.9018 125.8013,155.8848 C125.6813,155.8578 125.5863,155.7458 125.5903,155.6348 C125.6093,155.0988 125.6063,154.5518 125.5813,154.0088 C125.5773,153.8958 125.6693,153.8198 125.7903,153.8378 C125.9103,153.8568 126.0123,153.9628 126.0163,154.0758 C126.0423,154.6288 126.0453,155.1868 126.0263,155.7318 C126.0243,155.7738 126.0093,155.8098 125.9843,155.8368 M112.0813,172.0598 C112.0593,172.0828 112.0283,172.1008 111.9913,172.1088 C111.4493,172.2188 110.8903,172.3098 110.3303,172.3778 C110.2163,172.3918 110.0933,172.3118 110.0543,172.1988 C110.0163,172.0838 110.0773,171.9818 110.1913,171.9668 C110.7403,171.9008 111.2883,171.8118 111.8203,171.7038 C111.9313,171.6798 112.0583,171.7528 112.1063,171.8648 C112.1373,171.9388 112.1253,172.0118 112.0813,172.0598 M125.3723,159.9788 C125.3223,160.0338 125.2343,160.0488 125.1463,160.0128 C125.0293,159.9638 124.9563,159.8408 124.9843,159.7378 C125.1183,159.2418 125.2323,158.7268 125.3233,158.2088 C125.3413,158.1028 125.4533,158.0488 125.5723,158.0888 C125.6903,158.1288 125.7713,158.2488 125.7533,158.3558 C125.6603,158.8828 125.5443,159.4078 125.4083,159.9138 C125.4013,159.9388 125.3893,159.9608 125.3723,159.9788 M116.1233,170.7618 C116.1093,170.7778 116.0923,170.7898 116.0713,170.7988 C115.5843,171.0188 115.0803,171.2198 114.5713,171.3988 C114.4673,171.4348 114.3343,171.3758 114.2733,171.2678 C114.2133,171.1608 114.2473,171.0418 114.3513,171.0058 C114.8503,170.8318 115.3463,170.6328 115.8233,170.4178 C115.9223,170.3728 116.0583,170.4228 116.1263,170.5278 C116.1813,170.6118 116.1763,170.7048 116.1233,170.7618 M123.8533,163.7448 C123.7933,163.8098 123.6813,163.8168 123.5853,163.7568 C123.4763,163.6888 123.4293,163.5588 123.4803,163.4668 C123.7253,163.0258 123.9533,162.5658 124.1573,162.1008 C124.1993,162.0028 124.3253,161.9758 124.4373,162.0368 C124.5503,162.0978 124.6073,162.2248 124.5643,162.3218 C124.3573,162.7958 124.1253,163.2638 123.8753,163.7148 C123.8693,163.7258 123.8613,163.7358 123.8533,163.7448 M119.6373,168.6528 C119.6313,168.6588 119.6253,168.6648 119.6183,168.6698 C119.2103,168.9878 118.7803,169.2908 118.3393,169.5728 C118.2493,169.6298 118.1123,169.5958 118.0323,169.4978 C117.9523,169.3988 117.9603,169.2728 118.0493,169.2138 C118.4813,168.9378 118.9033,168.6398 119.3043,168.3288 C119.3873,168.2638 119.5253,168.2888 119.6123,168.3818 C119.6913,168.4678 119.7013,168.5838 119.6373,168.6528 M121.6003,166.8528 L121.4843,166.9778 C121.4123,167.0538 121.2753,167.0458 121.1793,166.9598 C121.0833,166.8748 121.0633,166.7458 121.1333,166.6688 C121.1343,166.6688 121.1343,166.6678 121.1353,166.6678 L121.2493,166.5448 C121.5533,166.2178 121.8463,165.8728 122.1213,165.5198 C122.1893,165.4398 122.3203,165.4348 122.4223,165.5138 C122.5243,165.5938 122.5543,165.7248 122.4903,165.8068 C122.2093,166.1658 121.9103,166.5188 121.6003,166.8528" id="Fill-245" fill="#5B7DD9"></path>
                <path d="M90.0363,165.6887 C89.9663,165.7637 89.8333,165.7587 89.7363,165.6767 C89.4973,165.4767 89.2583,165.2687 89.0243,165.0587 C88.9283,164.9727 88.9193,164.8417 88.9823,164.7667 C89.0543,164.6917 89.1913,164.7007 89.2873,164.7867 C89.5163,164.9917 89.7513,165.1957 89.9853,165.3927 C90.0833,165.4757 90.1083,165.6067 90.0393,165.6847 C90.0383,165.6857 90.0373,165.6867 90.0363,165.6887" id="Fill-247" fill="#5B7DD9"></path>
                <path d="M90.6667,159.926 C90.7417,160.024 90.8647,160.078 90.9747,160.062 L94.1047,159.572 C95.3477,160.69 96.7497,161.661 98.2727,162.431 L99.0607,165.604 C99.0877,165.715 99.1847,165.812 99.3017,165.845 L103.2937,166.966 C103.4097,166.998 103.5207,166.96 103.5697,166.87 L104.9507,164.306 C106.5417,164.41 108.0607,164.259 109.4587,163.883 L112.3127,166.052 C112.4127,166.128 112.5407,166.145 112.6307,166.092 L115.7197,164.31 C115.8107,164.257 115.8427,164.149 115.8017,164.038 L114.6267,160.9 C115.5707,159.925 116.3227,158.765 116.8347,157.447 L120.0817,157.339 C120.1947,157.336 120.2787,157.262 120.2897,157.155 L120.6667,153.513 C120.6777,153.406 120.6137,153.291 120.5067,153.226 L117.4647,151.354 C117.2467,149.83 116.7707,148.325 116.0757,146.89 L117.8147,144.57 C117.8757,144.488 117.8667,144.367 117.7917,144.269 L115.2357,140.901 C115.1617,140.803 115.0377,140.748 114.9277,140.765 L111.7987,141.255 C110.5557,140.137 109.1527,139.165 107.6297,138.396 L106.8417,135.223 C106.8147,135.112 106.7177,135.015 106.6017,134.982 L102.6087,133.861 C102.4927,133.828 102.3817,133.866 102.3337,133.956 L100.9527,136.521 C99.3607,136.416 97.8417,136.568 96.4437,136.944 L93.5897,134.775 C93.4897,134.698 93.3617,134.682 93.2717,134.735 L90.1827,136.517 C90.0927,136.57 90.0597,136.678 90.1007,136.788 L91.2757,139.927 C90.3327,140.902 89.5797,142.062 89.0677,143.38 L85.8217,143.487 C85.7077,143.49 85.6237,143.565 85.6127,143.671 L85.2357,147.314 C85.2257,147.42 85.2897,147.535 85.3957,147.601 L88.4377,149.473 C88.6557,150.996 89.1327,152.501 89.8277,153.937 L88.0877,156.257 C88.0267,156.338 88.0357,156.459 88.1107,156.558 L90.6667,159.926 Z" id="Fill-249" fill="#3F4D94"></path>
                <path d="M100.341,148.134 C99.832,148.684 99.624,149.437 99.756,150.256 C99.887,151.075 100.343,151.863 101.041,152.472 C101.737,153.081 102.591,153.441 103.445,153.483 C104.299,153.525 105.049,153.245 105.56,152.695 C105.561,152.695 105.561,152.694 105.562,152.693 C106.071,152.143 106.278,151.39 106.147,150.571 C106.015,149.751 105.559,148.964 104.862,148.355 C104.165,147.745 103.311,147.386 102.458,147.344 C101.604,147.302 100.853,147.582 100.342,148.132 C100.342,148.132 100.341,148.133 100.341,148.134 M106.089,153.154 C106.089,153.155 106.088,153.155 106.087,153.155 C105.473,153.817 104.57,154.154 103.545,154.103 C102.518,154.052 101.492,153.621 100.654,152.888 C99.817,152.155 99.268,151.209 99.11,150.224 C98.783,148.19 100.24,146.619 102.358,146.724 C103.384,146.775 104.411,147.205 105.248,147.939 C106.086,148.671 106.634,149.617 106.793,150.603 C106.951,151.587 106.701,152.492 106.089,153.154" id="Fill-251" fill="#5B7DD9"></path>
                <path d="M111.0945,157.4084 C109.0815,159.5834 105.7095,160.4754 102.0735,159.4554 C101.3625,159.2554 100.6605,158.9874 99.9865,158.6584 L100.1825,158.1174 C100.8135,158.4244 101.4695,158.6754 102.1345,158.8614 C106.1655,159.9934 109.8515,158.6084 111.4795,155.6914 C111.4825,155.6864 111.4855,155.6804 111.4885,155.6764 C111.4915,155.6704 111.4945,155.6644 111.4975,155.6594 C111.9315,154.8714 112.2165,153.9724 112.3195,152.9824 C112.5535,150.7144 111.8065,148.3094 110.2145,146.2134 C109.7095,145.5484 109.1395,144.9394 108.5165,144.3954 C107.1745,143.2234 105.5885,142.3544 103.8905,141.8784 C98.7585,140.4364 94.1895,143.0744 93.7055,147.7564 C93.5465,149.2964 93.8465,150.9314 94.5735,152.4874 L93.9835,152.6354 C93.2055,150.9714 92.8845,149.2204 93.0545,147.5734 C93.5735,142.5644 98.4615,139.7424 103.9515,141.2844 C105.7685,141.7944 107.4655,142.7244 108.9015,143.9774 C109.5675,144.5594 110.1775,145.2114 110.7175,145.9224 C112.4205,148.1664 113.2205,150.7384 112.9695,153.1654 C112.7945,154.8564 112.1215,156.3004 111.0945,157.4084" id="Fill-253" fill="#5B7DD9"></path>
                <path d="M129.9333,160.0686 C129.9003,160.0496 129.8713,160.0216 129.8523,159.9876 C129.8053,159.9036 129.8323,159.8126 129.9123,159.7836 C130.1093,159.7146 130.3123,159.6506 130.5163,159.5946 C130.6003,159.5716 130.7013,159.6226 130.7443,159.7086 C130.7863,159.7946 130.7523,159.8816 130.6683,159.9056 C130.4713,159.9596 130.2743,160.0206 130.0843,160.0886 C130.0363,160.1056 129.9803,160.0966 129.9333,160.0686" id="Fill-255" fill="#5B7DD9"></path>
                <path d="M141.1545,162.5539 C141.1445,162.5479 141.1345,162.5409 141.1245,162.5329 C140.7395,162.2179 140.3345,161.9209 139.9185,161.6509 C139.8355,161.5959 139.8005,161.4949 139.8425,161.4249 C139.8835,161.3559 139.9845,161.3459 140.0685,161.3979 C140.4975,161.6769 140.9165,161.9829 141.3135,162.3079 C141.3915,162.3709 141.4115,162.4739 141.3595,162.5349 C141.3145,162.5899 141.2275,162.5959 141.1545,162.5539 M136.3735,160.0149 C136.3065,159.9759 136.2625,159.9029 136.2705,159.8329 C136.2795,159.7479 136.3625,159.7009 136.4565,159.7289 C136.9315,159.8659 137.4085,160.0349 137.8735,160.2319 C137.9645,160.2689 138.0205,160.3659 137.9985,160.4459 C137.9765,160.5259 137.8845,160.5599 137.7935,160.5219 C137.3425,160.3319 136.8815,160.1689 136.4215,160.0349 C136.4045,160.0309 136.3885,160.0239 136.3735,160.0149 M143.8185,165.4569 C143.7905,165.4419 143.7655,165.4189 143.7465,165.3909 C143.4745,164.9899 143.1745,164.5969 142.8545,164.2229 C142.7905,164.1479 142.7925,164.0479 142.8605,164.0009 C142.9275,163.9539 143.0345,163.9779 143.0995,164.0529 C143.4295,164.4389 143.7395,164.8449 144.0205,165.2589 C144.0755,165.3399 144.0585,165.4349 143.9825,165.4709 C143.9335,165.4949 143.8705,165.4889 143.8185,165.4569 M132.6825,159.5519 C132.6345,159.5249 132.5965,159.4789 132.5825,159.4259 C132.5595,159.3369 132.6145,159.2619 132.7055,159.2579 C132.9525,159.2479 133.2065,159.2459 133.4595,159.2529 C133.6785,159.2589 133.9015,159.2719 134.1205,159.2899 C134.2145,159.2979 134.2975,159.3769 134.3085,159.4649 C134.3195,159.5539 134.2525,159.6189 134.1595,159.6119 C133.9465,159.5929 133.7315,159.5799 133.5195,159.5749 C133.2735,159.5689 133.0275,159.5699 132.7885,159.5789 C132.7515,159.5809 132.7145,159.5709 132.6825,159.5519 M145.4285,168.8679 C145.3825,168.8419 145.3445,168.7979 145.3305,168.7459 C145.2045,168.3059 145.0485,167.8649 144.8645,167.4349 C144.8275,167.3479 144.8675,167.2619 144.9535,167.2439 C145.0395,167.2269 145.1385,167.2829 145.1755,167.3689 C145.3645,167.8139 145.5265,168.2699 145.6555,168.7239 C145.6815,168.8129 145.6285,168.8899 145.5385,168.8959 C145.5005,168.8989 145.4625,168.8879 145.4285,168.8679 M145.7925,172.3669 C145.7265,172.3279 145.6825,172.2569 145.6885,172.1889 C145.7245,171.7659 145.7285,171.3299 145.7025,170.8949 C145.6965,170.8069 145.7685,170.7459 145.8615,170.7589 C145.9545,170.7719 146.0345,170.8539 146.0405,170.9419 C146.0675,171.3919 146.0625,171.8419 146.0265,172.2779 C146.0185,172.3639 145.9375,172.4119 145.8435,172.3879 C145.8255,172.3829 145.8085,172.3749 145.7925,172.3669" id="Fill-257" fill="#5B7DD9"></path>
                <path d="M145.1413,174.9455 C145.0573,174.8965 145.0163,174.7995 145.0483,174.7255 C145.1263,174.5495 145.1993,174.3655 145.2643,174.1815 C145.2913,174.1035 145.3863,174.0755 145.4753,174.1185 C145.5683,174.1585 145.6153,174.2585 145.5873,174.3375 C145.5203,174.5265 145.4453,174.7165 145.3643,174.8985 C145.3313,174.9735 145.2333,174.9965 145.1463,174.9485 C145.1443,174.9475 145.1433,174.9465 145.1413,174.9455" id="Fill-259" fill="#5B7DD9"></path>
                <path d="M139.2058,179.4387 C139.1648,179.4157 139.1308,179.3777 139.1138,179.3347 C139.0788,179.2467 139.1208,179.1637 139.2078,179.1477 C139.4128,179.1107 139.6178,179.0667 139.8168,179.0157 C139.9018,178.9947 140.0028,179.0477 140.0428,179.1337 C140.0828,179.2197 140.0478,179.3077 139.9628,179.3287 C139.7578,179.3797 139.5458,179.4257 139.3328,179.4637 C139.2908,179.4717 139.2448,179.4607 139.2058,179.4387" id="Fill-261" fill="#5B7DD9"></path>
                <path d="M124.7234,167.5705 C124.6624,167.5355 124.6194,167.4705 124.6194,167.4055 C124.6164,166.9665 124.6454,166.5295 124.7054,166.1075 C124.7174,166.0235 124.8024,165.9785 124.8954,166.0085 C124.9884,166.0365 125.0534,166.1295 125.0414,166.2125 C124.9834,166.6215 124.9544,167.0445 124.9574,167.4685 C124.9574,167.5565 124.8824,167.6125 124.7884,167.5945 C124.7654,167.5915 124.7434,167.5825 124.7234,167.5705 M125.3654,171.0295 C125.3234,171.0055 125.2874,170.9665 125.2714,170.9205 C125.1104,170.4785 124.9774,170.0275 124.8754,169.5795 C124.8554,169.4905 124.9124,169.4175 125.0044,169.41649 C125.0954,169.4155 125.1854,169.4865 125.2054,169.5755 C125.3044,170.0085 125.4334,170.4465 125.5894,170.8735 C125.6214,170.9615 125.5764,171.0435 125.4884,171.0555 C125.4464,171.0615 125.4034,171.0505 125.3654,171.0295 M127.1864,174.3135 C127.1624,174.2995 127.1404,174.2805 127.1214,174.2575 C126.8194,173.8635 126.5374,173.4515 126.2854,173.0335 C126.2354,172.9505 126.2594,172.8575 126.3384,172.8265 C126.4164,172.7955 126.5214,172.8375 126.5714,172.9205 C126.8154,173.3245 127.0874,173.7225 127.3814,174.1045 C127.4414,174.1825 127.4314,174.2805 127.3604,174.3225 C127.3104,174.3515 127.2434,174.3465 127.1864,174.3135 M135.6424,179.4525 C135.5834,179.4175 135.5404,179.3555 135.5384,179.2925 C135.5354,179.2045 135.6074,179.1455 135.7014,179.1605 C136.1554,179.2325 136.6144,179.2775 137.0654,179.2935 C137.1574,179.2965 137.2444,179.3715 137.2604,179.4605 C137.2754,179.5495 137.2134,179.6185 137.1214,179.6155 C136.6564,179.5985 136.1824,179.5515 135.7134,179.4775 C135.6884,179.4735 135.6644,179.4645 135.6424,179.4525 M129.9724,177.0335 C129.9654,177.0285 129.9584,177.0245 129.9524,177.0195 C129.5454,176.7205 129.1504,176.3965 128.7784,176.0575 C128.7044,175.9905 128.6904,175.8885 128.7474,175.8305 C128.8054,175.7725 128.9114,175.7815 128.9854,175.8475 C129.3454,176.1765 129.7284,176.4905 130.1224,176.7805 C130.2024,176.8395 130.2304,176.9415 130.1834,177.0075 C130.1404,177.0675 130.0494,177.0775 129.9724,177.0335 M132.0364,178.2895 C131.9554,178.2425 131.9124,178.1495 131.9404,178.0765 C131.9694,177.9995 132.0644,177.9715 132.1534,178.0155 C132.5874,178.2305 133.0344,178.4215 133.4824,178.5845 C133.5754,178.6175 133.6354,178.7115 133.6194,178.7935 C133.6024,178.8755 133.5144,178.9155 133.4224,178.8825 C132.9584,178.7145 132.4964,178.5165 132.0494,178.2965 C132.0454,178.2945 132.0404,178.2915 132.0364,178.2895" id="Fill-263" fill="#5B7DD9"></path>
                <path d="M125.3401,164.343 C125.2571,164.295 125.2151,164.199 125.2461,164.126 C125.3231,163.941 125.4081,163.757 125.4991,163.58 C125.5351,163.508 125.6331,163.49 125.7191,163.539 C125.7191,163.54 125.7201,163.54 125.7211,163.541 C125.8071,163.592 125.8461,163.693 125.8091,163.765 C125.7211,163.937 125.6391,164.114 125.5641,164.294 C125.5331,164.369 125.4361,164.394 125.3481,164.347 C125.3451,164.346 125.3421,164.344 125.3401,164.343" id="Fill-265" fill="#5B7DD9"></path>
                <path d="M128.364,164.2493 C128.332,164.2833 128.33,164.3383 128.361,164.3863 L129.228,165.7383 C128.94,166.2973 128.756,166.9223 128.693,167.5973 L127.324,167.9893 C127.276,168.0043 127.249,168.0473 127.257,168.0993 L127.522,169.8523 C127.53,169.9033 127.571,169.9503 127.624,169.9713 L129.137,170.5293 C129.408,171.2243 129.787,171.8823 130.25,172.4833 L129.781,173.7593 C129.765,173.8043 129.783,173.8593 129.826,173.8973 L131.307,175.2123 C131.351,175.2513 131.41,175.2643 131.454,175.2443 L132.728,174.6833 C133.388,175.0773 134.098,175.3863 134.836,175.5883 L135.542,176.9973 C135.567,177.0473 135.619,177.0823 135.673,177.0853 L137.502,177.1903 C137.555,177.1943 137.598,177.1643 137.608,177.1173 L137.896,175.7653 C138.585,175.6453 139.214,175.4143 139.764,175.0893 L141.232,175.8093 C141.283,175.8343 141.34,175.8273 141.372,175.7943 L142.477,174.6283 C142.51,174.5953 142.511,174.5403 142.481,174.4923 L141.614,173.1403 C141.901,172.5813 142.086,171.9553 142.149,171.2813 L143.517,170.8883 C143.566,170.8743 143.593,170.8313 143.585,170.7793 L143.319,169.0263 C143.311,168.9753 143.27,168.9273 143.217,168.9073 L141.704,168.3483 C141.433,167.6543 141.054,166.9963 140.591,166.3953 L141.06,165.1193 C141.076,165.0743 141.058,165.0193 141.015,164.9803 L139.534,163.6653 C139.49,163.6273 139.431,163.6143 139.387,163.6343 L138.113,164.1953 C137.453,163.8003 136.743,163.4913 136.005,163.2903 L135.299,161.8803 C135.274,161.8313 135.222,161.7963 135.168,161.7933 L133.339,161.686206 C133.286,161.6843 133.243,161.7143 133.233,161.7613 L132.946,163.1133 C132.257,163.2323 131.628,163.4643 131.077,163.7893 L129.61,163.0693 C129.558,163.0443 129.502,163.0503 129.469,163.0843 L128.364,164.2493 Z" id="Fill-267" fill="#3F4D94"></path>
                <path d="M135.9519,168.3498 C135.6239,168.1598 135.2439,168.0768 134.8909,168.1438 C134.5489,168.2088 134.2819,168.4058 134.1399,168.6968 C133.9969,168.9878 133.9969,169.3378 134.1389,169.6848 C134.2799,170.0308 134.5459,170.3298 134.8889,170.5288 C134.8889,170.5288 134.8889,170.5298 134.8899,170.5298 C135.2319,170.7268 135.6079,170.7998 135.9499,170.7348 C136.2929,170.6688 136.5599,170.4728 136.7019,170.1818 C136.8439,169.8908 136.8449,169.5398 136.7029,169.1938 C136.5569,168.8358 136.2799,168.5388 135.9519,168.3498 M134.6949,170.9278 C134.6949,170.9278 134.6939,170.9278 134.6939,170.9268 C134.2259,170.6568 133.8619,170.2468 133.6689,169.7748 C133.4759,169.3008 133.4759,168.8228 133.6709,168.4248 C133.8649,168.0278 134.2299,167.7588 134.6979,167.6688 C135.6629,167.4848 136.7739,168.1278 137.1719,169.1038 C137.3659,169.5768 137.3649,170.0558 137.1709,170.4538 C136.9759,170.8508 136.6119,171.1198 136.1439,171.2078 C135.6769,171.2978 135.1619,171.1988 134.6949,170.9278" id="Fill-269" fill="#5B7DD9"></path>
                <path d="M133.657,173.1721 C132.172,172.3131 131.037,170.8281 130.789,169.1951 C130.746,168.9131 130.731,168.6321 130.744,168.3601 C130.746,168.3241 130.748,168.2891 130.751,168.2551 L131.257,168.3851 C131.237,168.6571 131.248,168.9401 131.292,169.2251 C131.34,169.5401 131.425,169.8501 131.542,170.1501 C131.542,170.1511 131.543,170.1511 131.543,170.1511 C131.544,170.1531 131.544,170.1541 131.545,170.1561 C132.07,171.4871 133.234,172.6091 134.61,173.1371 C134.966,173.2741 135.336,173.3711 135.713,173.4221 C135.725,173.4231 135.737,173.4251 135.749,173.4271 L135.778,173.4301 C135.803,173.4331 135.828,173.4361 135.854,173.4391 C135.922,173.4451 135.99,173.4511 136.059,173.4551 C137.171,173.5201 138.153,173.1651 138.825,172.4561 C139.038,172.2321 139.212,171.9811 139.344,171.7081 C139.631,171.1201 139.727,170.4341 139.616,169.7051 C139.455,168.6391 138.87,167.6121 137.969,166.8141 C137.07,166.0141 135.961,165.5381 134.849,165.4751 C134.094,165.4311 133.386,165.5841 132.798,165.9161 L132.477,165.4881 C133.136,165.1151 133.931,164.9431 134.776,164.9931 C136.022,165.0651 137.264,165.5981 138.273,166.4931 C139.282,167.3891 139.938,168.5391 140.119,169.7341 C140.242,170.5501 140.135,171.3191 139.814,171.9791 C139.665,172.2841 139.47,172.5661 139.232,172.8181 C138.479,173.6111 137.378,174.0091 136.132,173.9371 C135.263,173.8871 134.414,173.6101 133.657,173.1721" id="Fill-271" fill="#5B7DD9"></path>
                <path d="M149.5173,141.8918 C149.4673,141.8658 149.4273,141.8198 149.4133,141.7648 C149.3573,141.5568 149.2983,141.3488 149.2363,141.1448 C149.2093,141.0588 149.2583,140.9828 149.3463,140.9748 C149.4333,140.9668 149.5253,141.0308 149.5523,141.1168 C149.6163,141.3248 149.6773,141.5378 149.7323,141.7498 C149.7553,141.8368 149.7023,141.9108 149.6143,141.9138 C149.5803,141.9158 149.5473,141.9078 149.5173,141.8918" id="Fill-273" fill="#5B7DD9"></path>
                <path d="M150.0105,145.2473 C149.9485,145.2143 149.9025,145.1503 149.9015,145.0853 C149.8885,144.6693 149.8565,144.2453 149.8065,143.8263 C149.7965,143.7403 149.8625,143.6773 149.9525,143.6853 C150.0435,143.6923 150.1255,143.7683 150.1355,143.8553 C150.1865,144.2833 150.2185,144.7153 150.2315,145.1403 C150.2345,145.2263 150.1615,145.2823 150.0705,145.2683 C150.0495,145.2643 150.0295,145.2573 150.0105,145.2473 M149.7175,148.4723 C149.6415,148.4323 149.5945,148.3493 149.6105,148.2763 C149.6965,147.8893 149.7635,147.4883 149.8125,147.0863 C149.8225,147.0033 149.9045,146.9583 149.9945,146.9853 C150.0855,147.0133 150.1515,147.1013 150.1405,147.1833 C150.0915,147.5943 150.0225,148.0023 149.9355,148.3983 C149.9175,148.4783 149.8305,148.5163 149.7405,148.4823 C149.7325,148.4783 149.7245,148.4763 149.7175,148.4723 M148.6495,151.4043 C148.6455,151.4013 148.6415,151.3993 148.6375,151.3973 C148.5545,151.3473 148.5175,151.2483 148.5545,151.1783 C148.7145,150.8753 148.8615,150.5613 148.9935,150.2443 C149.0105,150.2023 149.0285,150.1593 149.0455,150.1163 C149.0755,150.0423 149.1695,150.0183 149.2555,150.0613 C149.2565,150.0623 149.2565,150.0623 149.2575,150.0623 C149.3425,150.1073 149.3875,150.2033 149.3585,150.2773 C149.3405,150.3213 149.3225,150.3643 149.3045,150.4083 C149.1705,150.7313 149.0195,151.0533 148.8565,151.3613 C148.8215,151.4293 148.7305,151.4463 148.6495,151.4043 M146.8555,153.8943 C146.8405,153.8873 146.8245,153.8773 146.8115,153.8643 C146.7385,153.8003 146.7235,153.7003 146.7785,153.6433 C147.0455,153.3643 147.2995,153.0683 147.5345,152.7643 C147.5835,152.7013 147.6845,152.6983 147.7625,152.7593 C147.840494,152.8183 147.8635,152.9183 147.8155,152.9813 C147.5745,153.2923 147.3155,153.5943 147.0435,153.8793 C146.9985,153.9253 146.9215,153.9303 146.8555,153.8943 M144.4285,155.8223 C144.4025,155.8093 144.3785,155.7883 144.3585,155.7643 C144.2995,155.6873 144.3075,155.5923 144.3775,155.5503 C144.7165,155.3483 145.0465,155.1283 145.3585,154.8953 C145.4235,154.8483 145.5275,154.8683 145.5925,154.9403 C145.6575,155.0133 145.6575,155.1103 145.5935,155.1583 C145.2745,155.3943 144.9375,155.6193 144.5915,155.8263 C144.5445,155.8533 144.4825,155.8513 144.4285,155.8223 M141.4935,157.0933 C141.4565,157.0733 141.4235,157.0413 141.4035,157.0023 C141.3615,156.9183 141.3925,156.8313 141.4735,156.8083 C141.8665,156.6933 142.2555,156.5603 142.6305,156.4103 C142.7075,156.3803 142.8095,156.4213 142.8585,156.5023 C142.9075,156.5833 142.8855,156.6743 142.8075,156.7043 C142.4245,156.8563 142.0275,156.9933 141.6265,157.1103 C141.5835,157.1223 141.5355,157.1153 141.4935,157.0933 M138.1955,157.6413 C138.1455,157.6143 138.1045,157.5673 138.0905,157.5143 C138.0675,157.4283 138.1205,157.3533 138.2085,157.3493 C138.6375,157.3283 139.0665,157.2883 139.4855,157.2303 C139.5715,157.2183 139.6655,157.2783 139.6965,157.3643 C139.7265,157.4503 139.6815,157.5293 139.5955,157.5413 C139.1685,157.6013 138.7295,157.6423 138.2925,157.6633 C138.2595,157.6643 138.2255,157.6563 138.1955,157.6413 M134.6945,157.4333 C134.6325,157.3993 134.5875,157.3373 134.5845,157.2713 C134.5815,157.1853 134.6535,157.1283 134.7445,157.1433 C135.1895,157.2173 135.6375,157.2723 136.0765,157.3103 C136.1675,157.3173 136.2495,157.3933 136.2605,157.4803 C136.2705,157.5663 136.2055,157.6313 136.1145,157.6233 C135.6665,157.5853 135.2085,157.5273 134.7555,157.4533 C134.7345,157.4493 134.7135,157.4423 134.6945,157.4333 M131.1685,156.4883 C131.0925,156.4483 131.0455,156.3663 131.0615,156.2943 C131.0785,156.2143 131.1655,156.1763 131.2555,156.2093 C131.6905,156.3713 132.1355,156.5193 132.5765,156.6483 C132.6675,156.6753 132.7335,156.7643 132.7235,156.8463 C132.7135,156.9293 132.6325,156.9753 132.5415,156.9473 C132.0905,156.8153 131.6365,156.6653 131.1925,156.4993 C131.1845,156.4963 131.1765,156.4923 131.1685,156.4883 M128.8595,155.4543 C128.4955,155.2633 128.1335,155.0593 127.7815,154.8463 C127.6985,154.7953 127.6605,154.6973 127.6975,154.6263 C127.7345,154.5563 127.8305,154.5383 127.9155,154.5903 C128.3205,154.8353 128.7385,155.0673 129.1585,155.2843 C129.1595,155.2843 129.1605,155.2843 129.1605,155.2853 C129.2465,155.3293 129.2915,155.4253 129.2615,155.4993 C129.2325,155.5733 129.1375,155.5993 129.0515,155.5543 C128.9875,155.5203 128.9235,155.4873 128.8595,155.4543" id="Fill-275" fill="#5B7DD9"></path>
                <path d="M125.8474,153.5188 C125.8364,153.5128 125.8254,153.5058 125.8154,153.4978 C125.6244,153.3508 125.4364,153.2008 125.2564,153.0508 C125.1804,152.9888 125.1604,152.8888 125.2124,152.8288 C125.2644,152.7678 125.3674,152.7708 125.4424,152.8318 C125.6184,152.9788 125.8034,153.1258 125.9904,153.2708 C126.0674,153.3308 126.0914,153.4298 126.0434,153.4928 C126.0014,153.5468 125.9194,153.5558 125.8474,153.5188" id="Fill-277" fill="#5B7DD9"></path>
                <path d="M118.719,142.7043 C118.667,142.6773 118.625,142.6273 118.613,142.5703 C118.567,142.3613 118.525,142.1473 118.488,141.9353 C118.472,141.8493 118.533,141.7813 118.623,141.7843 C118.713,141.7883 118.798,141.8603 118.814,141.9473 C118.85,142.1543 118.891,142.3633 118.936,142.5683 C118.955,142.6553 118.898,142.7263 118.809,142.7263 C118.778,142.7263 118.747,142.7193 118.719,142.7043" id="Fill-279" fill="#5B7DD9"></path>
                <path d="M141.2932,130.8274 L141.2742,130.8154 C140.8842,130.5574 140.4812,130.3104 140.0762,130.0824 C139.9912,130.0344 139.9502,129.9364 139.9842,129.8644 C140.0182,129.7924 140.1132,129.7704 140.1992,129.8204 C140.6122,130.0544 141.0242,130.3064 141.4232,130.5694 C141.5042,130.6234 141.5372,130.7224 141.4962,130.7904 C141.4582,130.8524 141.3712,130.8674 141.2932,130.8274 M136.7272,128.5734 C136.6532,128.5354 136.6062,128.4554 136.6202,128.3844 C136.6342,128.3034 136.7192,128.2624 136.8092,128.2934 C137.2512,128.4444 137.6932,128.6134 138.1242,128.7974 C138.2122,128.8354 138.2672,128.9284 138.2452,129.0064 C138.2232,129.0844 138.1332,129.1174 138.0442,129.0804 C137.6222,128.9004 137.1892,128.7344 136.7562,128.5864 C136.7462,128.5834 136.7362,128.5784 136.7272,128.5734 M133.2512,127.7394 C133.1902,127.7074 133.1462,127.6464 133.1412,127.5824 C133.1362,127.4964 133.2062,127.4364 133.2972,127.4494 C133.7402,127.5114 134.1912,127.5914 134.6382,127.6874 C134.7302,127.7064 134.8022,127.7924 134.7992,127.8764 C134.7972,127.9614 134.7222,128.0134 134.6302,127.9934 C134.1922,127.8984 133.7512,127.8204 133.3162,127.7604 C133.2932,127.7574 133.2712,127.7504 133.2512,127.7394 M129.8212,127.6224 C129.7722,127.5974 129.7322,127.5534 129.7172,127.5004 C129.6922,127.4134 129.7432,127.3384 129.8312,127.3314 C130.2592,127.3004 130.6982,127.2854 131.1352,127.2894 C131.2242,127.2904 131.3112,127.3604 131.3292,127.4474 C131.3472,127.5344 131.2892,127.6034 131.1992,127.6024 C130.7722,127.5994 130.3412,127.6134 129.9222,127.6444 C129.8872,127.6474 129.8522,127.6394 129.8212,127.6224 M126.6042,128.2344 C126.5672,128.2164 126.5352,128.1844 126.5152,128.1464 C126.4712,128.0634 126.5002,127.9754 126.5802,127.9504 C126.9712,127.8264 127.3762,127.7194 127.7832,127.6294 C127.8662,127.6114 127.9642,127.6654 128.0012,127.7494 C128.0382,127.8344 128.0012,127.9184 127.9172,127.9364 C127.5192,128.0234 127.1222,128.1304 126.7392,128.2514 C126.6962,128.2644 126.6472,128.2584 126.6042,128.2344 M123.7542,129.5444 C123.7282,129.5304 123.7052,129.5114 123.6862,129.4874 C123.6252,129.4124 123.6322,129.3154 123.7012,129.2724 C124.0352,129.0634 124.3862,128.8674 124.7452,128.6894 C124.8182,128.6534 124.9212,128.6874 124.9762,128.7664 C125.0302,128.8464 125.0152,128.9384 124.9412,128.9754 C124.5912,129.1494 124.2472,129.3424 123.9182,129.5464 C123.8722,129.5754 123.8092,129.5724 123.7542,129.5444 M121.4062,131.4814 C121.3922,131.4744 121.3772,131.4654 121.3642,131.4534 C121.2912,131.3894 121.2742,131.2894 121.3282,131.2314 C121.5912,130.9474 121.8722,130.6734 122.1642,130.4154 C122.2242,130.3624 122.3292,130.3764 122.3972,130.4454 C122.4662,130.5144 122.4742,130.6124 122.4142,130.6654 C122.1282,130.9174 121.8532,131.1854 121.5952,131.4644 C121.5512,131.5124 121.4732,131.5174 121.4062,131.4814 M119.6772,133.9594 C119.6732,133.9584 119.6702,133.9564 119.6672,133.9544 C119.5832,133.9034 119.5442,133.8064 119.5812,133.7344 C119.7582,133.3894 119.9552,133.0494 120.1662,132.7234 C120.2102,132.6574 120.3102,132.6494 120.3902,132.7054 C120.4702,132.7614 120.5012,132.8594 120.4572,132.9264 C120.2502,133.2444 120.0572,133.5774 119.8842,133.9164 C119.8492,133.9834 119.7582,134.0024 119.6772,133.9594 M118.6532,136.8584 C118.5782,136.8194 118.5322,136.7374 118.5472,136.6654 C118.6302,136.2724 118.7332,135.8834 118.8522,135.5074 C118.8772,135.4304 118.9682,135.3994 119.0562,135.4394 C119.1452,135.4794 119.1952,135.5744 119.1712,135.6514 C119.0542,136.0194 118.9532,136.4004 118.8722,136.7854 C118.8552,136.8654 118.7682,136.9034 118.6792,136.8704 C118.6702,136.8674 118.6622,136.8634 118.6532,136.8584 M118.3822,140.0364 C118.3192,140.0044 118.2742,139.9404 118.2722,139.8754 C118.2582,139.4594 118.2632,139.0394 118.2872,138.6294 C118.2922,138.5454 118.3702,138.4944 118.4602,138.5164 C118.5512,138.5394 118.6222,138.6254 118.6172,138.7094 C118.5942,139.1114 118.5892,139.5214 118.6032,139.9294 C118.6062,140.0154 118.5342,140.0714 118.4422,140.0564 C118.4212,140.0534 118.4012,140.0464 118.3822,140.0364" id="Fill-281" fill="#5B7DD9"></path>
                <path d="M143.6936,132.676 C143.6786,132.668 143.6636,132.657 143.6506,132.646 C143.4746,132.489 143.2966,132.335 143.1196,132.188 C143.0446,132.125 143.0256,132.026 143.0766,131.966 C143.1286,131.905 143.2316,131.907 143.3066,131.971 C143.4876,132.121 143.6706,132.279 143.8486,132.438 C143.9216,132.503 143.9366,132.603 143.8816,132.659 C143.8376,132.706 143.7596,132.711 143.6936,132.676" id="Fill-283" fill="#5B7DD9"></path>
                <path d="M142.7141,136.0012 C142.6621,135.9332 142.5771,135.8962 142.5011,135.9072 L140.3391,136.2512 C139.4781,135.4802 138.5071,134.8102 137.4531,134.2792 L136.9031,132.0862 C136.8841,132.0092 136.8181,131.9422 136.7361,131.9202 L133.9761,131.1502 C133.8961,131.1282 133.8191,131.1552 133.7861,131.2182 L132.8361,132.9932 C131.7361,132.9242 130.6871,133.0302 129.7211,133.2932 L127.7451,131.7972 C127.6761,131.7442 127.5881,131.7332 127.5261,131.7702 L125.3941,133.0082 C125.3321,133.0442 125.3091,133.1192 125.3381,133.1952 L126.1551,135.3642 C125.5051,136.0402 124.9861,136.8452 124.6351,137.7572 L122.3921,137.8362 C122.3141,137.8392 122.2561,137.8902 122.2481,137.9642 L121.9941,140.4832 C121.9871,140.5572 122.0311,140.6372 122.1061,140.6822 L124.2111,141.9732 C124.3641,143.0252 124.6961,144.0662 125.1791,145.0582 L123.9801,146.6652 C123.9391,146.7222 123.9451,146.8062 123.9971,146.8732 L125.7691,149.1992 C125.8211,149.2672 125.9061,149.3052 125.9831,149.2922 L128.1441,148.9482 C129.0051,149.7202 129.9761,150.3902 131.0301,150.9202 L131.5801,153.1132 C131.5991,153.1902 131.6661,153.2572 131.7471,153.2792 L134.5071,154.0492 C134.5881,154.0712 134.6641,154.0442 134.6971,153.9822 L135.6471,152.2062 C136.7471,152.2752 137.7971,152.1692 138.7621,151.9062 L140.7381,153.4022 C140.8071,153.4552 140.8961,153.4662 140.9581,153.4302 L143.0891,152.1912 C143.1511,152.1552 143.1741,152.0802 143.1461,152.0042 L142.3281,149.8352 C142.9791,149.1592 143.4971,148.3552 143.8481,147.4422 L146.0911,147.3632 C146.1701,147.3612 146.2281,147.3102 146.2351,147.2362 L146.4891,144.7162 C146.4961,144.6432 146.4521,144.5632 146.3781,144.5182 L144.2731,143.2282 C144.1191,142.1742 143.7871,141.1342 143.3051,140.1422 L144.5031,138.5342 C144.5451,138.4782 144.5381,138.3952 144.4861,138.3262 L142.7141,136.0012 Z" id="Fill-285" fill="#3F4D94"></path>
                <path d="M134.9851,140.8019 C134.6411,140.6209 134.2701,140.5159 133.8991,140.4989 C133.3151,140.4709 132.8011,140.6639 132.4531,141.0409 C132.1051,141.4189 131.9631,141.9359 132.0551,142.4969 C132.1471,143.0589 132.4601,143.5969 132.9381,144.0129 C133.4161,144.4299 134.0011,144.6739 134.5851,144.7009 C135.1691,144.7289 135.6821,144.5349 136.0301,144.1589 C136.3791,143.7809 136.5201,143.2639 136.4281,142.7019 C136.3371,142.1419 136.0231,141.6029 135.5461,141.1869 C135.3711,141.0339 135.1821,140.9059 134.9851,140.8019 L134.9851,140.8019 Z M133.3321,144.8009 C133.0901,144.6739 132.8591,144.5159 132.6461,144.3289 C132.0611,143.8209 131.6771,143.1609 131.5651,142.4739 C131.4531,141.7869 131.6261,141.1549 132.0521,140.6929 C132.4781,140.2299 133.1071,139.9939 133.8221,140.0279 C134.5371,140.0619 135.2531,140.3609 135.8381,140.8699 C136.4231,141.3799 136.8061,142.0379 136.9181,142.7259 C137.0301,143.4119 136.8581,144.0449 136.4311,144.5079 C136.0051,144.9699 135.3771,145.2049 134.6611,145.1719 C134.2081,145.1509 133.7531,145.0219 133.3321,144.8009 L133.3321,144.8009 Z" id="Fill-287" fill="#5B7DD9"></path>
                <path d="M131.864,148.259 C128.955,146.73 126.996,143.642 127.292,140.706 C127.346,140.164 127.474,139.659 127.666,139.196 C128.707,136.69 131.619,135.429 134.835,136.324 C134.893,136.34 134.95,136.357 135.009,136.374 C135.397,136.491 135.781,136.638 136.153,136.812 C136.197,136.831 136.24,136.852 136.283,136.873 L136.135,137.285 C135.7,137.074 135.248,136.903 134.79,136.776 C134.785,136.774 134.781,136.773 134.777,136.772 C131.245,135.794 128.111,137.619 127.786,140.844 C127.461,144.072 130.073,147.499 133.61,148.486 C136.595,149.317 139.3,148.146 140.266,145.818 C140.444,145.389 140.563,144.92 140.614,144.417 C140.72,143.356 140.511,142.229 140.008,141.157 L140.455,141.043 C140.997,142.197 141.223,143.411 141.108,144.554 C141.053,145.096 140.925,145.601 140.733,146.064 C139.693,148.571 136.78,149.832 133.564,148.937 C132.971,148.771 132.401,148.541 131.864,148.259" id="Fill-289" fill="#5B7DD9"></path>
                <path d="M73.7614,163.4504 C73.7614,163.4504 74.1904,162.4844 74.4684,162.0274 C74.7464,161.5714 75.9334,160.2314 76.1354,160.5354 C76.3374,160.8384 77.1454,162.8794 76.7164,163.4504 C76.2864,164.0214 76.7444,165.0154 74.6084,165.6174 L73.7614,163.4504 Z" id="Fill-291" fill="#FFB27D"></path>
                <path d="M50.0271,157.3567 C50.0271,157.3567 60.9601,166.4827 65.2231,165.6377 C68.5561,164.9777 73.8261,163.3057 73.8261,163.3057 C73.8261,163.3057 75.2171,164.6277 74.8241,166.2137 C74.8241,166.2137 68.1101,172.5327 63.3261,172.5727 C55.8491,172.6367 52.3231,168.8677 52.3231,168.8677 L50.0271,157.3567 Z" id="Fill-293" fill="#6385DB"></path>
                <path d="M30.8528,253.6184 C30.8528,253.6184 31.1698,258.7384 32.1608,258.8114 C32.2918,258.8214 37.1848,258.8214 37.1848,258.8214 L43.4298,258.7854 C43.4298,258.7854 43.3888,257.2804 41.5628,256.9634 C39.7378,256.6444 36.6828,255.3614 35.5768,252.9484 C34.4138,250.4104 30.8528,253.6184 30.8528,253.6184" id="Fill-295" fill="#27385F"></path>
                <path d="M30.49232,253.9739 C30.49232,253.9739 32.3914,254.6099 33.8734,254.6099 C35.5264,254.6099 37.0294,254.1589 37.0294,254.1589 C37.0294,254.1589 37.3874,250.7029 39.3534,243.0869 C40.3854,239.0949 41.8574,233.9619 43.9524,227.5849 C49.7454,209.9589 51.5064,199.6479 51.6674,198.6709 C51.6764,198.6199 51.6794,198.5939 51.6794,198.5939 L51.6604,198.5849 L33.8514,190.7659 C33.8514,190.7659 36.0534,215.0589 33.2444,224.3829 C32.8514,225.6869 32.5144,227.2049 32.2254,228.8509 C30.4514,238.9789 30.49232,253.9739 30.49232,253.9739" id="Fill-297" fill="#2A4E96"></path>
                <path d="M39.3537,243.0871 C40.3847,239.0951 41.8577,233.9621 43.9527,227.5851 C49.7457,209.9591 51.5067,199.6481 51.6677,198.6711 C51.6657,198.6421 51.6647,198.6141 51.6607,198.5851 L33.8517,190.7661 C33.8517,190.7661 36.0527,215.0591 33.2447,224.3831 C32.8517,225.6871 39.3537,243.0871 39.3537,243.0871" id="Fill-299" fill="#233862"></path>
                <path d="M44.7624,253.6184 C44.7624,253.6184 45.0794,258.7384 46.0704,258.8114 C46.2014,258.8214 51.0944,258.8214 51.0944,258.8214 L57.3394,258.7854 C57.3394,258.7854 57.2984,257.2804 55.4724,256.9634 C53.6474,256.6444 50.5924,255.3614 49.4864,252.9484 C48.3234,250.4104 44.7624,253.6184 44.7624,253.6184" id="Fill-301" fill="#27385F"></path>
                <path d="M54.8596,191.3391 C54.8596,191.3391 55.0906,207.0801 52.3666,226.4081 C49.6436,245.7361 50.5666,253.9421 50.5666,253.9421 C50.5666,253.9421 48.6956,254.5481 47.9406,254.6101 C46.0166,254.7661 44.0436,254.1581 44.0436,254.1581 C44.0436,254.1581 40.1456,234.8221 41.2626,225.1491 C42.3806,215.4751 35.9246,191.9521 35.9246,191.9521 L54.8596,191.3391 Z" id="Fill-303" fill="#2A4E96"></path>
                <path d="M42.2312,154.5002 L45.7082,156.7802 L48.8742,155.8852 C49.4532,155.0592 49.6062,153.4672 49.6152,152.0882 C49.6232,150.7202 49.4902,149.5602 49.4902,149.5602 L44.8002,147.4902 L43.0502,146.7192 C43.0552,146.7462 43.1862,148.1552 43.2052,148.3612 C43.5322,152.0172 42.2312,154.5002 42.2312,154.5002" id="Fill-305" fill="#FFB27D"></path>
                <path d="M54.9392,195.7151 C50.6122,199.8931 34.2362,199.1901 33.2272,194.5871 C32.2202,189.9851 34.3282,155.4031 41.7192,153.2321 C43.2532,152.7801 51.4532,155.4311 51.4532,155.4311 C51.4532,155.4311 52.7392,158.7971 53.5842,163.0821 C53.7472,163.9161 54.2252,172.7531 54.5832,181.0211 C54.7502,184.8871 54.8912,188.6301 54.9632,191.3701 C55.0292,193.9381 55.0322,195.6231 54.9392,195.7151" id="Fill-307" fill="#739AF0"></path>
                <path d="M43.5559,148.426 C44.5079,150.035 47.8459,151.444 49.6149,152.088 C49.6229,150.72 49.4909,149.56 49.4909,149.56 L44.8009,147.49 C43.7639,147.477 43.1319,147.708 43.5559,148.426" id="Fill-309" fill="#FCA56B"></path>
                <path d="M51.2595,149.2746 C51.2595,149.2746 43.7025,151.6316 42.3065,146.9036 C40.9115,142.1736 38.9965,139.2946 43.7615,137.5886 C48.5285,135.8836 50.0025,137.4106 50.8525,138.8756 C51.7015,140.3396 53.1895,148.5396 51.2595,149.2746" id="Fill-311" fill="#FFB27D"></path>
                <path d="M50.5554,138.4202 C50.5554,138.4202 50.0734,143.9232 48.9354,143.6842 C47.7974,143.4442 46.5444,142.9342 46.7114,144.5932 C46.8784,146.2512 45.6044,149.0952 43.9634,149.088213 C40.4444,149.0732 36.6204,140.0432 37.5844,138.3302 C40.3644,133.3902 54.5734,132.3922 50.5554,138.4202" id="Fill-313" fill="#163560"></path>
                <path d="M49.4436,153.3508 C49.3456,153.3098 43.8176,150.8298 43.1716,151.0428 C42.5246,151.2568 41.7186,153.2318 41.7186,153.2318 L51.4536,155.4318 C51.4536,155.4318 50.6876,153.8738 49.4436,153.3508" id="Fill-315" fill="#6385DB"></path>
                <path d="M83.8601,180.1321 L52.8711,209.3091 C52.2641,209.8801 51.4981,210.0631 51.1691,209.7131 L50.1231,208.6021 C49.7941,208.2531 50.0221,207.4991 50.6301,206.9281 L81.6191,177.7511 C82.2261,177.1791 82.9921,176.9971 83.3211,177.3461 L84.3671,178.4571 C84.6951,178.8061 84.4671,179.5601 83.8601,180.1321" id="Fill-317" fill="#1F4D84"></path>
                <path d="M66.4699,196.5051 L52.8709,209.3091 C52.2639,209.8801 51.4979,210.0631 51.1689,209.7131 L50.1229,208.6021 C49.7939,208.2531 50.0219,207.4991 50.6299,206.9281 L64.2279,194.1241 L66.4699,196.5051 Z" id="Fill-319" fill="#739AF0"></path>
                <path d="M83.6799,146.6985 C89.0289,141.0125 96.6509,138.7465 103.8069,139.9855 C107.9779,140.7075 111.9899,142.6175 115.3019,145.7345 C124.3009,154.2015 124.7319,168.3585 116.2659,177.3565 C113.1489,180.6705 109.2619,182.8205 105.1459,183.7965 C98.0759,185.4695 90.3289,183.6735 84.6429,178.3225 C75.6449,169.8565 75.2119,155.6995 83.6799,146.6985 M76.7379,169.1155 C77.9279,173.0365 80.1309,176.7085 83.3289,179.7185 C93.0989,188.9095 108.4719,188.4395 117.6629,178.6715 C126.7339,169.0285 126.3969,153.9355 116.9959,144.7065 C116.8719,144.5825 116.7439,144.4605 116.6149,144.3395 C106.8469,135.1475 91.4749,135.6145 82.2839,145.3845 C76.1009,151.9555 74.2879,161.0615 76.7379,169.1155" id="Fill-321" fill="#1F4D84"></path>
                <path d="M116.2663,177.3567 C113.1493,180.6697 109.2623,182.8207 105.1453,183.7957 C98.0763,185.4687 90.3293,183.6717 84.6423,178.3227 C75.6443,169.8567 75.2123,155.6987 83.6793,146.6987 C89.0283,141.0127 96.6503,138.7477 103.8073,139.9867 C107.9773,140.7087 111.9903,142.6187 115.3023,145.7347 C124.3003,154.2007 124.7323,168.3587 116.2663,177.3567" id="Fill-323" fill="#B3CFF9" opacity="0.495843932"></path>
                <path d="M54.9631,191.3703 C37.8881,179.2033 39.3081,162.9673 39.3081,162.9673 C45.5491,166.4863 51.7421,174.2693 54.5831,181.0203 C54.7501,184.8873 54.8911,188.6303 54.9631,191.3703" id="Fill-325" fill="#6385DB"></path>
                <path d="M71.8161,185.8293 C73.0201,185.5523 73.8291,184.6413 73.9971,184.4823 C73.9971,184.4823 74.5101,184.5173 73.9131,185.6123 C73.8621,185.7043 73.7521,185.9393 73.6681,186.1053 C73.6331,186.1743 73.6811,186.2533 73.7571,186.2593 C74.4521,186.3113 75.1501,186.0373 76.4891,186.3153 C76.6741,186.3543 76.7281,186.7973 76.7201,186.9853 C76.7081,187.3053 76.7321,187.6623 76.3601,188.1513 C76.1451,188.4353 75.5431,188.7423 74.2031,189.2813 C73.6921,189.4873 72.2331,189.3323 70.8641,188.8623 L69.7711,188.3553 L70.1101,186.3243 L70.3851,186.3823 C70.8211,186.4743 71.3611,185.9403 71.8161,185.8293" id="Fill-327" fill="#739AF0"></path>
                <path d="M44.6071,155.4319 C44.6071,155.4319 29.2651,158.3539 49.1211,180.5719 C52.2961,184.1239 69.4541,188.7509 69.4541,188.7509 C69.4541,188.7509 71.1941,187.2709 70.3171,186.0719 C70.3171,186.0719 58.5031,177.4939 55.9041,176.1289 C54.7351,175.5159 51.3661,162.4379 49.4601,159.2869 C47.5541,156.1379 44.6071,155.4319 44.6071,155.4319" id="Fill-329" fill="#739AF0"></path>
                <path d="M74.1775,163.72 C74.1775,163.72 74.6785,162.76 74.7775,162.254 C74.8755,161.749 75.5075,160.274 75.7675,160.014 C75.8715,159.909 76.2155,160.044 76.2555,160.491 C76.2735,160.686 76.1775,161.039 76.0095,161.461 C75.7345,162.148 75.7805,163.079 75.6845,163.39 C75.4475,164.163 74.1775,163.72 74.1775,163.72" id="Fill-331" fill="#FFB27D"></path>
                <polygon id="Fill-333" fill="#C5CCD3" points="240.342 198.5412 239.655 199.4122 255.6 259.0182 256.953 259.0182"></polygon>
                <polygon id="Fill-335" fill="#EAF2FC" points="243.7395 198.4866 259.9935 259.0236 256.5905 259.0286 240.3365 198.4916"></polygon>
                <path d="M243.6809,196.678 C246.1929,199.057 243.0329,199.986 241.1389,199.989002 C239.2439,199.991 237.3019,198.642 236.7979,196.821 C236.1779,194.583 238.4139,193.106 240.3079,193.103997 C242.2019,193.101 242.3079,195.378 243.6809,196.678" id="Fill-337" fill="#C44E5A"></path>
                <path d="M244.9231,196.4211 C245.4131,198.2471 244.2761,199.7291 242.3811,199.732102 C240.4871,199.7341 238.5541,198.2561 238.0641,196.4301 C237.5731,194.6051 238.7111,193.1221 240.6061,193.120095 C242.4991,193.1171 244.4331,194.5961 244.9231,196.4211" id="Fill-339" fill="#F75E61"></path>
                <polygon id="Fill-341" fill="#C5CCD3" points="308.6897 198.5412 308.0017 199.4122 323.9347 259.0322 325.3287 259.0232"></polygon>
                <polygon id="Fill-343" fill="#EAF2FC" points="312.0862 198.4866 328.3572 259.0236 324.9542 259.0286 308.6832 198.4916"></polygon>
                <path d="M312.0276,196.678 C314.5396,199.057 311.3806,199.986 309.4856,199.989002 C307.5906,199.991 305.6486,198.642 305.1446,196.821 C304.5256,194.583 306.7606,193.106 308.6546,193.103997 C310.5486,193.101 310.6546,195.378 312.0276,196.678" id="Fill-345" fill="#C44E5A"></path>
                <path d="M313.2697,196.4211 C313.7597,198.2471 312.6227,199.7291 310.7277,199.732102 C308.8337,199.7341 306.9007,198.2561 306.4107,196.4301 C305.9197,194.6051 307.0577,193.1221 308.9527,193.120095 C310.8457,193.1171 312.7797,194.5961 313.2697,196.4211" id="Fill-347" fill="#F75E61"></path>
                <polygon id="Fill-349" fill="#D1DBE5" points="233.6662 221.5637 319.9772 221.4897 323.4182 219.2577 236.2352 219.2987"></polygon>
                <polygon id="Fill-351" fill="#F75E61" points="319.3733 204.2112 323.4123 219.2462 236.2243 219.3572 232.1853 204.3212"></polygon>
                <polygon id="Fill-353" fill="#EAF2FC" points="242.051 204.3098 241.966 204.5588 236.981 219.3558 236.224 219.3568 232.185 204.3218"></polygon>
                <polygon id="Fill-355" fill="#EAF2FC" points="264.0881 204.2815 259.0091 219.3285 247.0961 219.3435 249.1151 213.3655 252.1751 204.2965"></polygon>
                <polygon id="Fill-357" fill="#EAF2FC" points="286.1164 204.2532 281.0374 219.3002 269.1244 219.3162 274.2034 204.2692"></polygon>
                <polygon id="Fill-359" fill="#EAF2FC" points="308.1447 204.2287 303.0627 219.2727 291.1517 219.2877 296.2337 204.2447"></polygon>
                <polygon id="Fill-361" fill="#EAF2FC" points="319.3742 204.2151 323.4122 219.2461 313.1802 219.2601 318.2622 204.2161"></polygon>
                <polygon id="Fill-363" fill="#C5CCD3" points="232.175 204.3225 229.834 206.8915 233.7 221.5295 236.217 219.3385"></polygon>
                <polygon id="Fill-365" fill="#F75E61" points="325.6125 227.4387 329.6515 242.4737 242.4635 242.5847 238.4245 227.5487"></polygon>
                <polygon id="Fill-367" fill="#EAF2FC" points="248.2903 227.5364 248.2063 227.7854 243.2203 242.5834 242.4633 242.5844 238.4253 227.5494"></polygon>
                <polygon id="Fill-369" fill="#EAF2FC" points="270.3274 227.509 265.2494 242.555 253.3354 242.571 255.3544 236.593 258.4144 227.524"></polygon>
                <polygon id="Fill-371" fill="#EAF2FC" points="292.3567 227.4807 287.2777 242.5277 275.3637 242.5427 280.4427 227.4967"></polygon>
                <polygon id="Fill-373" fill="#EAF2FC" points="314.385 227.4563 309.302 242.4993 297.391 242.5153 302.473 227.4713"></polygon>
                <polygon id="Fill-375" fill="#EAF2FC" points="325.6145 227.4416 329.6515 242.4736 319.4195 242.4866 324.5015 227.4436"></polygon>
                <polygon id="Fill-377" fill="#D1DBE5" points="239.9065 244.7366 326.2185 244.6626 329.6595 242.4306 242.4755 242.4716"></polygon>
                <polygon id="Fill-379" fill="#C5CCD3" points="238.4153 227.4944 236.0753 230.0644 239.9403 244.7014 242.4573 242.5104"></polygon>
            </g>
        </g>
    </g>
</svg>