<?xml version="1.0" encoding="UTF-8"?>
<svg width="375px" height="231px" viewBox="0 0 375 231" version="1.1" xmlns="http://www.w3.org/2000/svg" xmlns:xlink="http://www.w3.org/1999/xlink">
    <title>8C766DBB-83E7-45AF-9895-5F5DC2EA43C3</title>
    <defs>
        <rect id="path-1" x="0.177681088" y="0.447901736" width="166" height="58" rx="8"></rect>
        <rect id="path-3" x="0.177681088" y="0.447901736" width="166" height="58" rx="8"></rect>
    </defs>
    <g id="Design" stroke="none" stroke-width="1" fill="none" fill-rule="evenodd">
        <g id="No-Result" transform="translate(-659.000000, -243.000000)">
            <g id="Group-3" transform="translate(659.000000, 243.000000)">
                <path d="M46.5646476,204.283652 C23.4352483,184.384253 20.2506131,154.501637 54.6982196,124.420812 C76.4418402,105.433541 41.2575154,83.8642966 54.6982196,55.7037131 C74.6702766,13.8588241 116.748823,38.9203145 142.45807,28.1148042 C147.000143,26.2077625 151.55892,23.1369403 156.121675,18.4261734 C158.690213,15.7774601 161.505344,13.4594385 164.518544,11.4593897 C164.980706,11.151751 165.447641,10.8512667 165.918553,10.5587318 C167.72345,9.44026248 169.59437,8.42910901 171.520973,7.51970684 C172.815981,6.90999403 174.134057,6.34559233 175.478383,5.82729669 C177.61101,5.00374717 179.800114,4.29387292 182.036946,3.69369929 C185.21242,2.84073729 188.481758,2.20638158 191.817119,1.77632338 C193.272014,1.58712958 194.73725,1.44006716 196.215214,1.32798175 C224.941638,-0.830258536 255.549366,4.95859724 272.232535,22.7006838 C275.590965,26.273903 292.585116,51.1105962 280.545838,76.5198016 C272.944429,92.5615287 304.789053,107.883842 316.106054,126.203049 C344.876228,172.778113 316.553898,204.248675 316.292987,204.856003 C285.774532,242.716745 207.437918,233.76403 156.121675,212.874017 C125.02257,200.214075 69.6940469,224.183052 46.5646476,204.283652 Z" id="Fill-1" fill="#B2B4BD" opacity="0.196629724"></path>
                <g id="slide1-copy" transform="translate(0.000000, 128.000000)">
                    <mask id="mask-2" fill="white">
                        <use xlink:href="#path-1"></use>
                    </mask>
                    <rect stroke="#E6E9EB" x="0.677681088" y="0.947901736" width="165" height="57" rx="8"></rect>
                    <text id="A-Copy-7" font-family="Roboto-Medium, Roboto" font-size="14" font-weight="400" letter-spacing="0.0875" fill="#FFFFFF">
                        <tspan x="143.177681" y="33.4479017">A</tspan>
                    </text>
                    <rect id="Rectangle" fill="#B2B4BD" opacity="0.50149891" x="43.1776811" y="10.4479017" width="104" height="5" rx="2.5"></rect>
                    <rect id="Rectangle-Copy-3" fill="#12B255" opacity="0.50149891" x="8.17768109" y="10.4479017" width="31" height="5" rx="2.5"></rect>
                    <rect id="Rectangle-Copy-4" fill="#B2B4BD" opacity="0.50149891" x="8.17768109" y="22.4479017" width="139" height="4" rx="2"></rect>
                    <rect id="Rectangle-Copy-5" fill="#B2B4BD" opacity="0.50149891" x="8.17768109" y="28.4479017" width="139" height="4" rx="2"></rect>
                    <rect id="Rectangle-Copy" fill="#B2B4BD" opacity="0.50149891" x="21.1776811" y="42.4479017" width="27" height="5" rx="2.5"></rect>
                    <rect id="Rectangle-Copy-2" fill="#B2B4BD" opacity="0.50149891" x="56.1776811" y="42.4479017" width="30" height="5" rx="2.5"></rect>
                    <circle id="Oval" fill="#B2B4BD" opacity="0.5" cx="13.1776811" cy="45.4479017" r="4"></circle>
                </g>
                <g id="slide1-copy-2" transform="translate(0.000000, 57.000000)">
                    <mask id="mask-4" fill="white">
                        <use xlink:href="#path-3"></use>
                    </mask>
                    <rect stroke="#E6E9EB" x="0.677681088" y="0.947901736" width="165" height="57" rx="8"></rect>
                    <text id="A-Copy-7" font-family="Roboto-Medium, Roboto" font-size="14" font-weight="400" letter-spacing="0.0875" fill="#FFFFFF">
                        <tspan x="143.177681" y="33.4479017">A</tspan>
                    </text>
                    <rect id="Rectangle" fill="#B2B4BD" opacity="0.50149891" x="43.1776811" y="10.4479017" width="104" height="5" rx="2.5"></rect>
                    <rect id="Rectangle-Copy-3" fill="#EF8C20" opacity="0.50149891" x="8.17768109" y="10.4479017" width="31" height="5" rx="2.5"></rect>
                    <rect id="Rectangle-Copy-4" fill="#B2B4BD" opacity="0.50149891" x="8.17768109" y="22.4479017" width="139" height="4" rx="2"></rect>
                    <rect id="Rectangle-Copy-5" fill="#B2B4BD" opacity="0.50149891" x="8.17768109" y="28.4479017" width="139" height="4" rx="2"></rect>
                    <rect id="Rectangle-Copy" fill="#B2B4BD" opacity="0.50149891" x="21.1776811" y="42.4479017" width="27" height="5" rx="2.5"></rect>
                    <rect id="Rectangle-Copy-2" fill="#B2B4BD" opacity="0.50149891" x="56.1776811" y="42.4479017" width="30" height="5" rx="2.5"></rect>
                    <circle id="Oval" fill="#B2B4BD" opacity="0.5" cx="13.1776811" cy="45.4479017" r="4"></circle>
                </g>
                <g id="Group-2" transform="translate(281.500000, 128.000000) scale(-1, 1) translate(-281.500000, -128.000000) translate(188.000000, 38.000000)">
                    <path d="M8.55179187,177.894287 C6.93521874,179.412427 4.89519399,179.898976 4.01899536,178.968418 L1.23326966,176.014559 C0.35707104,175.086659 0.964284673,173.08197 2.58352103,171.56383 L73.1042652,105.996348 C74.7208384,104.475549 76.7608631,103.991659 77.6370617,104.919559 L80.4227874,107.873417 C81.2963228,108.801317 80.6891092,110.806006 79.0725361,112.326805 L8.55179187,177.894287 Z" id="Fill-317" fill="#1F4D84"></path>
                    <path d="M45.5055969,143.606144 L8.72887787,177.897874 C7.07318857,179.41891 4.98380142,179.906387 4.08640146,178.974053 L1.23326966,176.014559 C0.335869697,175.084889 0.957776054,173.076375 2.61619301,171.555339 L39.5218999,137.142461 L45.5055969,143.606144 Z" id="Fill-319" fill="#F2BA1D"></path>
                    <path d="M78.502528,24.3315213 C92.8137422,9.35316496 113.206353,3.38395014 132.352184,6.64778825 C143.511667,8.54971813 154.245746,13.5811393 163.10698,21.7921025 C187.183745,44.0963134 188.336883,81.3894176 165.686156,105.092416 C157.346643,113.822327 146.947,119.485969 135.934669,122.056999 C117.018931,126.464102 96.2918836,121.732986 81.0790281,107.637104 C57.0049385,85.335527 55.8464499,48.0424227 78.502528,24.3315213 M59.6416747,83.1238349 C62.8263013,93.4558397 68.7218747,103.131719 77.280224,111.063199 C103.426276,135.281882 144.566834,134.043412 169.163391,108.304309 C193.438809,82.8945862 192.536944,43.1238776 167.378394,18.8050629 C167.046551,18.4783176 166.704002,18.1568423 166.358778,17.838002 C140.218079,-6.383316 99.080197,-5.15275078 74.4836402,20.5916223 C57.9369629,37.9064918 53.0850906,61.9011962 59.6416747,83.1238349" id="Fill-321" fill="#1F4D84"></path>
                    <path d="M164.794254,105.030939 C156.573798,113.694438 146.322624,119.319306 135.464872,121.868933 C116.821818,126.24383 96.3906769,121.544672 81.3923679,107.55703 C57.661968,85.4184291 56.5226556,48.3952403 78.8526508,24.8602284 C92.9595533,9.9913308 113.061032,4.06835279 131.936168,7.30833944 C142.933697,9.1963704 153.517171,14.1910229 162.251899,22.3393671 C185.982299,44.4779683 187.121611,81.5011571 164.794254,105.030939" id="Fill-323" fill="#B3CFF9" opacity="0.495843932"></path>
                </g>
            </g>
        </g>
    </g>
</svg>