<?xml version="1.0" encoding="UTF-8"?>
<svg width="17px" height="15px" viewBox="0 0 17 15" version="1.1" xmlns="http://www.w3.org/2000/svg" xmlns:xlink="http://www.w3.org/1999/xlink">
    <title>24982CD8-DB6F-4A31-99AB-D44B6A2700FA</title>
    <defs>
        <polygon id="path-1" points="-3.88578059e-16 0 16.1859154 0 16.1859154 14.5325531 -3.88578059e-16 14.5325531"></polygon>
    </defs>
    <g id="Design" stroke="none" stroke-width="1" fill="none" fill-rule="evenodd">
        <g id="question---comment" transform="translate(-819.000000, -321.000000)">
            <g id="Stats-Posted-Bookmarked-Copy" transform="translate(326.000000, 318.000000)">
                <g id="Group-10" transform="translate(493.000000, 3.000000)">
                    <g id="Group-3">
                        <mask id="mask-2" fill="white">
                            <use xlink:href="#path-1"></use>
                        </mask>
                        <g id="Clip-2"></g>
                        <path d="M14.7296154,8.51795311 C14.3306154,10.1299531 13.2266154,11.4899531 11.6226154,12.3469531 C9.54861541,13.4539531 6.94161541,13.5009531 4.81661541,12.4699531 C4.72861541,12.4269531 4.63061541,12.4049531 4.53361541,12.4049531 C4.48761541,12.4049531 4.44261541,12.4099531 4.39761541,12.4189531 L1.62561541,13.0099531 L2.34061541,10.8649531 C2.40461541,10.6729531 2.37561541,10.4629531 2.26261541,10.2949531 C1.38361541,8.99595311 1.10061541,7.46595311 1.46661541,5.99095311 C1.86561541,4.37895311 2.96861541,3.01995311 4.57361541,2.16295311 C7.80161541,0.43795311 12.0016154,1.35695311 13.9336154,4.21295311 C14.8126154,5.51295311 15.0946154,7.04195311 14.7296154,8.51795311 M15.0096154,3.48495311 C12.7176154,0.0939531099 7.76061541,-1.01404689 3.96061541,1.01595311 C2.02761541,2.04795311 0.693615415,3.70495311 0.204615415,5.67695311 C-0.225384585,7.41295311 0.0616154148,9.20095311 1.00861541,10.7489531 L0.0336154148,13.6769531 C-0.0403845852,13.8979531 0.00961541476,14.1419531 0.165615415,14.3159531 C0.290615415,14.4549531 0.466615415,14.5329531 0.649615415,14.5329531 C0.694615415,14.5329531 0.740615415,14.5279531 0.785615415,14.5179531 L4.45561541,13.7369531 C6.90961541,14.8439531 9.86861541,14.7579531 12.2346154,13.4939531 C14.1686154,12.4599531 15.5016154,10.8039531 15.9916154,8.82995311 C16.4466154,6.99295311 16.0976154,5.09395311 15.0096154,3.48495311" id="Fill-1" fill="#656A7C" mask="url(#mask-2)"></path>
                    </g>
                    <path d="M8.08651541,6.62535311 C7.72751541,6.62535311 7.43651541,6.92035311 7.43651541,7.27935311 C7.43651541,7.63935311 7.72751541,7.93035311 8.08651541,7.93035311 C8.44551541,7.93035311 8.73651541,7.63935311 8.73651541,7.27935311 L8.73651541,7.27135311 C8.73651541,6.91235311 8.44551541,6.62535311 8.08651541,6.62535311" id="Fill-4" fill="#656A7C"></path>
                    <path d="M4.78131541,6.62535311 C4.42231541,6.62535311 4.13131541,6.92035311 4.13131541,7.27935311 C4.13131541,7.63935311 4.42231541,7.93035311 4.78131541,7.93035311 C5.14031541,7.93035311 5.43131541,7.63935311 5.43131541,7.27935311 L5.43131541,7.27135311 C5.43131541,6.91235311 5.14031541,6.62535311 4.78131541,6.62535311" id="Fill-6" fill="#656A7C"></path>
                    <path d="M11.3912154,6.62535311 C11.0322154,6.62535311 10.7412154,6.92035311 10.7412154,7.27935311 C10.7412154,7.63935311 11.0322154,7.93035311 11.3912154,7.93035311 C11.7502154,7.93035311 12.0412154,7.63935311 12.0412154,7.27935311 L12.0412154,7.27135311 C12.0412154,6.91235311 11.7502154,6.62535311 11.3912154,6.62535311" id="Fill-8" fill="#656A7C"></path>
                </g>
            </g>
        </g>
    </g>
</svg>