<svg xmlns="http://www.w3.org/2000/svg" xmlns:xlink="http://www.w3.org/1999/xlink" viewBox="0 0 16.186 14.533"><defs><style>.cls-1{fill:#fff;}.cls-1,.cls-3{fill-rule:evenodd;}.cls-2{mask:url(#mask);}.cls-3{fill:#ef8c20;}</style><mask id="mask" x="0" y="0" width="16.186" height="14.533" maskUnits="userSpaceOnUse"><g id="mask-4"><polygon id="path-3" class="cls-1" points="0 0 16.186 0 16.186 14.533 0 14.533 0 0"/></g></mask></defs><g id="Layer_2" data-name="Layer 2"><g id="Layer_1-2" data-name="Layer 1"><g id="Group-10"><g id="Group-3"><g class="cls-2"><path id="Fill-1" class="cls-3" d="M15.01,3.485A8.655,8.655,0,0,0,3.961,1.016,7.286,7.286,0,0,0,.205,5.677a6.587,6.587,0,0,0,.8,5.072L.034,13.677a.65.65,0,0,0,.616.856.63.63,0,0,0,.136-.015l3.67-.781a8.955,8.955,0,0,0,7.779-.243A7.293,7.293,0,0,0,15.992,8.83a6.607,6.607,0,0,0-.982-5.345"/></g></g><path id="Fill-4" class="cls-1" d="M8.087,6.625a.653.653,0,1,0,.65.654V7.271a.647.647,0,0,0-.65-.646"/><path id="Fill-6" class="cls-1" d="M4.781,6.625a.653.653,0,1,0,.65.654V7.271a.647.647,0,0,0-.65-.646"/><path id="Fill-8" class="cls-1" d="M11.391,6.411a.867.867,0,1,0,.864.869V7.269a.859.859,0,0,0-.864-.858"/><path id="Fill-8-2" data-name="Fill-8" class="cls-1" d="M8.069,6.411a.867.867,0,1,0,.863.869V7.269a.858.858,0,0,0-.863-.858"/><path id="Fill-8-3" data-name="Fill-8" class="cls-1" d="M4.811,6.411a.867.867,0,1,0,.863.869V7.269a.858.858,0,0,0-.863-.858"/></g></g></g></svg>