<svg xmlns="http://www.w3.org/2000/svg" xmlns:xlink="http://www.w3.org/1999/xlink" viewBox="0 0 15.443 15.302"><defs><style>.cls-1{fill:#fff;}.cls-1,.cls-3{fill-rule:evenodd;}.cls-2{mask:url(#mask);}.cls-3{fill:#ef8c20;}</style><mask id="mask" x="0" y="0" width="15.443" height="15.302" maskUnits="userSpaceOnUse"><g id="mask-2"><polygon id="path-1" class="cls-1" points="0 0 15.443 0 15.443 15.302 0 15.302 0 0"/></g></mask></defs><g id="Layer_2" data-name="Layer 2"><g id="Layer_1-2" data-name="Layer 1"><g id="Group-3"><g class="cls-2"><path id="Fill-1" class="cls-3" d="M14.2,1.371v.54H1.247v-.54a.124.124,0,0,1,.124-.124h12.7a.125.125,0,0,1,.124.124Zm0,7.722v.5a.124.124,0,0,1-.124.123H1.371a.124.124,0,0,1-.124-.123v-.5ZM14.072,0H1.371A1.373,1.373,0,0,0,0,1.371V9.59a1.372,1.372,0,0,0,1.371,1.37H5.524l-1.307,3.5a.623.623,0,0,0,.365.8.636.636,0,0,0,.218.04.623.623,0,0,0,.26-.058.612.612,0,0,0,.324-.348L6.856,10.96H8.5L9.975,14.9a.624.624,0,0,0,1.152.04.617.617,0,0,0,.016-.477l-1.307-3.5h4.236a1.372,1.372,0,0,0,1.371-1.37V1.371A1.373,1.373,0,0,0,14.072,0Z"/></g></g></g></g></svg>