<?xml version="1.0" encoding="UTF-8"?>
<svg width="16px" height="16px" viewBox="0 0 16 16" version="1.1" xmlns="http://www.w3.org/2000/svg" xmlns:xlink="http://www.w3.org/1999/xlink">
    <title>6C6C167B-AFFE-42FD-BBD6-521DE75A59A3</title>
    <defs>
        <polygon id="path-1" points="0 0 15.4427 0 15.4427 15.3017 0 15.3017"></polygon>
    </defs>
    <g id="Design" stroke="none" stroke-width="1" fill="none" fill-rule="evenodd">
        <g id="question---comment" transform="translate(-673.000000, -322.000000)">
            <g id="Stats-Posted-Bookmarked-Copy" transform="translate(326.000000, 318.000000)">
                <g id="Group-3" transform="translate(347.000000, 4.000000)">
                    <mask id="mask-2" fill="white">
                        <use xlink:href="#path-1"></use>
                    </mask>
                    <g id="Clip-2"></g>
                    <path d="M14.196,1.371 L14.196,1.911 L1.247,1.911 L1.247,1.371 C1.247,1.303 1.302,1.247 1.371,1.247 L14.072,1.247 C14.14,1.247 14.196,1.303 14.196,1.371 L14.196,1.371 Z M1.247,7.892 L14.196,7.892 L14.196,3.112 L1.247,3.112 L1.247,7.892 Z M14.196,9.093 L14.196,9.59 C14.196,9.657 14.14,9.713 14.072,9.713 L1.371,9.713 C1.302,9.713 1.247,9.657 1.247,9.59 L1.247,9.093 L14.196,9.093 Z M14.072,0 L1.371,0 C0.615,0 0,0.615 0,1.371 L0,9.59 C0,10.346 0.615,10.96 1.371,10.96 L5.524,10.96 L4.217,14.459 C4.158,14.615 4.164,14.785 4.233,14.936 C4.302,15.088 4.426,15.203 4.582,15.262 C4.653,15.288 4.727,15.302 4.8,15.302 C4.889,15.302 4.977,15.282 5.06,15.244 C5.212,15.175 5.327,15.051 5.384,14.896 L6.856,10.96 L8.504,10.96 L9.975,14.896 C10.095,15.218 10.451,15.379 10.778,15.262 C10.933,15.203 11.057,15.088 11.127,14.936 C11.196,14.785 11.202,14.615 11.143,14.459 L9.836,10.96 L14.072,10.96 C14.828,10.96 15.443,10.346 15.443,9.59 L15.443,1.371 C15.443,0.615 14.828,0 14.072,0 L14.072,0 Z" id="Fill-1" fill="#656A7C" mask="url(#mask-2)"></path>
                </g>
            </g>
        </g>
    </g>
</svg>