<?xml version="1.0" encoding="UTF-8"?>
<svg width="17px" height="17px" viewBox="0 0 17 17" version="1.1" xmlns="http://www.w3.org/2000/svg" xmlns:xlink="http://www.w3.org/1999/xlink">
    <title>AA09C3B3-A991-43B7-A7EF-BC49DD5E8436</title>
    <defs>
        <polygon id="path-1" points="0 0 11.5502335 0 11.5502335 11.5431908 0 11.5431908"></polygon>
    </defs>
    <g id="Design" stroke="none" stroke-width="1" fill="none" fill-rule="evenodd">
        <g id="home---question" transform="translate(-418.000000, -1035.000000)">
            <g id="Group-11" transform="translate(406.000000, 1027.000000)">
                <g id="Group-9" transform="translate(12.000000, 8.000000)">
                    <polygon id="Fill-1" fill="#557CE0" points="7.80545113 4.88547665 8.22650376 4.94263169 6.19830827 6.41160162 3.40789474 5.86052463 1 7.23907016 1.52725564 8 3.59492481 6.81083387 6.44548872 7.378119 8.87593985 5.61654937 8.84116541 5.964598 9.81954887 6.04905097 10 4.27212625 7.94830827 4"></polygon>
                    <polygon id="Fill-2" fill="#7B4A94" points="11 10.2743428 10.2748148 11 9 9.72343576 9.7237037 9"></polygon>
                    <g id="Group-8">
                        <g id="Group-5">
                            <mask id="mask-2" fill="white">
                                <use xlink:href="#path-1"></use>
                            </mask>
                            <g id="Clip-4"></g>
                            <path d="M9.05473025,9.05884232 C7.24032117,10.8722493 4.2985838,10.8713288 2.48417471,9.05792181 C0.670686647,7.24359433 0.670686647,4.3034817 2.48601675,2.49099523 C4.29950482,0.678508772 7.24032117,0.678508772 9.05473025,2.49099523 C10.8728234,4.30256119 10.8774285,7.24359433 9.06486147,9.06068334 L9.06117739,9.0652859 L9.05473025,9.05884232 Z M1.68657153,1.69475309 C-0.566242998,3.95184644 -0.561637898,7.60627572 1.69670275,9.857846 C3.95412238,12.1084958 7.61057114,12.1048137 9.86338567,9.84772038 C12.1125161,7.59522959 12.1125161,3.94816439 9.86338567,1.69475309 C7.61057114,-0.561419753 3.95412238,-0.566022309 1.69670275,1.68554797 C1.69301867,1.68830951 1.69025561,1.69199155 1.68657153,1.69475309 L1.68657153,1.69475309 Z" id="Fill-3" fill="#7B4A94" mask="url(#mask-2)"></path>
                        </g>
                        <path d="M11.2712566,9.96637427 L9.9624874,11.2744206 C9.80130893,11.4401126 9.80130893,11.7052198 9.9624874,11.8709118 L14.9728353,16.8784925 C15.1395399,17.0405025 15.4038726,17.0405025 15.5705772,16.8784925 L16.8784254,15.5713667 C17.0405249,15.4047542 17.0405249,15.1405675 16.8784254,14.9739549 L11.8763666,9.96637427 C11.7105831,9.80436431 11.4453293,9.80436431 11.2786248,9.96637427" id="Fill-6" fill="#7B4A94"></path>
                    </g>
                </g>
            </g>
        </g>
    </g>
</svg>