<svg xmlns="http://www.w3.org/2000/svg" xmlns:xlink="http://www.w3.org/1999/xlink" width="15" height="11" viewBox="0 0 15 11">
  <defs>
    <polygon id="back-a" points="0 0 10.168 0 10.168 14.983 0 14.983"/>
  </defs>
  <g fill="none" fill-rule="evenodd" transform="rotate(-90 5.5 5.5)">
    <mask id="back-b" fill="#fff">
      <use xlink:href="#back-a"/>
    </mask>
    <path fill="#3A3A3A" d="M9.93252341,4.51622408 L5.65521572,0.238966555 C5.63479766,0.218247492 5.61322575,0.198682274 5.5906505,0.180270903 C5.59055017,0.180170569 5.59039967,0.180070234 5.59024916,0.1799699 C5.57003177,0.163464883 5.54891137,0.148013378 5.5271388,0.133565217 C5.52302508,0.130856187 5.51876087,0.128598662 5.51464716,0.125939799 C5.49658696,0.114451505 5.47832609,0.103364548 5.45936288,0.0933311037 C5.45434615,0.0906722408 5.4492291,0.0885652174 5.44421237,0.086006689 C5.42575084,0.0767257525 5.40718896,0.0677959866 5.38792475,0.0599197324 C5.38335953,0.0580635452 5.37874415,0.0566086957 5.37412876,0.0548528428 C5.35431271,0.0471772575 5.33434615,0.0398528428 5.31377759,0.0337324415 C5.31011538,0.0326287625 5.30635284,0.0319264214 5.3027408,0.0309230769 C5.28136957,0.0248528428 5.25984783,0.0193344482 5.23782441,0.0150702341 C5.23506522,0.0145183946 5.23235619,0.0143177258 5.22959699,0.0138160535 C5.18238963,0.00513712375 5.13402843,2.00668896e-05 5.08431271,2.00668896e-05 C5.06394482,2.00668896e-05 5.04397826,0.00157525084 5.02396154,0.00303010033 C5.01809197,0.00348160535 5.01217224,0.0033812709 5.00630268,0.00393311037 C4.98999833,0.00548829431 4.97414548,0.00834782609 4.95814214,0.0109063545 C4.94805853,0.0125117057 4.93787458,0.0135652174 4.92784114,0.0155217391 C4.91379431,0.0182809365 4.900199,0.0220936455 4.88645318,0.0256053512 C4.87451338,0.0286153846 4.86252341,0.0312742475 4.85068395,0.0348361204 C4.83949666,0.0382474916 4.8287107,0.0424615385 4.81772408,0.0463244147 C4.80362709,0.0512909699 4.78942977,0.0560568562 4.77558361,0.0617759197 C4.76765719,0.0650869565 4.76013211,0.0690501672 4.75240635,0.0725618729 C4.73595151,0.0799866221 4.71949666,0.0875117057 4.70354348,0.0961404682 C4.6992291,0.0984481605 4.69516555,0.101157191 4.69090134,0.103565217 C4.62839298,0.138732441 4.56924582,0.18212709 4.51601839,0.235354515 L0.235148829,4.51622408 C-0.0783963211,4.8299699 -0.0783963211,5.33831438 0.235148829,5.65185953 C0.54869398,5.96540468 1.05703846,5.96540468 1.37058361,5.65185953 L4.28163712,2.74075585 L4.28163712,14.1804883 C4.28163712,14.6235652 4.64123579,14.9831639 5.08431271,14.9831639 C5.52738963,14.9831639 5.88698829,14.6235652 5.88698829,14.1804883 L5.88698829,2.74055518 L8.79809197,5.65085619 C8.95426254,5.8080301 9.15984783,5.8862408 9.36518227,5.8862408 C9.57076756,5.8862408 9.77615217,5.8080301 9.93252341,5.65185953 C10.2460686,5.33831438 10.2460686,4.8299699 9.93252341,4.51622408" mask="url(#back-b)"/>
  </g>
</svg>
