<?xml version="1.0" encoding="UTF-8"?>
<svg width="12px" height="15px" viewBox="0 0 12 15" version="1.1" xmlns="http://www.w3.org/2000/svg" xmlns:xlink="http://www.w3.org/1999/xlink">
    <title>A3A6EF84-02C0-403C-98CB-F90683165B87</title>
    <g id="Design" stroke="none" stroke-width="1" fill="none" fill-rule="evenodd">
        <g id="question---related-media" transform="translate(-635.000000, -322.000000)" fill="#B2B4BD">
            <g id="Stats-Posted-Bookmarked-Copy" transform="translate(326.000000, 318.000000)">
                <path d="M318.636226,4 L310.449057,4 C309.652075,4 309,4.65207547 309,5.4490566 L309,18.0920755 C309,18.4362264 309.199281,18.7622642 309.50717,18.9071698 C309.833208,19.0520755 310.195472,19.0158491 310.46717,18.7984906 L310.485283,18.7803774 L314.542642,15.3569811 L318.600035,18.7803774 L318.618113,18.7984906 C318.781167,18.925283 318.980413,18.9977358 319.179623,18.9977358 C319.306415,18.9977358 319.451321,18.9615094 319.578113,18.8890566 C319.886038,18.7441509 320.085283,18.4181132 320.085283,18.0739623 L320.085283,5.4490566 C320.085283,4.65207547 319.433208,4 318.636226,4" id="Fill-1-Copy-3"></path>
            </g>
        </g>
    </g>
</svg>