<?xml version="1.0" encoding="UTF-8"?>
<svg width="12px" height="15px" viewBox="0 0 12 15" version="1.1" xmlns="http://www.w3.org/2000/svg" xmlns:xlink="http://www.w3.org/1999/xlink">
    <title>BFD7623E-E38A-4EFD-9384-87E9FAB28C57</title>
    <g id="Design" stroke="none" stroke-width="1" fill="none" fill-rule="evenodd">
        <g id="home" transform="translate(-46.000000, -226.000000)" fill="#F2BA1D">
            <path d="M55.6362264,226 L47.4490566,226 C46.6520755,226 46,226.652075 46,227.449057 L46,240.092075 C46,240.436226 46.1992807,240.762264 46.5071698,240.90717 C46.8332075,241.052075 47.1954717,241.015849 47.4671698,240.798491 L47.485283,240.780377 L51.5426415,237.356981 L55.6000354,240.780377 L55.6181132,240.798491 C55.7811675,240.925283 55.9804127,240.997736 56.1796226,240.997736 C56.3064151,240.997736 56.4513208,240.961509 56.5781132,240.889057 C56.8860377,240.744151 57.085283,240.418113 57.085283,240.073962 L57.085283,227.449057 C57.085283,226.652075 56.4332075,226 55.6362264,226" id="bookmarks-default"></path>
        </g>
    </g>
</svg>