<svg xmlns="http://www.w3.org/2000/svg" xmlns:xlink="http://www.w3.org/1999/xlink" width="13" height="16" viewBox="0 0 13 16">
  <defs>
    <polygon id="calendar-a" points="0 .392 12.616 .392 12.616 13.263 0 13.263"/>
  </defs>
  <g fill="none" fill-rule="evenodd" transform="translate(0 .5)">
    <g transform="translate(0 .378)">
      <mask id="calendar-b" fill="#fff">
        <use xlink:href="#calendar-a"/>
      </mask>
      <path fill="#EF8C20" d="M3.19850556,3.15066316 C3.46139444,3.15066316 3.67589444,2.93255789 3.67589444,2.66361053 L3.67589444,2.35782105 L8.94017222,2.35782105 L8.94017222,2.66361053 C8.94017222,2.93255789 9.15467222,3.15066316 9.41756111,3.15066316 C9.68117222,3.15066316 9.89495,2.93255789 9.89495,2.66361053 L9.89495,2.35782105 L10.9233944,2.35782105 C11.3307278,2.35782105 11.6615056,2.69455789 11.6615056,3.1094 L11.6615056,3.96118947 L0.956005556,3.96118947 L0.956005556,3.1094 C0.956005556,2.69455789 1.28606111,2.35782105 1.69195,2.35782105 L2.72183889,2.35782105 L2.72183889,2.66361053 C2.72183889,2.93255789 2.93633889,3.15066316 3.19850556,3.15066316 L3.19850556,3.15066316 Z M11.6615056,4.93529474 L11.6615056,11.5366632 C11.6615056,11.9515053 11.3307278,12.2889789 10.9233944,12.2889789 L1.69195,12.2889789 C1.28606111,12.2889789 0.956005556,11.9515053 0.956005556,11.5366632 L0.956005556,4.93529474 L11.6615056,4.93529474 Z M10.9233944,1.38371579 L9.89495,1.38371579 L9.89495,0.878978947 C9.89495,0.610768421 9.68117222,0.391926316 9.41756111,0.391926316 C9.15467222,0.391926316 8.94017222,0.610768421 8.94017222,0.878978947 L8.94017222,1.38371579 L3.67589444,1.38371579 L3.67589444,0.878978947 C3.67589444,0.610768421 3.46139444,0.391926316 3.19850556,0.391926316 C2.93633889,0.391926316 2.72183889,0.610768421 2.72183889,0.878978947 L2.72183889,1.38371579 L1.69195,1.38371579 C0.758838889,1.38371579 -0.000216666667,2.1574 -0.000216666667,3.1094 L-0.000216666667,11.5366632 C-0.000216666667,12.4886632 0.758838889,13.2630842 1.69195,13.2630842 L10.9233944,13.2630842 C11.8565056,13.2630842 12.6155611,12.4886632 12.6155611,11.5366632 L12.6155611,3.1094 C12.6155611,2.1574 11.8565056,1.38371579 10.9233944,1.38371579 L10.9233944,1.38371579 Z" mask="url(#calendar-b)"/>
    </g>
    <path fill="#EF8C20" d="M3.20204444 3.56145263C3.48298889 3.56145263 3.71121111 3.27113684 3.71121111 2.91450526L3.71121111 1.38334737C3.71121111 1.02745263 3.48298889.737136842 3.20204444.737136842 2.9211.737136842 2.6936 1.02745263 2.6936 1.38334737L2.6936 2.91450526C2.6936 3.27113684 2.9211 3.56145263 3.20204444 3.56145263M9.41994444 3.56145263C9.70088889 3.56145263 9.92838889 3.27113684 9.92838889 2.91450526L9.92838889 1.38334737C9.92838889 1.02745263 9.70088889.737136842 9.41994444.737136842 9.13827778.737136842 8.91077778 1.02745263 8.91077778 1.38334737L8.91077778 2.91450526C8.91077778 3.27113684 9.13827778 3.56145263 9.41994444 3.56145263"/>
  </g>
</svg>
