<svg xmlns="http://www.w3.org/2000/svg" width="14" height="17" viewBox="0 0 14 17">
  <g fill="#EF8C20" fill-rule="evenodd">
    <path d="M9.37752296,8.90155136 L9.37731002,8.90155136 L7.19669624,8.90155136 L7.19669624,11.3778729 C7.19669624,11.6728353 6.95770251,11.911829 6.66277557,11.911829 C6.36784864,11.911829 6.12881942,11.6728353 6.12881942,11.3778729 L6.12881942,8.90155136 L3.94802818,8.90155136 C3.65313674,8.90155136 3.41410752,8.66252213 3.41410752,8.36763069 C3.41410752,8.0729167 3.65313674,7.83367453 3.94802818,7.83367453 L6.12881942,7.83367453 L6.12881942,5.6528833 C6.12881942,5.35795637 6.36784864,5.11892714 6.66277557,5.11892714 C6.95770251,5.11892714 7.19669624,5.35795637 7.19669624,5.6528833 L7.19669624,7.83367453 L9.37752296,7.83367453 C9.6724499,7.83367453 9.91144363,8.07270376 9.91144363,8.36763069 C9.91144363,8.66252213 9.6724499,8.90155136 9.37752296,8.90155136 L9.37752296,8.90155136 Z M9.69129541,4.27545741 C9.35679645,4.27545741 9.08557724,4.0042737 9.08557724,3.66973925 L9.08557724,0.0355012526 L1.81713674,0.0355012526 C0.813568894,0.0355012526 -1.77453027e-05,0.849052401 -1.77453027e-05,1.85262025 L-1.77453027e-05,15.1781714 C-1.77453027e-05,16.1817392 0.813568894,16.9952904 1.81713674,16.9952904 L11.5084499,16.9952904 C12.5119823,16.9952904 13.3255689,16.1817392 13.3255689,15.1781714 L13.3255689,4.27545741 L9.69129541,4.27545741 Z"/>
    <polygon points="10.297 .39 10.297 3.064 12.971 3.064"/>
  </g>
</svg>
