<svg xmlns="http://www.w3.org/2000/svg" xmlns:xlink="http://www.w3.org/1999/xlink" width="12" height="15"><rect id="backgroundrect" width="100%" height="100%" x="0" y="0" fill="none" stroke="none"/>
  <defs>
    <polygon id="delete-a" points="0 .994 12.192 .994 12.192 5.448 0 5.448"/>
  </defs>
  
<g class="currentLayer" style=""><title>Layer 1</title><g fill="#e84141" fill-rule="evenodd" id="svg_1" class="" fill-opacity="1">
    <g id="svg_2" fill="#e84141" fill-opacity="1">
      <mask id="delete-b" fill="#fff" transform="translate(0,-0.9940000176429749) translate(0,0.006000000052154064) ">
        <use xlink:href="#delete-a" id="svg_3"/>
      </mask>
      <path fill="#e84141" d="M4.6894,1.4120999824091793 C4.6894,1.1540999824091793 4.8994,0.943099982409179 5.1584,0.943099982409179 L7.0344,0.943099982409179 C7.2934,0.943099982409179 7.5034,1.1540999824091793 7.5034,1.4120999824091793 L7.5034,1.8810999824091792 L4.6894,1.8810999824091792 L4.6894,1.4120999824091793 zM11.0204,1.8810999824091792 L8.4404,1.8810999824091792 L8.4404,1.4120999824091793 C8.4404,0.6350999824091792 7.8114,0.005099982409179082 7.0344,0.005099982409179082 L5.1584,0.005099982409179082 C4.3814,0.005099982409179082 3.7524,0.6350999824091792 3.7524,1.4120999824091793 L3.7524,1.8810999824091792 L1.1724,1.8810999824091792 C0.5244,1.8810999824091792 0.0004000000000000003,2.406099982409179 0.0004000000000000003,3.054099982409179 L0.0004000000000000003,3.9920999824091794 C0.0004000000000000003,4.250099982409179 0.21040000000000006,4.460099982409179 0.4694000000000001,4.460099982409179 L11.7244,4.460099982409179 C11.9824,4.460099982409179 12.1924,4.250099982409179 12.1924,3.9920999824091794 L12.1924,3.054099982409179 C12.1924,2.406099982409179 11.6674,1.8810999824091792 11.0204,1.8810999824091792 L11.0204,1.8810999824091792 z" mask="url(#delete-b)" id="svg_4" fill-opacity="1"/>
    </g>
    <path fill="#e84141" d="M3.2826,6.571299982357025 C3.2826,6.312299982357025 3.4926,6.102299982357025 3.7516000000000003,6.102299982357025 C4.0106,6.102299982357025 4.2206,6.312299982357025 4.2206,6.571299982357025 L4.2206,12.668299982357025 C4.2206,12.926299982357024 4.0106,13.136299982357025 3.7516000000000003,13.136299982357025 C3.4926,13.136299982357025 3.2826,12.926299982357024 3.2826,12.668299982357025 L3.2826,6.571299982357025 zM5.6276,6.571299982357025 C5.6276,6.312299982357025 5.8376,6.102299982357025 6.0966000000000005,6.102299982357025 C6.3556,6.102299982357025 6.5656,6.312299982357025 6.5656,6.571299982357025 L6.5656,12.668299982357025 C6.5656,12.926299982357024 6.3556,13.136299982357025 6.0966000000000005,13.136299982357025 C5.8376,13.136299982357025 5.6276,12.926299982357024 5.6276,12.668299982357025 L5.6276,6.571299982357025 zM7.9716000000000005,6.571299982357025 C7.9716000000000005,6.312299982357025 8.1816,6.102299982357025 8.4406,6.102299982357025 C8.7006,6.102299982357025 8.9106,6.312299982357025 8.9106,6.571299982357025 L8.9106,12.668299982357025 C8.9106,12.926299982357024 8.7006,13.136299982357025 8.4406,13.136299982357025 C8.1816,13.136299982357025 7.9716000000000005,12.926299982357024 7.9716000000000005,12.668299982357025 L7.9716000000000005,6.571299982357025 zM0.8896000000000002,5.399299982357025 C0.8056000000000001,5.399299982357025 0.7396000000000001,5.468299982357025 0.7436000000000001,5.552299982357026 L1.1306,13.673299982357026 C1.1666,14.424299982357025 1.7836,15.012299982357025 2.5356,15.012299982357025 L9.6576,15.012299982357025 C10.4096,15.012299982357025 11.0266,14.424299982357025 11.0616,13.673299982357026 L11.4496,5.552299982357026 C11.4536,5.468299982357025 11.3866,5.399299982357025 11.3036,5.399299982357025 L0.8896000000000002,5.399299982357025 z" id="svg_5" fill-opacity="1"/>
  </g></g></svg>