<svg xmlns="http://www.w3.org/2000/svg" xmlns:xlink="http://www.w3.org/1999/xlink" width="13" height="17" viewBox="0 0 13 17">
  <defs>
    <polygon id="delete-a" points="0 .994 12.192 .994 12.192 5.448 0 5.448"/>
  </defs>
  <g fill="none" fill-rule="evenodd">
    <g transform="translate(0 .006)">
      <mask id="delete-b" fill="#fff">
        <use xlink:href="#delete-a"/>
      </mask>
      <path fill="#EF8C20" d="M4.6894,2.4001 C4.6894,2.1421 4.8994,1.9311 5.1584,1.9311 L7.0344,1.9311 C7.2934,1.9311 7.5034,2.1421 7.5034,2.4001 L7.5034,2.8691 L4.6894,2.8691 L4.6894,2.4001 Z M11.0204,2.8691 L8.4404,2.8691 L8.4404,2.4001 C8.4404,1.6231 7.8114,0.9931 7.0344,0.9931 L5.1584,0.9931 C4.3814,0.9931 3.7524,1.6231 3.7524,2.4001 L3.7524,2.8691 L1.1724,2.8691 C0.5244,2.8691 0.0004,3.3941 0.0004,4.0421 L0.0004,4.9801 C0.0004,5.2381 0.2104,5.4481 0.4694,5.4481 L11.7244,5.4481 C11.9824,5.4481 12.1924,5.2381 12.1924,4.9801 L12.1924,4.0421 C12.1924,3.3941 11.6674,2.8691 11.0204,2.8691 L11.0204,2.8691 Z" mask="url(#delete-b)"/>
    </g>
    <path fill="#EF8C20" d="M3.2826,7.5653 C3.2826,7.3063 3.4926,7.0963 3.7516,7.0963 C4.0106,7.0963 4.2206,7.3063 4.2206,7.5653 L4.2206,13.6623 C4.2206,13.9203 4.0106,14.1303 3.7516,14.1303 C3.4926,14.1303 3.2826,13.9203 3.2826,13.6623 L3.2826,7.5653 Z M5.6276,7.5653 C5.6276,7.3063 5.8376,7.0963 6.0966,7.0963 C6.3556,7.0963 6.5656,7.3063 6.5656,7.5653 L6.5656,13.6623 C6.5656,13.9203 6.3556,14.1303 6.0966,14.1303 C5.8376,14.1303 5.6276,13.9203 5.6276,13.6623 L5.6276,7.5653 Z M7.9716,7.5653 C7.9716,7.3063 8.1816,7.0963 8.4406,7.0963 C8.7006,7.0963 8.9106,7.3063 8.9106,7.5653 L8.9106,13.6623 C8.9106,13.9203 8.7006,14.1303 8.4406,14.1303 C8.1816,14.1303 7.9716,13.9203 7.9716,13.6623 L7.9716,7.5653 Z M0.8896,6.3933 C0.8056,6.3933 0.7396,6.4623 0.7436,6.5463 L1.1306,14.6673 C1.1666,15.4183 1.7836,16.0063 2.5356,16.0063 L9.6576,16.0063 C10.4096,16.0063 11.0266,15.4183 11.0616,14.6673 L11.4496,6.5463 C11.4536,6.4623 11.3866,6.3933 11.3036,6.3933 L0.8896,6.3933 Z"/>
  </g>
</svg>
