<svg xmlns="http://www.w3.org/2000/svg" width="19" height="18" viewBox="0 0 19 18">
  <g fill="#E50E56" fill-rule="evenodd">
    <path d="M9.3609,12.0264 C8.8379,12.0264 8.3989,12.4654 8.3989,12.9894 C8.3989,13.5124 8.8379,13.9514 9.3609,13.9514 C9.8649,13.9514 10.3229,13.5124 10.2999,13.0114 C10.3229,12.4624 9.8879,12.0264 9.3609,12.0264"/>
    <path d="M16.9576,14.6826 C16.6226,15.2596 16.0296,15.6026 15.3686,15.6026 L3.3306,15.6026 C2.6756,15.6026 2.0866,15.2676 1.7596,14.7016 C1.4286,14.1276 1.4246,13.4436 1.7556,12.8666 L7.7906,2.4206 C8.1176,1.8476 8.7026,1.5086 9.3646,1.5086 C10.0226,1.5086 10.6116,1.8506 10.9386,2.4246 L16.9696,12.8696 C17.2926,13.4316 17.2886,14.1086 16.9576,14.6826 M18.2736,12.1116 L12.2476,1.6736 C11.6506,0.6236 10.5726,-0.0004 9.3646,-0.0004 C8.1566,-0.0004 7.0786,0.6276 6.4816,1.6706 L0.4476,12.1196 C-0.1524,13.1696 -0.1494,14.4206 0.4586,15.4636 C1.0596,16.4956 2.1326,17.1146 3.3336,17.1146 L15.3726,17.1146 C16.5766,17.1146 17.6576,16.4876 18.2666,15.4366 C18.8706,14.3936 18.8746,13.1506 18.2736,12.1116 Z"/>
    <path d="M9.1222,5.2725 C8.6642,5.4035 8.3792,5.8185 8.3792,6.3235 C8.4022,6.6265 8.4212,6.9355 8.4452,7.2395 C8.5102,8.3975 8.5762,9.5335 8.6412,10.6915 C8.6642,11.0845 8.9682,11.3685 9.3612,11.3685 C9.7532,11.3685 10.0612,11.0645 10.0802,10.6685 C10.0802,10.4295 10.0802,10.2095 10.1032,9.9675 C10.1462,9.2245 10.1922,8.4825 10.2342,7.7395 C10.2572,7.2585 10.3002,6.7775 10.3232,6.2955 C10.3232,6.1235 10.3002,5.9695 10.2342,5.8145 C10.0382,5.3845 9.5802,5.1645 9.1222,5.2725"/>
  </g>
</svg>
