<?xml version="1.0" encoding="UTF-8"?>
<svg width="17px" height="17px" viewBox="0 0 17 17" version="1.1" xmlns="http://www.w3.org/2000/svg" xmlns:xlink="http://www.w3.org/1999/xlink">
    <title>6425AAE1-9A01-4AC3-A74B-860C8F210726</title>
    <defs>
        <polygon id="path-1" points="-1.77635684e-15 0 5.52020514 0 5.52020514 5.52046867 -1.77635684e-15 5.52046867"></polygon>
        <polygon id="path-3" points="3.40005801e-16 0 12.5141665 0 12.5141665 10.6885 3.40005801e-16 10.6885"></polygon>
    </defs>
    <g id="Design" stroke="none" stroke-width="1" fill="none" fill-rule="evenodd">
        <g id="home---question" transform="translate(-375.000000, -630.000000)">
            <g id="Group-4" transform="translate(365.000000, 623.000000)">
                <g id="Group-21" transform="translate(10.000000, 7.000000)">
                    <path d="M15.4873665,4.3206 L10.3103665,9.4976 C9.60036652,9.2886 8.85536652,8.5446 8.64836652,7.8366 C8.43936652,7.1266 7.69536652,6.3826 6.98636652,6.1746 L12.1633665,0.9966 L15.4873665,4.3206 Z" id="Fill-1" fill="#CCD6DD"></path>
                    <g id="Group-5" transform="translate(10.963661, 0.000000)">
                        <mask id="mask-2" fill="white">
                            <use xlink:href="#path-1"></use>
                        </mask>
                        <g id="Clip-4"></g>
                        <path d="M0.34310514,1.8539 L3.66710514,5.1779 L3.73510514,5.2459 C4.12110514,5.6319 4.77710514,5.6079 5.19210514,5.1929 C5.60810514,4.7769 5.63210514,4.1209 5.24610514,3.7349 L1.78510514,0.2739 C1.39910514,-0.1121 0.74410514,-0.0881 0.32810514,0.3289 C-0.0868948604,0.7439 -0.11189486,1.3989 0.27410514,1.7849 L0.34310514,1.8539 Z" id="Fill-3" fill="#8899A6" mask="url(#mask-2)"></path>
                    </g>
                    <g id="Group-8" transform="translate(-0.000000, 5.795500)">
                        <mask id="mask-4" fill="white">
                            <use xlink:href="#path-3"></use>
                        </mask>
                        <g id="Clip-7"></g>
                        <path d="M3.69816652,3.667 L0.685166517,6.68 C0.316166517,7.049 0.0971665168,7.513 0.0251665168,7.995 C-0.0768334832,8.691 0.131166517,9.426 0.650166517,9.968 L0.721166517,10.039 C1.63716652,10.917 3.10716652,10.905 4.00916652,10.003 L12.5141665,1.523 C11.7481665,1.371 10.1931665,1.786 9.26916652,0.832 C8.34416652,-0.123 8.13116652,0.152 7.36516652,0 L3.69816652,3.667 Z" id="Fill-6" fill="#40BD58" mask="url(#mask-4)"></path>
                    </g>
                    <path d="M6.00716652,10.4771 C6.33516652,10.8051 6.86816652,10.8051 7.19616652,10.4771 C7.52616652,10.1481 7.52616652,9.6151 7.19716652,9.2871 C6.86816652,8.9571 6.33516652,8.9571 6.00616652,9.2871 C5.67816652,9.6151 5.67816652,10.1481 6.00716652,10.4771 Z" id="Fill-9" fill="#399648"></path>
                    <path d="M3.81116652,11.8923 C3.74616652,11.8273 3.70616652,11.7383 3.70616652,11.6393 C3.70616652,11.4423 3.86616652,11.2823 4.06416652,11.2823 L4.06916652,11.2823 C4.26716652,11.2823 4.42616652,11.4423 4.42616652,11.6393 C4.42716652,11.8373 4.26716652,11.9973 4.06916652,11.9973 L4.06416652,11.9973 C3.96516652,11.9973 3.87616652,11.9573 3.81116652,11.8923" id="Fill-11" fill="#399648"></path>
                    <path d="M2.42036652,14.3598 C2.35536652,14.2948 2.31536652,14.2048 2.31536652,14.1058 C2.31636652,13.9088 2.47636652,13.7498 2.67436652,13.7498 L2.67936652,13.7498 C2.87736652,13.7508 3.03636652,13.9108 3.03536652,14.1078 C3.03536652,14.3058 2.87536652,14.4648 2.67736652,14.4648 L2.67236652,14.4648 C2.57336652,14.4638 2.48436652,14.4238 2.42036652,14.3598" id="Fill-13" fill="#399648"></path>
                    <path d="M13.0321665,2.8292 C12.8931665,2.9682 12.6661665,2.9682 12.5271665,2.8292 L11.4291665,1.7312 L11.9341665,1.2262 L13.0321665,2.3242 C13.1711665,2.4632 13.1721665,2.6892 13.0321665,2.8292" id="Fill-15" fill="#8899A6"></path>
                    <path d="M11.6855665,4.1759 C11.5455665,4.3159 11.3195665,4.3149 11.1805665,4.1759 L10.0825665,3.0779 L10.5875665,2.5729 L11.6855665,3.6709 C11.8245665,3.8099 11.8245665,4.0369 11.6855665,4.1759" id="Fill-17" fill="#8899A6"></path>
                    <path d="M10.3375665,5.5238 C10.1985665,5.6628 9.97156652,5.6628 9.83256652,5.5238 L8.73456652,4.4258 L9.23956652,3.9208 L10.3375665,5.0188 C10.4765665,5.1578 10.4765665,5.3848 10.3375665,5.5238" id="Fill-19" fill="#8899A6"></path>
                </g>
            </g>
        </g>
    </g>
</svg>