<?xml version="1.0" encoding="UTF-8"?>
<svg width="15px" height="15px" viewBox="0 0 15 15" version="1.1" xmlns="http://www.w3.org/2000/svg" xmlns:xlink="http://www.w3.org/1999/xlink">
    <title>6CE63E20-1B0B-41E3-A984-DF894BE9539D</title>
    <g id="Design" stroke="none" stroke-width="1" fill="none" fill-rule="evenodd">
        <g id="home" transform="translate(-45.000000, -866.000000)" fill="#FFFFFF">
            <path d="M53.0859375,874.377992 L53.0859375,875.331049 C53.0859375,875.654662 52.8236133,875.916986 52.5,875.916986 C52.1763867,875.916986 51.9140625,875.654662 51.9140625,875.331049 L51.9140625,873.866205 C51.9140625,873.542592 52.1763867,873.280268 52.5,873.280268 C53.1461719,873.280268 53.671875,872.754564 53.671875,872.108393 C53.671875,871.462221 53.1461719,870.936518 52.5,870.936518 C51.8538281,870.936518 51.328125,871.462221 51.328125,872.108393 C51.328125,872.432006 51.0658008,872.69433 50.7421875,872.69433 C50.4185742,872.69433 50.15625,872.432006 50.15625,872.108393 C50.15625,870.816049 51.2076562,869.764643 52.5,869.764643 C53.7923438,869.764643 54.84375,870.816049 54.84375,872.108393 C54.84375,873.1985 54.0956836,874.117191 53.0859375,874.377992 M52.5,877.821283 C52.095498,877.821283 51.7675781,877.493363 51.7675781,877.088861 C51.7675781,876.684389 52.095498,876.356439 52.5,876.356439 C52.904502,876.356439 53.2324219,876.684389 53.2324219,877.088861 C53.2324219,877.493363 52.904502,877.821283 52.5,877.821283 M52.5,865.999994 C48.3549609,865.999994 45,869.354398 45,873.499994 C45,877.645062 48.3544043,880.999994 52.5,880.999994 C56.6450391,880.999994 60,877.64559 60,873.499994 C60,869.354955 56.6455957,865.999994 52.5,865.999994" id="faq-default"></path>
        </g>
    </g>
</svg>