<svg xmlns="http://www.w3.org/2000/svg" xmlns:xlink="http://www.w3.org/1999/xlink" width="23" height="29" viewBox="0 0 23 29">
  <defs>
    <polygon id="file-a" points="0 .305 22.751 .305 22.751 28 0 28"/>
  </defs>
  <g fill="none" fill-rule="evenodd">
    <g transform="translate(0 .696)">
      <mask id="file-b" fill="#fff">
        <use xlink:href="#file-a"/>
      </mask>
      <path fill="#EF8C20" d="M17.0809,7.8405 L21.2769,7.8405 C21.2929,7.9275 21.3009,8.0035 21.3009,8.0665 L21.3009,26.3235 C21.3009,26.4445 21.1949,26.5505 21.0749,26.5505 L1.6759,26.5505 C1.5559,26.5505 1.4489,26.4445 1.4489,26.3235 L1.4489,1.9805 C1.4489,1.9215 1.4739,1.8645 1.5179,1.8215 C1.5599,1.7785 1.6169,1.7545 1.6759,1.7545 L14.6079,1.7545 C14.6719,1.7545 14.7469,1.7605 14.8339,1.7755 L14.8339,5.5945 C14.8369,6.8295 15.8449,7.8375 17.0809,7.8405 L17.0809,7.8405 Z M22.7499,8.0665 C22.7499,7.1905 22.2309,5.9885 21.5939,5.3895 L17.3429,1.3895 C16.7079,0.7905 15.4809,0.3045 14.6079,0.3045 L1.6759,0.3045 C0.7519,0.3045 -0.0001,1.0565 -0.0001,1.9805 L-0.0001,26.3235 C-0.0001,27.2485 0.7519,27.9995 1.6759,27.9995 L21.0749,27.9995 C21.9989,27.9995 22.7509,27.2485 22.7509,26.3235 L22.7499,8.0665 Z" mask="url(#file-b)"/>
    </g>
    <path fill="#EF8C20" d="M16.8914 21.9208L5.8604 21.9208C5.4604 21.9208 5.1354 22.2458 5.1354 22.6458 5.1354 23.0448 5.4604 23.3698 5.8604 23.3698L16.8914 23.3698C17.2904 23.3698 17.6164 23.0448 17.6164 22.6458 17.6164 22.2458 17.2904 21.9208 16.8914 21.9208M5.1356 15.0379C5.1356 15.4369 5.4606 15.7629 5.8606 15.7629L16.8916 15.7629C17.2906 15.7629 17.6156 15.4369 17.6156 15.0379 17.6156 14.6389 17.2906 14.3129 16.8916 14.3129L5.8606 14.3129C5.4606 14.3129 5.1356 14.6389 5.1356 15.0379M5.8602 11.9588L11.9462 11.9588C12.3452 11.9588 12.6712 11.6338 12.6712 11.2338 12.6712 10.8348 12.3452 10.5098 11.9462 10.5098L5.8602 10.5098C5.4612 10.5098 5.1352 10.8348 5.1352 11.2338 5.1352 11.6338 5.4612 11.9588 5.8602 11.9588M16.8914 18.117L5.8604 18.117C5.4604 18.117 5.1354 18.442 5.1354 18.842 5.1354 19.241 5.4604 19.566 5.8604 19.566L16.8914 19.566C17.2904 19.566 17.6164 19.241 17.6164 18.842 17.6164 18.442 17.2904 18.117 16.8914 18.117"/>
  </g>
</svg>
