<?xml version="1.0" encoding="UTF-8"?>
<svg width="14px" height="15px" viewBox="0 0 14 15" version="1.1" xmlns="http://www.w3.org/2000/svg" xmlns:xlink="http://www.w3.org/1999/xlink">
    <title>57A7F318-3016-4F2D-ACB6-ABCC1E4A8C1A</title>
    <g id="Design" stroke="none" stroke-width="1" fill="none" fill-rule="evenodd">
        <g id="home" transform="translate(-46.000000, -126.000000)" fill="#F2BA1D">
            <path d="M59.0257326,131.865982 L52.7757329,126.136794 C52.57209,125.950495 52.2589059,125.955036 52.060976,126.147048 L46.1581741,131.876207 C46.057129,131.974293 46,132.109205 46,132.249977 L46,140.479159 C46,140.766826 46.2331449,141 46.5208406,141 L50.8611206,141 C51.1487871,141 51.3819613,140.766826 51.3819613,140.479159 L51.3819613,136.65972 L53.8125216,136.65972 L53.8125216,140.479159 C53.8125216,140.766826 54.0456665,141 54.3333622,141 L58.6736422,141 C58.9613086,141 59.1944828,140.767002 59.1944828,140.479159 L59.1944828,132.250006 C59.1944828,132.10399 59.1333695,131.964772 59.0257326,131.865982" id="Fill-1"></path>
        </g>
    </g>
</svg>