<?xml version="1.0" encoding="UTF-8"?>
<svg width="18px" height="19px" viewBox="0 0 18 19" version="1.1" xmlns="http://www.w3.org/2000/svg" xmlns:xlink="http://www.w3.org/1999/xlink">
    <title>11439E2D-80CF-4DC0-9763-36CD40A413F1</title>
    <defs>
        <polygon id="path-1" points="0 0.08925 1.818 0.08925 1.818 0.91075 0 0.91075"></polygon>
        <polygon id="path-3" points="0 0 1.286 0 1.286 2.8929 0 2.8929"></polygon>
        <polygon id="path-5" points="0 0 2.8929 0 2.8929 1.286 0 1.286"></polygon>
        <polygon id="path-7" points="-3.55271368e-15 0 2.8929 0 2.8929 1.286 -3.55271368e-15 1.286"></polygon>
    </defs>
    <g id="Design" stroke="none" stroke-width="1" fill="none" fill-rule="evenodd">
        <g id="How-to-Section" transform="translate(-44.000000, -808.000000)">
            <g id="Group-25" transform="translate(44.000000, 808.000000)">
                <path d="M13.1495,8.499 C12.9145,6.585 11.4045,5.079 9.4905,4.849 C9.3255,4.831 9.1605,4.821 8.9945,4.821 C7.3025,4.824 5.7795,5.846 5.1365,7.411 C4.4925,8.975 4.8565,10.773 6.0565,11.965 C6.6955,12.576 7.0605,13.419 7.0715,14.303 L7.0715,14.786 L10.9285,14.786 L10.9285,14.3 C10.9315,13.433 11.2845,12.604 11.9065,12 C12.8475,11.093 13.3075,9.797 13.1495,8.499 L13.1495,8.499 Z" id="Fill-1" fill="#F2BA1D"></path>
                <g id="Group-5" transform="translate(8.091000, 17.089250)">
                    <mask id="mask-2" fill="white">
                        <use xlink:href="#path-1"></use>
                    </mask>
                    <g id="Clip-4"></g>
                    <path d="M0.909,0.91075 C1.318,0.91075 1.682,0.65275 1.818,0.26775 L0,0.26775 C0.136,0.65275 0.5,0.91075 0.909,0.91075" id="Fill-3" fill="#F2BA1D" mask="url(#mask-2)"></path>
                </g>
                <path d="M7.3929,16.3929 C7.3929,16.5699 7.5369,16.7139 7.7139,16.7139 L10.2859,16.7139 C10.4629,16.7139 10.6069,16.5699 10.6069,16.3929 L10.6069,15.4289 L7.3929,15.4289 L7.3929,16.3929 Z" id="Fill-6" fill="#F2BA1D"></path>
                <g id="Group-10" transform="translate(8.357000, 0.000000)">
                    <mask id="mask-4" fill="white">
                        <use xlink:href="#path-3"></use>
                    </mask>
                    <g id="Clip-9"></g>
                    <path d="M0.643,2.8929 C0.998,2.8929 1.286,2.6049 1.286,2.2499 L1.286,0.6429 C1.286,0.2879 0.998,-0.0001 0.643,-0.0001 C0.288,-0.0001 0,0.2879 0,0.6429 L0,2.2499 C0,2.6049 0.288,2.8929 0.643,2.8929" id="Fill-8" fill="#F2BA1D" mask="url(#mask-4)"></path>
                </g>
                <path d="M3.5746,4.4838 C3.8286,4.7268 4.2296,4.7268 4.4836,4.4838 C4.6046,4.3628 4.6726,4.1998 4.6726,4.0288 C4.6726,3.8588 4.6046,3.6948 4.4836,3.5748 L3.3476,2.4388 C3.2266,2.3178 3.0636,2.2498 2.8926,2.2498 C2.7226,2.2498 2.5586,2.3178 2.4386,2.4388 C2.3176,2.5588 2.2496,2.7228 2.2496,2.8928 C2.2496,3.0638 2.3176,3.2268 2.4386,3.3478 L3.5746,4.4838 Z" id="Fill-11" fill="#F2BA1D"></path>
                <g id="Group-15" transform="translate(0.000000, 8.357000)">
                    <mask id="mask-6" fill="white">
                        <use xlink:href="#path-5"></use>
                    </mask>
                    <g id="Clip-14"></g>
                    <path d="M2.8929,0.643 C2.8929,0.288 2.6049,0 2.2499,0 L0.6429,0 C0.2879,0 -0.0001,0.288 -0.0001,0.643 C-0.0001,0.998 0.2879,1.286 0.6429,1.286 L2.2499,1.286 C2.6049,1.286 2.8929,0.998 2.8929,0.643" id="Fill-13" fill="#F2BA1D" mask="url(#mask-6)"></path>
                </g>
                <path d="M4.1961,13.3488 C3.9741,13.2898 3.7371,13.3528 3.5751,13.5158 L2.4381,14.6528 C2.3181,14.7728 2.2501,14.9368 2.2501,15.1068 C2.2501,15.2778 2.3181,15.4408 2.4381,15.5618 C2.6931,15.8048 3.0931,15.8048 3.3471,15.5618 L4.4841,14.4258 C4.6471,14.2628 4.7111,14.0258 4.6511,13.8038 C4.5921,13.5818 4.4181,13.4078 4.1961,13.3488" id="Fill-16" fill="#F2BA1D"></path>
                <path d="M14.4254,13.5162 C14.2634,13.3532 14.0264,13.2892 13.8044,13.3492 C13.5814,13.4082 13.4084,13.5822 13.3484,13.8042 C13.2894,14.0262 13.3534,14.2632 13.5164,14.4252 L14.6524,15.5612 C14.9074,15.8042 15.3074,15.8042 15.5614,15.5612 C15.6824,15.4412 15.7504,15.2772 15.7504,15.1072 C15.7504,14.9362 15.6824,14.7732 15.5614,14.6522 L14.4254,13.5162 Z" id="Fill-18" fill="#F2BA1D"></path>
                <g id="Group-22" transform="translate(15.107100, 8.357100)">
                    <mask id="mask-8" fill="white">
                        <use xlink:href="#path-7"></use>
                    </mask>
                    <g id="Clip-21"></g>
                    <path d="M2.25,0 L0.643,0 C0.288,0 -3.55271368e-15,0.288 -3.55271368e-15,0.643 C-3.55271368e-15,0.998 0.288,1.286 0.643,1.286 L2.25,1.286 C2.605,1.286 2.893,0.998 2.893,0.643 C2.893,0.288 2.605,0 2.25,0" id="Fill-20" fill="#F2BA1D" mask="url(#mask-8)"></path>
                </g>
                <path d="M14.4254,4.4838 L15.5614,3.3478 C15.7244,3.1848 15.7874,2.9478 15.7284,2.7268 C15.6684,2.5048 15.4954,2.3318 15.2734,2.2718 C15.0514,2.2128 14.8154,2.2758 14.6524,2.4378 L13.5164,3.5748 C13.3954,3.6948 13.3274,3.8588 13.3274,4.0288 C13.3274,4.1998 13.3954,4.3628 13.5164,4.4838 C13.7704,4.7268 14.1714,4.7268 14.4254,4.4838" id="Fill-23" fill="#F2BA1D"></path>
            </g>
        </g>
    </g>
</svg>