<?xml version="1.0" encoding="UTF-8"?>
<svg width="20px" height="20px" viewBox="0 0 20 20" version="1.1" xmlns="http://www.w3.org/2000/svg" xmlns:xlink="http://www.w3.org/1999/xlink">
    <title>42628151-8F8F-44B7-B61E-59644C0799B7</title>
    <defs>
        <polygon id="path-1" points="0 0 1 0 1 2.5535 0 2.5535"></polygon>
        <polygon id="path-3" points="0 0 2.5538 0 2.5538 1 0 1"></polygon>
    </defs>
    <g id="Design" stroke="none" stroke-width="1" fill="none" fill-rule="evenodd">
        <g id="home---question" transform="translate(-376.000000, -410.000000)">
            <g id="Group-14" transform="translate(365.000000, 405.000000)">
                <g id="Group-29" transform="translate(11.000000, 5.000000)">
                    <path d="M11.801,17.9408 L11.801,18.4378 C11.801,18.4808 11.799,18.5248 11.794,18.5668 C11.729,19.1518 11.234,19.6058 10.632,19.6058 L8.841,19.6058 C8.239,19.6058 7.744,19.1518 7.679,18.5668 C7.674,18.5248 7.672,18.4808 7.672,18.4378 L7.672,17.9408 C7.827,18.0098 7.998,18.0478 8.178,18.0478 L11.295,18.0478 C11.475,18.0478 11.646,18.0098 11.801,17.9408" id="Fill-1" fill="#8899A6"></path>
                    <g id="Group-5" transform="translate(9.178000, 0.000000)">
                        <mask id="mask-2" fill="white">
                            <use xlink:href="#path-1"></use>
                        </mask>
                        <g id="Clip-4"></g>
                        <path d="M0.5,2.5535 C0.339,2.5535 0.208,2.4225 0.208,2.2615 L0.208,0.2915 C0.208,0.1305 0.339,-0.0005 0.5,-0.0005 C0.661,-0.0005 0.792,0.1305 0.792,0.2915 L0.792,2.2615 C0.792,2.4225 0.661,2.5535 0.5,2.5535" id="Fill-3" fill="#EF8C20" mask="url(#mask-2)"></path>
                    </g>
                    <path d="M4.4339,4.7258 C4.3589,4.7258 4.2839,4.6968 4.2269,4.6398 L2.8349,3.2478 C2.7209,3.1338 2.7209,2.9488 2.8349,2.8348 C2.9489,2.7198 3.1339,2.7208 3.2479,2.8348 L4.6409,4.2268 C4.7549,4.3408 4.7549,4.5258 4.6409,4.6398 C4.5839,4.6968 4.5089,4.7258 4.4339,4.7258" id="Fill-6" fill="#EF8C20"></path>
                    <g id="Group-10" transform="translate(0.000000, 9.177800)">
                        <mask id="mask-4" fill="white">
                            <use xlink:href="#path-3"></use>
                        </mask>
                        <g id="Clip-9"></g>
                        <path d="M2.2618,0.792 L0.2918,0.792 C0.1308,0.792 -0.0002,0.661 -0.0002,0.5 C-0.0002,0.338 0.1308,0.208 0.2918,0.208 L2.2618,0.208 C2.4228,0.208 2.5538,0.338 2.5538,0.5 C2.5538,0.661 2.4228,0.792 2.2618,0.792" id="Fill-8" fill="#E59A00" mask="url(#mask-4)"></path>
                    </g>
                    <path d="M3.0412,16.6066 C2.9662,16.6066 2.8912,16.5776 2.8342,16.5206 C2.7202,16.4066 2.7202,16.2216 2.8342,16.1076 L4.2272,14.7156 C4.3412,14.6016 4.5262,14.6016 4.6402,14.7156 C4.7542,14.8296 4.7542,15.0146 4.6402,15.1286 L3.2482,16.5206 C3.1912,16.5776 3.1162,16.6066 3.0412,16.6066" id="Fill-11" fill="#EF8C20"></path>
                    <path d="M16.3148,16.6066 C16.2398,16.6066 16.1648,16.5776 16.1078,16.5206 L14.7158,15.1286 C14.6018,15.0146 14.6018,14.8296 14.7158,14.7156 C14.8298,14.6016 15.0148,14.6016 15.1288,14.7156 L16.5218,16.1076 C16.6358,16.2216 16.6358,16.4066 16.5218,16.5206 C16.4648,16.5776 16.3898,16.6066 16.3148,16.6066" id="Fill-13" fill="#EF8C20"></path>
                    <path d="M19.0639,9.9698 L17.0939,9.9698 C16.9329,9.9698 16.8019,9.8388 16.8019,9.6778 C16.8019,9.5158 16.9329,9.3858 17.0939,9.3858 L19.0639,9.3858 C19.2249,9.3858 19.3559,9.5158 19.3559,9.6778 C19.3559,9.8388 19.2249,9.9698 19.0639,9.9698" id="Fill-15" fill="#EF8C20"></path>
                    <path d="M14.9221,4.7258 C14.8471,4.7258 14.7721,4.6968 14.7151,4.6398 C14.6011,4.5258 14.6011,4.3408 14.7151,4.2268 L16.1081,2.8348 C16.2221,2.7198 16.4071,2.7198 16.5211,2.8348 C16.6351,2.9488 16.6351,3.1338 16.5211,3.2478 L15.1291,4.6398 C15.0721,4.6968 14.9971,4.7258 14.9221,4.7258" id="Fill-17" fill="#EF8C20"></path>
                    <path d="M12.5411,16.8014 C12.5411,17.3094 12.2371,17.7464 11.8011,17.9404 C11.6461,18.0094 11.4751,18.0474 11.2951,18.0474 L8.1781,18.0474 C7.9981,18.0474 7.8271,18.0094 7.6721,17.9404 C7.2361,17.7464 6.9321,17.3094 6.9321,16.8014 C6.9321,16.8014 6.9131,14.9804 6.9101,14.9334 L6.9101,14.9314 L9.7361,14.5424 L12.5301,14.9314 L12.5411,16.8014 Z" id="Fill-19" fill="#50758D"></path>
                    <path d="M12.5411,16.7819 L11.5481,16.7819 C11.3861,16.7819 11.2561,16.6509 11.2561,16.4899 C11.2561,16.3289 11.3861,16.1979 11.5481,16.1979 L12.5381,16.1979 L12.5391,16.4899 L12.5411,16.7819 Z" id="Fill-21" fill="#8899A6"></path>
                    <path d="M10.4766,16.4898 C10.4766,16.6508 10.3456,16.7818 10.1846,16.7818 L6.9316,16.7818 L6.9246,16.1978 L10.1846,16.1978 C10.3456,16.1978 10.4766,16.3288 10.4766,16.4898" id="Fill-23" fill="#8899A6"></path>
                    <path d="M9.6831,3.525 L9.6831,3.525 L9.6831,3.525 C6.6751,3.479 4.1451,6.101 4.1991,9.087 C4.1991,10.611 4.8021,11.991 5.7801,12.996 C6.3561,13.589 6.8551,14.136 6.9101,14.932 L12.5301,14.941 C12.5621,14.122 13.0271,13.569 13.6081,12.963 C14.5671,11.962 15.1571,10.595 15.1571,9.087 C15.1571,6.017 12.7071,3.528 9.6831,3.525 Z" id="Fill-25" fill="#EF8C20"></path>
                    <path d="M9.8156,11.8711 C9.6986,12.0211 9.5216,12.1121 9.3316,12.1191 C9.3236,12.1191 9.3156,12.1201 9.3076,12.1201 C9.1266,12.1201 8.9536,12.0431 8.8316,11.9081 L7.0006,9.8821 C6.7626,9.6191 6.7826,9.2121 7.0466,8.9741 C7.3096,8.7361 7.7156,8.7571 7.9536,9.0201 L9.2706,10.4771 L11.3716,7.7721 C11.5886,7.4911 11.9926,7.4401 12.2726,7.6581 C12.5536,7.8761 12.6046,8.2801 12.3866,8.5601 L9.8156,11.8711 Z" id="Fill-27" fill="#FFE17D"></path>
                </g>
            </g>
        </g>
    </g>
</svg>