<svg xmlns="http://www.w3.org/2000/svg" xmlns:xlink="http://www.w3.org/1999/xlink" width="12" height="13" viewBox="0 0 12 13">
  <defs>
    <polygon id="link-a" points="0 .317 7.106 .317 7.106 8 0 8"/>
    <polygon id="link-c" points=".392 .225 7.775 .225 7.775 8.182 .392 8.182"/>
  </defs>
  <g fill="none" fill-rule="evenodd">
    <g transform="translate(0 4.776)">
      <mask id="link-b" fill="#fff">
        <use xlink:href="#link-a"/>
      </mask>
      <path fill="#EF8C20" d="M4.8819,5.1998 L3.4939,6.5878 C2.9189,7.1628 1.9869,7.1628 1.4129,6.5878 C0.8379,6.0118 0.8379,5.0808 1.4129,4.5058 L4.1879,1.7298 C4.7629,1.1558 5.6939,1.1558 6.2689,1.7298 C6.4609,1.9218 6.7719,1.9218 6.9629,1.7298 C7.1539,1.5388 7.1539,1.2278 6.9629,1.0358 C6.0059,0.0778 4.4519,0.0778 3.4939,1.0358 L0.7179,3.8118 C-0.2401,4.7698 -0.2401,6.3228 0.7179,7.2808 C1.6759,8.2398 3.2299,8.2398 4.1879,7.2808 L5.5759,5.8928 C5.7669,5.7018 5.7669,5.3908 5.5759,5.1998 C5.3839,5.0088 5.0729,5.0088 4.8819,5.1998" mask="url(#link-b)"/>
    </g>
    <g transform="translate(4 .776)">
      <mask id="link-d" fill="#fff">
        <use xlink:href="#link-c"/>
      </mask>
      <path fill="#EF8C20" d="M7.0567,0.943 C6.0987,-0.015 4.5447,-0.015 3.5867,0.943 L1.9227,2.608 C1.7307,2.799 1.7307,3.11 1.9227,3.301 C2.1147,3.493 2.4247,3.493 2.6167,3.301 L4.2817,1.637 C4.8567,1.062 5.7877,1.062 6.3637,1.637 C6.9377,2.212 6.9377,3.143 6.3637,3.718 L3.3107,6.771 C2.7357,7.345 1.8037,7.345 1.2287,6.771 C1.0367,6.579 0.7267,6.579 0.5357,6.771 C0.3437,6.963 0.3437,7.273 0.5357,7.464 C1.4937,8.422 3.0457,8.422 4.0037,7.464 L7.0567,4.412 C8.0147,3.454 8.0147,1.901 7.0567,0.943" mask="url(#link-d)"/>
    </g>
  </g>
</svg>
