<?xml version="1.0" encoding="UTF-8"?>
<svg width="17px" height="18px" viewBox="0 0 17 18" version="1.1" xmlns="http://www.w3.org/2000/svg" xmlns:xlink="http://www.w3.org/1999/xlink">
    <title>BBF346A1-D45E-42D7-B287-581C60514AB5</title>
    <defs>
        <polygon id="path-1" points="0.0002 0.5764 16.99 0.5764 16.99 3.1724 0.0002 3.1724"></polygon>
        <polygon id="path-3" points="0 17.4238 16.99 17.4238 16.99 0.9998 0 0.9998"></polygon>
    </defs>
    <g id="Design" stroke="none" stroke-width="1" fill="none" fill-rule="evenodd">
        <g id="question---related-media" transform="translate(-518.000000, -321.000000)">
            <g id="Stats-Posted-Bookmarked-Copy" transform="translate(326.000000, 318.000000)">
                <g id="Group-7-Copy-5" transform="translate(192.000000, 3.000000)">
                    <g id="Group-3" transform="translate(0.000000, 0.423800)">
                        <mask id="mask-2" fill="white">
                            <use xlink:href="#path-1"></use>
                        </mask>
                        <g id="Clip-2"></g>
                        <path d="M16.9902,3.1724 L16.9902,2.3064 C16.9902,1.8214 16.7352,1.5644 16.2532,1.5614 C16.0422,1.5614 15.8372,1.5614 15.6332,1.5624 L9.0972,1.5634 L9.0972,1.1794 C9.0972,0.8464 8.8272,0.5764 8.4952,0.5764 C8.1622,0.5764 7.8912,0.8464 7.8912,1.1794 L7.8912,1.5634 L0.7932,1.5634 C0.2292,1.5634 0.0002,1.7944 0.0002,2.3614 L0.0002,3.1724 L16.9902,3.1724 Z" id="Fill-1" fill="#B1B4BD" mask="url(#mask-2)"></path>
                    </g>
                    <mask id="mask-4" fill="white">
                        <use xlink:href="#path-3"></use>
                    </mask>
                    <g id="Clip-5"></g>
                    <polygon id="Fill-4" fill="#B1B4BD" mask="url(#mask-4)" points="0 11.0478 16.99 11.0478 16.99 4.5538 0 4.5538"></polygon>
                    <path d="M7.1934,14.5439 C7.3734,14.1839 7.5484,13.8319 7.7204,13.4929 C8.2424,13.4889 8.7584,13.4889 9.2674,13.4929 C9.4454,13.8389 9.6194,14.1869 9.7974,14.5439 L7.1934,14.5439 Z M0.0004,12.0049 L0.0004,12.7439 C0.0004,13.2519 0.2374,13.4899 0.7474,13.4899 L6.2714,13.4899 L4.7974,16.4369 C4.6244,16.7869 4.7114,17.1349 5.0184,17.3239 C5.1784,17.4189 5.3584,17.4459 5.5244,17.4009 C5.7034,17.3499 5.8544,17.2169 5.9514,17.0269 C6.1504,16.6379 6.3464,16.2479 6.5344,15.8549 C6.5364,15.8509 6.5384,15.8469 6.5404,15.8429 L6.5414,15.8429 C7.8364,15.8479 9.1294,15.8479 10.4514,15.8439 C10.4514,15.8459 10.4514,15.8469 10.4524,15.8499 C10.6404,16.2449 10.8364,16.6349 11.0354,17.0229 C11.1304,17.2119 11.2734,17.3409 11.4504,17.3969 C11.5084,17.4149 11.5684,17.4239 11.6274,17.4239 C11.7334,17.4239 11.8394,17.3959 11.9394,17.3409 C12.2684,17.1629 12.3704,16.7999 12.1914,16.4389 C11.9304,15.9109 11.6684,15.3859 11.4034,14.8589 L10.7174,13.4899 L16.2604,13.4899 C16.7454,13.4899 16.9904,13.2449 16.9904,12.7619 L16.9904,12.0049 L0.0004,12.0049 Z" id="Fill-6" fill="#B1B4BD" mask="url(#mask-4)"></path>
                </g>
            </g>
        </g>
    </g>
</svg>