<?xml version="1.0" encoding="utf-8"?>
<!-- Generator: Adobe Illustrator 25.4.1, SVG Export Plug-In . SVG Version: 6.00 Build 0)  -->
<svg version="1.1" id="Layer_1" xmlns="http://www.w3.org/2000/svg" xmlns:xlink="http://www.w3.org/1999/xlink" x="0px" y="0px"
	 viewBox="0 0 15.4 18" style="enable-background:new 0 0 15.4 18;" xml:space="preserve">
<style type="text/css">
	.st0{filter:url(#Adobe_OpacityMaskFilter);}
	.st1{fill-rule:evenodd;clip-rule:evenodd;fill:#FFFFFF;}
	.st2{mask:url(#mask-2_00000008856462013831747250000001350752219989225660_);fill-rule:evenodd;clip-rule:evenodd;fill:#F2BA1E;}
	.st3{fill-rule:evenodd;clip-rule:evenodd;fill:#F2BA1E;}
</style>
<g id="Design">
	<g id="home" transform="translate(-45.000000, -860.000000)">
		<g id="Group-10" transform="translate(45.000000, 750.000000)">
			<g id="Group-6" transform="translate(0.000000, 110.000000)">
				<g id="Group-3">
					<g id="Clip-2">
					</g>
					<defs>
						<filter id="Adobe_OpacityMaskFilter" filterUnits="userSpaceOnUse" x="0.2" y="0" width="14.8" height="14.8">
							<feColorMatrix  type="matrix" values="1 0 0 0 0  0 1 0 0 0  0 0 1 0 0  0 0 0 1 0"/>
						</filter>
					</defs>
					
						<mask maskUnits="userSpaceOnUse" x="0.2" y="0" width="14.8" height="14.8" id="mask-2_00000008856462013831747250000001350752219989225660_">
						<g class="st0">
							<polygon id="path-1_00000009589307089439739710000001749817055171354043_" class="st1" points="0.2,0 15,0 15,14.8 0.2,14.8 
															"/>
						</g>
					</mask>
					<path id="Fill-1" class="st2" d="M14.6,12.5c-1.1-0.9-1.8-2.3-1.8-3.8V6.7c0-2.6-1.9-4.8-4.4-5.1V0.7C8.4,0.3,8,0,7.6,0
						C7.2,0,6.9,0.3,6.9,0.7v0.8C4.4,1.9,2.4,4.1,2.4,6.7v2.1c0,1.5-0.6,2.9-1.8,3.8c-0.3,0.2-0.5,0.6-0.5,1c0,0.7,0.6,1.3,1.3,1.3
						h12.2c0.7,0,1.3-0.6,1.3-1.3C15,13.2,14.9,12.8,14.6,12.5"/>
				</g>
				<path id="Fill-4" class="st3" d="M7.6,17.8c1.3,0,2.5-1,2.7-2.2H4.9C5.1,16.8,6.3,17.8,7.6,17.8"/>
			</g>
		</g>
	</g>
</g>
</svg>
