<?xml version="1.0" encoding="UTF-8"?>
<svg width="15px" height="18px" viewBox="0 0 15 18" version="1.1" xmlns="http://www.w3.org/2000/svg" xmlns:xlink="http://www.w3.org/1999/xlink">
    <title>07293EF7-9594-46DF-9660-77190AF7E3E4</title>
    <defs>
        <polygon id="path-1" points="0 0 14.833 0 14.833 14.8338 0 14.8338"></polygon>
    </defs>
    <g id="Design" stroke="none" stroke-width="1" fill="none" fill-rule="evenodd">
        <g id="home" transform="translate(-45.000000, -860.000000)">
            <g id="Group-10" transform="translate(45.000000, 750.000000)">
                <g id="Group-6" transform="translate(0.000000, 110.000000)">
                    <g id="Group-3">
                        <mask id="mask-2" fill="white">
                            <use xlink:href="#path-1"></use>
                        </mask>
                        <g id="Clip-2"></g>
                        <path d="M14.3728,12.5438 C13.2518,11.5958 12.6088,10.2108 12.6088,8.7428 L12.6088,6.6748 C12.6088,4.0648 10.6698,1.9048 8.1588,1.5428 L8.1588,0.7418 C8.1588,0.3318 7.8258,-0.0002 7.4168,-0.0002 C7.0068,-0.0002 6.6748,0.3318 6.6748,0.7418 L6.6748,1.5428 C4.1628,1.9048 2.2248,4.0648 2.2248,6.6748 L2.2248,8.7428 C2.2248,10.2108 1.5818,11.5958 0.4538,12.5498 C0.1658,12.7968 -0.0002,13.1558 -0.0002,13.5358 C-0.0002,14.2508 0.5818,14.8338 1.2978,14.8338 L13.5358,14.8338 C14.2508,14.8338 14.8338,14.2508 14.8338,13.5358 C14.8338,13.1558 14.6678,12.7968 14.3728,12.5438" id="Fill-1" fill="#FFFFFF" mask="url(#mask-2)"></path>
                    </g>
                    <path d="M7.4167,17.8 C8.7597,17.8 9.8837,16.843 10.1417,15.575 L4.6917,15.575 C4.9497,16.843 6.0737,17.8 7.4167,17.8" id="Fill-4" fill="#FFFFFF"></path>
                </g>
            </g>
        </g>
    </g>
</svg>