<svg xmlns="http://www.w3.org/2000/svg" xmlns:xlink="http://www.w3.org/1999/xlink" width="25" height="31" viewBox="0 0 25 31">
  <defs>
    <polygon id="pdf-a" points="0 .496 24.02 .496 24.02 30 0 30"/>
  </defs>
  <g fill="none" fill-rule="evenodd">
    <path fill="#EF8C20" d="M5.9491 19.9824C5.9491 19.4924 5.6091 19.2004 5.0091 19.2004 4.7641 19.2004 4.5981 19.2234 4.5121 19.2474L4.5121 20.8194C4.6151 20.8424 4.7411 20.8504 4.9151 20.8504 5.5541 20.8504 5.9491 20.5274 5.9491 19.9824M9.6629 19.2168C9.3939 19.2168 9.2209 19.2388 9.1179 19.2638L9.1179 22.7448C9.2209 22.7698 9.3869 22.7698 9.5369 22.7698 10.6259 22.7778 11.3369 22.1778 11.3369 20.9058 11.3449 19.8008 10.6969 19.2168 9.6629 19.2168"/>
    <g transform="translate(0 .504)">
      <mask id="pdf-b" fill="#fff">
        <use xlink:href="#pdf-a"/>
      </mask>
      <path fill="#EF8C20" d="M16.5282,20.031 L16.5282,21.01 L14.6172,21.01 L14.6172,23.15 L13.4092,23.15 L13.4092,17.828 L16.6622,17.828 L16.6622,18.814 L14.6172,18.814 L14.6172,20.031 L16.5282,20.031 Z M7.9102,23.126 L7.9102,17.898 C8.3522,17.828 8.9282,17.789 9.5362,17.789 C10.5472,17.789 11.2022,17.969 11.7162,18.356 C12.2692,18.767 12.6162,19.422 12.6162,20.362 C12.6162,21.381 12.2452,22.084 11.7312,22.518 C11.1712,22.984 10.3182,23.205 9.2762,23.205 C8.6522,23.205 8.2102,23.165 7.9102,23.126 L7.9102,23.126 Z M20.8822,28.077 L4.7122,28.077 C4.0422,28.077 3.4962,27.531 3.4962,26.86 L3.4962,25.453 L18.5692,25.453 C19.2672,25.453 19.8352,24.886 19.8352,24.187 L19.8352,16.513 C19.8352,15.814 19.2672,15.248 18.5692,15.248 L3.4962,15.248 L3.4962,3.636 C3.4962,2.967 4.0422,2.421 4.7122,2.421 L15.8422,2.409 L15.8422,6.524 C15.8422,7.725 16.8182,8.701 18.0202,8.701 L22.0502,8.69 L22.0962,26.86 C22.0962,27.531 21.5512,28.077 20.8822,28.077 L20.8822,28.077 Z M3.3202,17.898 C3.6902,17.836 4.2122,17.789 4.9462,17.789 C5.6882,17.789 6.2172,17.93 6.5722,18.215 C6.9122,18.483 7.1412,18.926 7.1412,19.446 C7.1412,19.967 6.9672,20.41 6.6522,20.71 C6.2412,21.096 5.6332,21.27 4.9232,21.27 C4.7642,21.27 4.6222,21.262 4.5112,21.247 L4.5112,23.15 L3.3202,23.15 L3.3202,17.898 Z M16.5622,0.496 L4.7122,0.496 C2.9812,0.496 1.5722,1.906 1.5722,3.636 L1.5722,15.248 L1.2652,15.248 C0.5672,15.248 0.0002,15.814 0.0002,16.513 L0.0002,24.187 C0.0002,24.886 0.5672,25.453 1.2652,25.453 L1.5722,25.453 L1.5722,26.86 C1.5722,28.592 2.9812,30 4.7122,30 L20.8822,30 C22.6112,30 24.0202,28.592 24.0202,26.86 L24.0202,7.928 L16.5622,0.496 Z" mask="url(#pdf-b)"/>
    </g>
  </g>
</svg>
