<svg xmlns="http://www.w3.org/2000/svg" xmlns:xlink="http://www.w3.org/1999/xlink" width="31" height="31" viewBox="0 0 31 31">
  <defs>
    <polygon id="play-a" points=".5 0 9.5 0 9.5 12 .5 12"/>
  </defs>
  <g fill="none" fill-rule="evenodd" opacity=".972">
    <circle cx="15.5" cy="15.5" r="15.5" fill="#E4E4E4"/>
    <g transform="translate(11.5 10)">
      <mask id="play-b" fill="#fff">
        <use xlink:href="#play-a"/>
      </mask>
      <path fill="#FFF" d="M1.09367246,11.8575128 C1.26116625,11.9525043 1.44168734,12 1.62406948,12 C1.84181141,12 2.06141439,11.9330742 2.24751861,11.7992226 L8.99937965,6.99783612 C9.31203474,6.77546975 9.5,6.4019806 9.5,6.0004258 C9.5,5.59887099 9.31203474,5.22538185 8.99937965,5.00085658 L2.24751861,0.201628996 C1.90508685,-0.044485239 1.45843672,-0.066074207 1.09367246,0.141179886 C0.728908189,0.350592875 0.5,0.756465473 0.5,1.19903932 L0.5,10.7996534 C0.5,11.2422272 0.728908189,11.6480998 1.09367246,11.8575128" mask="url(#play-b)"/>
    </g>
  </g>
</svg>
