<?xml version="1.0" encoding="UTF-8"?>
<svg width="17px" height="17px" viewBox="0 0 17 17" version="1.1" xmlns="http://www.w3.org/2000/svg" xmlns:xlink="http://www.w3.org/1999/xlink">
    <title>9CF6DBD0-3404-45A4-9F91-CBF116D78718</title>
    <defs>
        <polygon id="path-1" points="0 0 16.125 0 16.125 16.1246 0 16.1246"></polygon>
    </defs>
    <g id="Design" stroke="none" stroke-width="1" fill="none" fill-rule="evenodd">
        <g id="home---question" transform="translate(-338.000000, -222.000000)">
            <g id="Group-2" transform="translate(326.000000, 214.000000)">
                <g id="Group-16" transform="translate(12.000000, 8.000000)">
                    <g id="Group-3">
                        <mask id="mask-2" fill="white">
                            <use xlink:href="#path-1"></use>
                        </mask>
                        <g id="Clip-2"></g>
                        <path d="M8.0627,-0.0004 C12.5157,-0.0004 16.1257,3.6096 16.1257,8.0626 C16.1257,12.5156 12.5157,16.1246 8.0627,16.1246 C3.6097,16.1246 -0.0003,12.5156 -0.0003,8.0626 C-0.0003,3.6096 3.6097,-0.0004 8.0627,-0.0004" id="Fill-1" fill="#FFE17D" mask="url(#mask-2)"></path>
                    </g>
                    <path d="M9.6232,12.4838 L9.6232,12.4838 C9.6232,12.1968 9.3902,11.9638 9.1032,11.9638 L4.4212,11.9638 C3.9902,11.9638 3.6412,11.6148 3.6412,11.1838 L3.6412,9.6228 C3.6412,9.3358 3.4082,9.1028 3.1212,9.1028 L3.1212,9.1028 C2.8342,9.1028 2.6012,9.3358 2.6012,9.6228 L2.6012,9.6228 L2.6012,10.8958 C2.6012,11.2008 2.5122,11.4968 2.3462,11.7498 C2.3432,11.7548 2.3402,11.7598 2.3372,11.7638 C2.3362,11.7658 2.3342,11.7678 2.3332,11.7698 C2.3102,11.8048 2.2852,11.8378 2.2592,11.8708 L2.0162,12.1738 C1.7212,12.5428 1.5602,13.0018 1.5602,13.4738 L1.5602,14.5648 C1.5602,15.4268 2.2592,16.1248 3.1212,16.1248 L3.1212,16.1248 L5.7222,16.1248 L5.7222,16.1248 C6.0082,16.1248 6.2422,15.8908 6.2422,15.6048 L6.2422,15.6048 C6.2422,15.3188 6.0082,15.0848 5.7222,15.0848 L5.9822,15.0848 C6.2682,15.0848 6.5022,14.8508 6.5022,14.5648 L6.5022,14.5648 C6.5022,14.2788 6.2682,14.0448 5.9822,14.0448 L6.2422,14.0448 C6.5282,14.0448 6.7622,13.8098 6.7622,13.5238 L6.7622,13.5238 L6.7622,13.5238 L6.7622,13.5238 C6.7622,13.2378 6.5282,13.0038 6.2422,13.0038 L9.1032,13.0038 C9.3722,13.0038 9.5942,12.7988 9.6202,12.5368 C9.6222,12.5198 9.6232,12.5018 9.6232,12.4838" id="Fill-4" fill="#F2BA1D"></path>
                    <path d="M9.3626,10.7282 C9.3136,10.7282 9.2636,10.7172 9.2166,10.6932 C9.1986,10.6842 7.4156,9.7982 5.4446,9.7532 C5.2646,9.7492 5.1226,9.6002 5.1266,9.4202 C5.1306,9.2412 5.2796,9.0922 5.4596,9.1032 C7.5816,9.1512 9.4316,10.0732 9.5096,10.1132 C9.6696,10.1932 9.7346,10.3892 9.6536,10.5492 C9.5966,10.6632 9.4816,10.7282 9.3626,10.7282" id="Fill-6" fill="#7D5046"></path>
                    <path d="M5.9817,4.226 C5.9107,4.226 5.8397,4.203 5.7797,4.155 C5.7307,4.117 4.6127,3.259 3.2667,3.932 C3.1067,4.012 2.9107,3.947 2.8307,3.786 C2.7497,3.626 2.8147,3.43 2.9757,3.35 C4.7027,2.486 6.1257,3.599 6.1847,3.647 C6.3257,3.759 6.3477,3.964 6.2357,4.104 C6.1717,4.184 6.0777,4.226 5.9817,4.226" id="Fill-8" fill="#7D5046"></path>
                    <path d="M9.6229,4.7463 C9.4709,4.7463 9.3349,4.6393 9.3049,4.4853 C9.2689,4.3093 9.3829,4.1373 9.5599,4.1023 L12.1599,3.5823 C12.3369,3.5473 12.5079,3.6613 12.5429,3.8373 C12.5779,4.0133 12.4639,4.1843 12.2879,4.2193 L9.6869,4.7403 C9.6649,4.7443 9.6439,4.7463 9.6229,4.7463" id="Fill-10" fill="#7D5046"></path>
                    <path d="M4.7874,6.5511 L4.7874,6.5511 C4.4314,6.5071 4.1774,6.1831 4.2214,5.8261 L4.2854,5.3101 C4.3294,4.9531 4.6534,4.7001 5.0104,4.7441 C5.3664,4.7881 5.6194,5.1131 5.5764,5.4691 L5.5124,5.9851 C5.4684,6.3421 5.1434,6.5951 4.7874,6.5511" id="Fill-12" fill="#7D5046"></path>
                    <path d="M10.2329,7.12 L10.2329,7.12 C9.8769,7.076 9.6229,6.752 9.6669,6.395 L9.7309,5.879 C9.7749,5.522 10.0989,5.269 10.4559,5.313 C10.8119,5.357 11.0649,5.682 11.0219,6.038 L10.9579,6.554 C10.9139,6.911 10.5889,7.164 10.2329,7.12" id="Fill-14" fill="#7D5046"></path>
                </g>
            </g>
        </g>
    </g>
</svg>