<svg xmlns="http://www.w3.org/2000/svg" xmlns:xlink="http://www.w3.org/1999/xlink" width="15" height="15" viewBox="0 0 15 15">
  <defs>
    <polygon id="time-a" points="0 .075 13.92 .075 13.92 13.333 0 13.333"/>
  </defs>
  <g fill="none" fill-rule="evenodd" transform="translate(.202)">
    <path fill="#EF8C20" d="M9.39736,8.6292 L7.33866,7.15786667 L7.33866,4.1792 C7.33866,3.9812 7.16856,3.81986667 6.96066,3.81986667 C6.75276,3.81986667 6.58266,3.9812 6.58266,4.1792 L6.58266,7.33786667 C6.58266,7.45053333 6.63936,7.55853333 6.73316,7.6252 L8.94516,9.20453333 C9.10966,9.32186667 9.35396,9.28586667 9.47226,9.13253333 C9.53386,9.0552 9.55976,8.9612 9.54576,8.86586667 C9.53106,8.7712 9.47856,8.68653333 9.39806,8.6292 L9.39736,8.6292 Z"/>
    <g transform="translate(0 .591)">
      <mask id="time-b" fill="#fff">
        <use xlink:href="#time-a"/>
      </mask>
      <path fill="#EF8C20" d="M6.96038,12.6139333 C3.53878,12.6139333 0.75558,9.9626 0.75558,6.7046 C0.75558,3.44593333 3.53878,0.7946 6.96038,0.7946 C10.38198,0.7946 13.16518,3.44593333 13.16518,6.7046 C13.16518,9.9626 10.38198,12.6139333 6.96038,12.6139333 M6.96038,0.0752666667 C3.12298,0.0752666667 0.00028,3.04926667 0.00028,6.7046 C0.00028,10.3599333 3.12298,13.3332667 6.96038,13.3332667 C10.79778,13.3332667 13.92048,10.3599333 13.92048,6.7046 C13.92048,3.04926667 10.79778,0.0752666667 6.96038,0.0752666667" mask="url(#time-b)"/>
    </g>
  </g>
</svg>
