<svg xmlns="http://www.w3.org/2000/svg" width="31" height="20" viewBox="0 0 31 20">
  <path fill="#EF8C20" stroke="#EF8C20" stroke-width=".5" d="M28.6990366,1.60543737 C28.5123146,1.49645387 28.2814321,1.49219858 28.09087,1.59456263 L21.4370365,5.17328607 L21.4370365,3.02600473 C21.4351165,1.35555559 20.0608613,0.00189125296 18.3650026,0 L3.0720339,0 C1.37617522,0.00189125296 0.00192002119,1.35555559 0,3.02600473 L0,14.9739953 C0.00192002119,16.6444445 1.37617522,17.9981087 3.0720339,18 L18.3650026,18 C20.0608613,17.9981087 21.4351165,16.6444445 21.4370365,14.9739953 L21.4370365,12.8657211 L28.09111,16.4444444 C28.2814321,16.5468085 28.5125546,16.5427896 28.6990366,16.4338062 C28.8857587,16.3245863 29,16.1267139 29,15.9132388 L29,2.12576832 C29,1.91205674 28.8855188,1.7144208 28.6990366,1.60543737 Z M20.207743,14.9742317 C20.2067829,15.9765957 19.3821339,16.7886525 18.3645227,16.7898345 L3.0720339,16.7898345 C2.05442267,16.7886525 1.23001356,15.9765957 1.22881356,14.9742317 L1.22881356,3.02600473 C1.23001356,2.02387705 2.05442267,1.21158391 3.0720339,1.21040189 L18.3650026,1.21040189 C19.3823739,1.21158391 20.207023,2.02387705 20.208223,3.02600473 L20.207743,14.9742317 Z M27.7711864,14.8933806 L21.4370365,11.4867612 L21.4370365,6.55224586 L27.7711864,3.1458629 L27.7711864,14.8933806 Z" transform="translate(1 1)"/>
</svg>
