<?xml version="1.0" encoding="UTF-8"?>
<svg width="15px" height="15px" viewBox="0 0 15 15" version="1.1" xmlns="http://www.w3.org/2000/svg" xmlns:xlink="http://www.w3.org/1999/xlink">
    <title>83AD7F69-559C-438A-8081-FD45EAC38065</title>
    <g id="Design" stroke="none" stroke-width="1" fill="none" fill-rule="evenodd">
        <g id="home" transform="translate(-1010.000000, -240.000000)" fill="#EF8C20">
            <path d="M1016.09379,250.312531 C1013.76742,250.312531 1011.87501,248.420147 1011.87501,246.093756 C1011.87501,243.767395 1013.76742,241.875011 1016.09379,241.875011 C1018.42015,241.875011 1020.31256,243.767395 1020.31256,246.093756 C1020.31256,248.420147 1018.42015,250.312531 1016.09379,250.312531 M1021.0079,249.682117 C1021.74601,248.674123 1022.18754,247.436001 1022.18754,246.093756 C1022.18754,242.733766 1019.45375,240 1016.09376,240 C1012.73377,240 1010,242.733766 1010,246.093756 C1010,249.453776 1012.7338,252.187542 1016.09379,252.187542 C1017.436,252.187542 1018.67427,251.745977 1019.68226,251.007838 L1023.6744,255 L1025.00009,253.674309 C1025.00009,253.674279 1021.0079,249.682117 1021.0079,249.682117" id="search"></path>
        </g>
    </g>
</svg>